<svg width="255" height="200" viewBox="0 0 255 200" fill="none" xmlns="http://www.w3.org/2000/svg">
<g clip-path="url(#clip0_1391_45942)">
<path d="M143.404 134.487C143.404 134.487 140.114 79.2755 166.935 65.7644C166.935 65.7644 140.952 85.2229 148.914 134.487H143.404Z" fill="#7FAD0F"/>
<path d="M146.26 134.487C146.26 134.487 148.133 96.0126 167.633 88.9609C167.633 88.9609 149.582 100.099 150.978 134.52L146.26 134.487Z" fill="#7FAD0F"/>
<path d="M148.914 134.487C148.914 134.487 150.557 106.809 164.753 101.675C164.753 101.675 151.017 109.473 152.033 134.536L148.914 134.487Z" fill="#7FAD0F"/>
<path d="M151.896 134.487C151.896 134.487 152.222 117.753 166.096 115.305C166.096 115.305 152.806 119.394 155 134.665L151.896 134.487Z" fill="#7FAD0F"/>
<path d="M79.844 149.911H35.3903V76.2135H79.844V149.911Z" fill="#7278E8"/>
<path d="M132.236 149.911H67.5586V76.2135H132.236V149.911Z" fill="#898AFE"/>
<path d="M103.756 149.914H92.9454L91.1583 76.2137H105.543L103.756 149.914Z" fill="#FEB528"/>
<path d="M67.538 118.624L67.6181 107.006L132.289 105.609L132.181 121.066L67.538 118.624Z" fill="#FEB528"/>
<path d="M35.3903 115.736L35.3941 107.306L67.5379 106.877V118.624L35.3903 115.736Z" fill="#FFC748"/>
<path d="M103.01 111.378C103.01 111.378 92.7332 116.864 93.2682 133.078C93.8011 149.294 89.2444 151.83 84.9006 154.819L85.6874 148.406L79.3042 151.308C79.3042 151.308 88.6069 138.063 88.6891 124.132C88.7707 110.197 98.2847 111.389 103.01 111.378Z" fill="#FFCACB"/>
<path d="M97.4548 111.796C97.4548 111.796 107.763 114.642 109.62 126.42C111.48 138.202 115.818 145.462 119.43 148.876L117.521 143.167L123.614 145.382C123.614 145.382 115.785 140.069 112.35 125.511C109.693 114.245 101.615 108.675 97.4548 111.796Z" fill="#FFCACB"/>
<path d="M82.13 132.928C82.13 132.928 84.8282 135.464 91.4402 125.152C98.0486 114.844 102.351 108.873 102.351 108.873C102.351 108.873 88.1323 108.922 82.13 132.928Z" fill="#FFCACB"/>
<path d="M101.018 101.964C101.018 101.964 133.231 107.106 124.622 121.672C124.622 121.672 115.081 138.147 112.406 131.757C111.993 130.772 107.844 111.562 95.7836 107.556L101.018 101.964Z" fill="#FFE2E2"/>
<path d="M113.602 133.123C113.602 133.123 110.743 135.533 105.123 124.696C99.5038 113.858 95.7836 107.556 95.7836 107.556C95.7836 107.556 109.737 108.437 113.602 133.123Z" fill="#FFCACB"/>
<path d="M97.5236 103.079C97.5236 103.079 64.4376 106.239 71.9341 121.041C71.9341 121.041 80.2169 137.777 83.4651 131.66C83.9671 130.719 89.788 112.099 102.352 108.873L97.5236 103.079Z" fill="#FFE2E2"/>
<path d="M98.2411 103.254C98.2411 103.254 76.8317 86.3196 73.4315 98.1119C73.4315 98.1119 69.4989 111.349 73.9196 109.636C74.6024 109.374 91.5693 103.787 99.0679 108.284L98.2411 103.254Z" fill="#FFE2E2"/>
<path d="M72.6887 109.663C72.6887 109.663 72.781 112.392 80.7832 110.068C88.7855 107.748 97.6684 107.591 97.6684 107.591C97.6684 107.591 86.8501 99.5891 72.6887 109.663Z" fill="#FFCACB"/>
<path d="M98.3501 103.299C98.3501 103.299 116.237 82.6795 121.769 93.6392C121.769 93.6392 128.095 105.915 123.432 105.055C122.712 104.923 105.004 102.585 98.4701 108.399L98.3501 103.299Z" fill="#FFE2E2"/>
<path d="M124.649 104.849C124.649 104.849 125.064 107.549 116.77 106.751C108.479 105.961 99.721 107.455 99.721 107.455C99.721 107.455 108.862 97.5823 124.649 104.849Z" fill="#FFCACB"/>
<path d="M63.3923 76.3761H82.4821V46.9274H63.3923V76.3761Z" fill="#EC6E94"/>
<path d="M108.539 29.3692C108.539 29.3692 113.954 44.1644 92.5977 44.2316C92.5977 44.2316 113.305 37.5811 102.843 27.9065L108.539 29.3692Z" fill="#FFCACB"/>
<path d="M90.9375 43.6898C89.2796 28.4866 97.0407 23.5186 102.849 24.5118C110.816 25.8737 108.976 35.1546 108.976 35.1546C108.333 31.9236 106.58 29.7594 104.811 29.028C95.3134 25.1082 91.9484 41.9252 91.9484 41.9252L90.9375 43.6898Z" fill="#FFE2E2"/>
<path d="M66.1397 32.2158C66.1397 32.2158 64.733 47.2313 83.314 43.6913C83.314 43.6913 63.8288 40.847 70.7657 29.8596L66.1397 32.2158Z" fill="#FFCACB"/>
<path d="M84.6348 42.8953C82.6871 28.1231 74.8311 24.6973 70.0039 26.6241C63.3806 29.2674 67.0497 37.8025 67.0497 37.8025C66.888 34.6157 67.9277 32.2563 69.3046 31.2614C76.6869 25.9221 83.362 41.383 83.362 41.383L84.6348 42.8953Z" fill="#FFE2E2"/>
<path d="M75.1068 34.3202C75.1068 34.3202 74.153 44.8345 86.5514 42.618C86.5514 42.618 73.5572 40.3418 78.195 32.7338L75.1068 34.3202Z" fill="#FFCACB"/>
<path d="M87.4342 42.0766C86.1485 31.6856 80.9112 29.1698 77.6897 30.4533C73.2685 32.2126 75.709 38.2534 75.709 38.2534C75.605 36.0156 76.3 34.3747 77.2192 33.6956C82.1493 30.0559 87.4342 42.0766 87.4342 42.0766Z" fill="#FFE2E2"/>
<path d="M93.7397 31.0771C93.7397 31.0771 82.2546 32.4443 87.2461 43.0183C87.2461 43.0183 86.95 30.9666 96.0933 33.4936L93.7397 31.0771Z" fill="#FFCACB"/>
<path d="M88.0135 43.6898C98.8937 40.3552 100.491 35.1621 98.4344 32.5626C95.6146 28.9971 89.6464 32.4421 89.6464 32.4421C92.0272 31.8771 93.9332 32.1524 94.8555 32.8272C99.8001 36.4499 88.0135 43.6898 88.0135 43.6898Z" fill="#FFE2E2"/>
<path d="M77.2073 76.3761H111.548V47.9178H77.2073V76.3761Z" fill="#FA90AB"/>
<path d="M111.547 50.6042V47.9178H82.4822V46.9272H111.547V50.6042Z" fill="#7F7F7F"/>
<path d="M77.2064 49.293L63.3923 48.7654V46.9271H82.4822V47.9177H77.2064V49.293Z" fill="#EB6A91"/>
<path d="M111.548 50.6042L77.2073 49.293V47.9178H111.548V50.6042Z" fill="#FD90AC"/>
<path d="M113.753 47.9174H61.4431V42.0345H113.753V47.9174Z" fill="#FE881C"/>
<path d="M77.2076 47.9174H61.4431V42.0345H77.2076V47.9174Z" fill="#FFA030"/>
<path d="M94.9188 76.3761H90.2773L89.5096 42.0766H95.6864L94.9188 76.3761Z" fill="#FFCACB"/>
<path d="M71.6757 76.3761H68.7342L67.9666 42.0344H72.4438L71.6757 76.3761Z" fill="#FFE2E2"/>
<path d="M156.437 65.4678L155.744 64.7402C157.753 62.8262 156.979 57.8203 154.974 54.7898C152.595 51.1949 153.927 49.4996 155.214 47.8598C156.103 46.7262 156.945 45.6561 156.82 43.835C156.421 37.9334 153.728 37.5056 153.7 37.5024L153.811 36.5022C153.956 36.5182 157.362 36.9455 157.824 43.7672C157.974 45.9725 156.929 47.305 156.005 48.4807C154.793 50.0261 153.835 51.2461 155.813 54.235C157.818 57.2634 159.026 63.0028 156.437 65.4678Z" fill="#FFE168"/>
<path d="M138.617 17.5963C139.217 26.698 147.83 45.1467 156.932 44.5583C166.041 43.9614 172.185 24.5434 171.592 15.4497C170.999 6.34057 163.139 -0.556896 154.029 0.0357639C144.925 0.630556 138.029 8.4941 138.617 17.5963Z" fill="#FF52BD"/>
<path d="M147.016 27.3444C146.358 27.1865 145.677 27.1097 144.983 27.1097C144.555 27.1097 144.123 27.139 143.688 27.1961C141.93 22.904 140.247 15.9793 141.322 11.9037C142.691 6.76398 145.915 3.85297 150.814 3.5345C151.026 3.52063 151.235 3.51369 151.444 3.51369C156.061 3.51369 159.773 6.94376 157.167 10.8715C154.415 15.0202 149.626 10.384 147.016 27.3444Z" fill="#FF71B7"/>
<path d="M168.352 23.0459C171.013 10.1173 165.323 4.07329 154.006 0.0367003L154.027 0.0356301C163.138 -0.557029 170.997 6.34044 171.591 15.4496C172.183 24.5433 166.04 43.9613 156.93 44.5582C156.32 44.5971 155.709 44.5465 155.094 44.4147C162.315 39.1613 166.408 32.4399 168.352 23.0459Z" fill="#E72A9F"/>
<path d="M158.187 43.7726L159.491 46.5636L154.542 46.8852L155.741 43.9348L158.187 43.7726Z" fill="#E72A9F"/>
<path d="M137.385 79.3505L136.779 78.6074C138.827 76.9377 138.459 72.1228 136.775 69.095C134.777 65.507 136.166 63.992 137.509 62.5277C138.437 61.5152 139.313 60.5593 139.329 58.8224C139.377 53.1844 136.848 52.58 136.823 52.5752L137 51.6331C137.137 51.6577 140.343 52.3138 140.287 58.8299C140.268 60.9365 139.177 62.1255 138.214 63.1759C136.949 64.5554 135.952 65.6452 137.612 68.6298C139.295 71.6555 140.024 77.1991 137.385 79.3505Z" fill="#FFE168"/>
<path d="M140.473 52.6399L141.866 55.2239L137.173 55.8027L138.153 52.9279L140.473 52.6399Z" fill="#FFA030"/>
<path d="M149.318 28.2972C145.743 26.0957 140.899 27.0628 136.898 30.3083C132.475 27.7809 127.593 27.5984 124.428 30.3041C119.988 34.0937 120.598 42.0975 125.793 48.1783C129.753 52.8182 135.234 54.9877 139.585 54.0766C143.609 53.6269 147.904 50.7602 150.73 46.1693C154.924 39.3599 154.29 31.3587 149.318 28.2972Z" fill="#FFA030"/>
<path d="M128.557 48.0527C127.496 48.0527 124.053 40.1891 124.856 36.2352C125.532 32.9577 127.451 31.0123 130.518 30.6346C130.764 30.6036 131.007 30.5887 131.247 30.5887C133.998 30.5887 136.211 32.5518 134.775 35.0163C133.115 37.8574 129.695 34.692 128.852 47.4606C128.825 47.8692 128.719 48.0527 128.557 48.0527Z" fill="#FFAF2E"/>
<path d="M150.728 46.1693C154.923 39.3599 154.289 31.3587 149.317 28.2972C148.531 27.8134 147.68 27.4907 146.792 27.3034C153.576 32.4661 151.653 48.0124 140.993 53.8168C144.584 52.9318 148.23 50.2283 150.728 46.1693Z" fill="#ED7715"/>
<path d="M131.512 97.3049C131.512 97.3049 135.831 94.8329 136.545 92.3449C137.258 89.8575 135.411 88.8274 135.411 88.8274C135.411 88.8274 132.417 94.0749 129.873 95.2415C127.33 96.4087 131.512 97.3049 131.512 97.3049Z" fill="#FFBE9D"/>
<path d="M137.772 86.3678C140.721 88.8393 135.315 95.1393 135.315 95.1393L131.698 93.1004C131.698 93.1004 134.896 83.9582 137.772 86.3678Z" fill="#89B8E0"/>
<path d="M130.555 97.2854C128.59 96.6373 124.349 93.1613 124.349 93.1613L125.854 92.5841L132.195 95.1729C132.195 95.1729 132.555 97.9453 130.555 97.2854Z" fill="#FFBE9D"/>
<path d="M126.134 92.5151C126.093 92.345 126.153 92.1364 126.155 91.9646C126.16 91.6216 126.053 91.2936 125.943 90.9735C125.882 90.7953 125.963 90.3478 125.733 90.2704C125.356 90.1429 125.424 90.9239 125.378 91.0962C125.336 91.2546 125.212 91.4098 125.048 91.413C124.94 91.4152 124.843 91.3522 124.757 91.2872C124.481 91.0796 124.243 90.8305 123.991 90.5963C123.86 90.4747 123.723 90.3638 123.585 90.2501C123.482 90.1653 123.378 90.0117 123.258 89.9578C123.163 89.9151 123.025 89.9514 123.001 90.065C122.98 90.1669 123.071 90.2107 123.129 90.2773C123.257 90.4278 123.381 90.5819 123.504 90.7366L123.665 90.9553C123.612 91.1842 123.22 90.8215 123.155 90.7665C122.992 90.6294 122.817 90.4918 122.596 90.4699L122.514 90.4897L122.531 90.6161C122.683 90.8401 122.913 91.0034 123.06 91.2311L123.085 91.3544C122.998 91.5091 122.694 91.3266 122.589 91.2754C122.523 91.2429 122.437 91.2093 122.382 91.2583L122.36 91.3928L122.446 91.5075C122.545 91.6083 122.641 91.723 122.752 91.8105C122.806 91.8531 122.977 91.9641 122.935 92.0484L122.892 92.0799C122.827 92.0975 122.759 92.0692 122.695 92.0505C122.631 92.0318 122.551 92.0276 122.508 92.0783C122.454 92.1423 122.496 92.2388 122.547 92.3055C122.727 92.5429 122.993 92.7163 123.232 92.8886C123.489 93.0726 123.753 93.2454 124.025 93.406C124.386 93.6194 124.76 93.8109 125.144 93.9789C125.479 94.1262 125.873 94.2723 126.242 94.1624C126.346 94.1315 126.442 94.0792 126.536 94.0253C126.66 93.9544 126.783 93.877 126.879 93.7725C126.976 93.6674 127.045 93.5308 127.042 93.3884L127.03 93.3313L126.974 93.2849C126.807 93.1926 126.634 93.1099 126.482 92.9947C126.335 92.8822 126.203 92.7264 126.134 92.5151Z" fill="#FFBE9D"/>
<path d="M146.138 110.959L132.748 101.514L133.012 99.5793L145.743 98.6132L146.138 110.959Z" fill="#4F4455"/>
<path d="M134.57 87.8799C135.431 85.1225 139.581 84.9801 142.955 85.4911C145.23 85.8357 146.694 86.5746 146.947 89.4162C147.108 91.2283 146.609 99.1554 145.499 101.254C145.499 101.254 141.625 103.423 132.989 100.763C132.989 100.763 132.73 93.7729 134.57 87.8799Z" fill="#AACEF2"/>
<path d="M146.016 101.747C146.016 101.747 137.799 103.339 132.66 100.888L133.011 99.579C133.011 99.579 138.873 101.714 145.885 100.244L146.016 101.747Z" fill="#3D3442"/>
<path d="M141.927 100.419H141.196L141.023 102.608H142.228L141.927 100.419Z" fill="#4F4455"/>
<path d="M136.825 100.166L136.295 100.001L135.389 102.008L136.476 102.348L136.825 100.166Z" fill="#4F4455"/>
<path d="M142.594 81.8241C142.594 81.8241 139.118 82.5709 139.313 82.8547C139.506 83.1385 139.168 83.7104 139.159 84.2646C139.147 84.8653 138.748 85.5017 138.213 86.1087C137.839 86.5334 138.504 87.0407 139.097 87.1522C141.649 87.6317 143.259 86.6785 142.719 85.8532C141.507 83.9973 142.594 81.8241 142.594 81.8241Z" fill="#FFBE9D"/>
<path d="M139.159 84.2648C139.168 83.7105 139.506 83.1387 139.313 82.8549C139.119 82.5711 142.869 81.7661 142.869 81.7661C142.869 81.7661 142.3 82.3486 142.203 83.2235C141.161 84.6318 139.675 85.0676 138.735 85.4336C138.974 85.1033 139.155 84.4819 139.159 84.2648Z" fill="#FF9C80"/>
<path d="M139.098 77.8181C137.73 78.852 136.563 82.4207 137.995 84.1208C138.781 85.0543 141.641 84.0627 142.982 82.0302C143.156 81.7662 143.584 80.2544 142.87 78.606C142.549 77.8592 140.519 76.7438 139.098 77.8181Z" fill="#FFBE9D"/>
<path d="M137.516 80.6288C137.518 80.8475 137.824 78.4694 139.16 78.3083C139.704 78.2427 139.582 78.8156 140.213 78.8625C140.752 78.902 142.366 77.818 141.745 81.0278C141.715 81.182 141.861 81.3633 141.932 81.502C142.021 81.6722 141.746 82.0627 141.75 82.2542C141.754 82.4393 142.31 81.8717 142.299 82.0563C142.283 82.3358 141.799 83.1162 142.201 83.2229C142.396 83.2752 142.633 82.9615 142.777 82.8559C143.18 82.5572 143.63 82.3507 143.971 81.9688C144.348 81.5479 144.556 80.9985 144.653 80.4421C144.749 79.8921 144.738 79.3074 144.514 78.7958C144.28 78.2619 143.813 77.8351 143.26 77.65C142.934 77.5406 142.562 77.53 142.252 77.3779C141.979 77.2435 141.678 77.2088 141.401 77.0744C141.181 76.9672 141.1 76.8328 140.957 76.6493C140.643 76.2492 140.139 75.9921 139.632 76.0166C139.124 76.0406 138.632 76.366 138.449 76.8402C138.345 77.1075 138.308 77.4489 138.051 77.5748C137.957 77.6212 137.847 77.6292 137.758 77.6847C137.674 77.7364 137.621 77.8255 137.577 77.9141C137.347 78.3819 137.332 78.9356 137.459 79.4408C137.51 79.6424 137.584 79.8446 137.57 80.0558C137.556 80.2479 137.515 80.433 137.516 80.6288Z" fill="#53424D"/>
<path d="M141.412 81.8242C141.412 81.8242 142.399 80.9553 142.943 81.2055C143.489 81.4567 142.723 82.9397 141.599 82.7343C140.477 82.53 141.108 82.059 141.412 81.8242Z" fill="#FFBE9D"/>
<path d="M133.136 132.996C133.136 132.996 132.623 133.597 132.019 134.409C131.415 135.221 130.961 136.069 131.807 136.458C132.652 136.846 133.679 135.892 134.012 135.327C134.344 134.762 134.721 134.824 135.178 134.448C135.641 134.067 135.394 132.679 135.394 132.679L133.136 132.996Z" fill="#FC9E1C"/>
<path d="M140.899 106.3C139.663 107.863 135.55 133.043 135.55 133.043C134.315 134.082 132.462 133.043 132.462 133.043C131.123 120.204 132.78 101.133 132.78 101.133C132.78 101.133 142.135 107.863 140.899 106.3Z" fill="#4F4455"/>
<path d="M133.961 101.547C133.978 102.591 133.945 105.517 132.451 105.516C132.205 105.516 132.204 105.9 132.451 105.9C134.28 105.9 134.365 102.826 134.344 101.547C134.34 101.3 133.958 101.3 133.961 101.547Z" fill="#3D3442"/>
<path d="M145.453 133.41C145.453 133.41 145.966 134.01 146.57 134.822C147.174 135.635 147.628 136.483 146.782 136.871C145.936 137.26 144.909 136.306 144.577 135.741C144.245 135.175 143.868 135.237 143.411 134.862C142.948 134.48 143.195 133.093 143.195 133.093L145.453 133.41Z" fill="#FC9E1C"/>
<path d="M137.689 106.713C138.925 108.277 143.037 133.457 143.037 133.457C144.273 134.496 146.126 133.457 146.126 133.457C147.465 120.617 146.015 101.747 146.015 101.747C146.015 101.747 136.453 108.277 137.689 106.713Z" fill="#4F4455"/>
<path d="M144.245 101.96C144.224 103.239 144.309 106.313 146.138 106.313C146.385 106.313 146.385 105.93 146.138 105.93C144.643 105.93 144.611 103.005 144.628 101.96C144.631 101.713 144.249 101.713 144.245 101.96Z" fill="#3D3442"/>
<path d="M126.728 92.1599H134.649V86.5187H126.728V92.1599Z" fill="#D98853"/>
<path d="M138.232 92.1599H133.774V86.5187H138.232V92.1599Z" fill="#C16D3E"/>
<path d="M131.786 90.7317H133.001V87.1256H131.786V90.7317Z" fill="#F3A277"/>
<path d="M127.287 87.4467H131.036V87.1256H127.287V87.4467Z" fill="#F3A277"/>
<path d="M127.287 87.8757H131.036V87.554H127.287V87.8757Z" fill="#F3A277"/>
<path d="M124.705 98.6498H135.364V91.6333H124.705V98.6498Z" fill="#D98853"/>
<path d="M140.185 98.6498H134.186V91.6333H140.185V98.6498Z" fill="#C16D3E"/>
<path d="M122.992 94.1238H132.472L134.186 91.6332H124.706L122.992 94.1238Z" fill="#F3A277"/>
<path d="M142.33 94.1238H135.85L134.136 91.6332H140.616L142.33 94.1238Z" fill="#F3A277"/>
<path d="M125.313 97.1413H133.275V94.856H125.313V97.1413Z" fill="#F3A277"/>
<path d="M145.638 98.5494C145.638 98.5494 147.862 94.0973 147.077 91.6317C146.291 89.1656 144.183 89.332 144.183 89.332C144.183 89.332 144.6 95.3594 143.13 97.7407C141.66 100.122 145.638 98.5494 145.638 98.5494Z" fill="#FFBE9D"/>
<path d="M144.785 85.976C148.609 86.3979 147.602 94.6386 147.602 94.6386L143.463 94.9459C143.463 94.9459 141.056 85.5647 144.785 85.976Z" fill="#89B8E0"/>
<path d="M144.83 99.0641C142.835 99.6131 137.379 99.0716 137.379 99.0716L138.312 97.7572L145.024 96.3964C145.024 96.3964 146.86 98.5046 144.83 99.0641Z" fill="#FFBE9D"/>
<path d="M138.506 97.5452C138.377 97.4268 138.312 97.2198 138.218 97.0753C138.032 96.7872 137.762 96.5733 137.493 96.3679C137.343 96.2538 137.162 95.8361 136.928 95.8996C136.543 96.0025 137.032 96.6149 137.09 96.7835C137.143 96.9382 137.126 97.1361 136.991 97.23C136.903 97.2919 136.787 97.2935 136.679 97.2871C136.335 97.2673 135.999 97.1916 135.659 97.1361C135.482 97.1073 135.307 97.0907 135.129 97.0731C134.996 97.0598 134.825 96.9899 134.695 97.0113C134.593 97.0278 134.497 97.135 134.54 97.2433C134.58 97.3399 134.68 97.3249 134.765 97.3489C134.955 97.4028 135.144 97.462 135.332 97.5228L135.586 97.6157C135.67 97.8354 135.141 97.7512 135.058 97.7416C134.846 97.7175 134.624 97.7005 134.428 97.805L134.371 97.8664L134.454 97.9624C134.705 98.0643 134.987 98.0728 135.236 98.1806L135.325 98.2697C135.339 98.4462 134.984 98.4633 134.869 98.4788C134.796 98.4884 134.706 98.5081 134.687 98.5791L134.743 98.7028L134.878 98.7508C135.017 98.7796 135.161 98.8223 135.301 98.8335C135.37 98.8389 135.573 98.8372 135.585 98.9306L135.566 98.9802C135.522 99.0309 135.451 99.0448 135.387 99.0645C135.323 99.0848 135.254 99.1253 135.247 99.192C135.237 99.2747 135.326 99.3323 135.404 99.3595C135.686 99.4571 136.003 99.4539 136.298 99.4646C136.614 99.4763 136.93 99.4731 137.245 99.456C137.664 99.4331 138.081 99.3851 138.494 99.312C138.854 99.2491 139.263 99.1525 139.509 98.8565C139.579 98.7727 139.63 98.6761 139.678 98.5791C139.741 98.4516 139.801 98.3193 139.823 98.1784C139.846 98.0376 139.828 97.8856 139.746 97.7682L139.705 97.7277L139.631 97.7202C139.442 97.7357 139.252 97.7629 139.062 97.7512C138.877 97.7399 138.68 97.6834 138.506 97.5452Z" fill="#FFBE9D"/>
<path d="M140.496 81.7678L140.455 81.7763L140.321 81.7865C140.147 81.7736 140.088 81.6478 140.072 81.4952C140.061 81.3997 139.909 81.4269 139.919 81.5219C139.956 81.8601 140.244 82.0052 140.564 81.9027C140.658 81.8729 140.589 81.7379 140.496 81.7678Z" fill="#1E100C"/>
<path d="M138.995 80.9338C138.948 80.9647 138.891 80.9898 138.836 81.0042C138.656 81.049 138.579 80.9295 138.543 80.77C138.521 80.6756 138.369 80.7017 138.39 80.7967C138.433 80.985 138.536 81.1648 138.76 81.1642C138.88 81.1637 139.001 81.113 139.097 81.0485C139.178 80.9941 139.076 80.8794 138.995 80.9338Z" fill="#1E100C"/>
<path d="M138.851 80.1098C139.11 80.1007 139.288 80.2602 139.339 80.5115C139.362 80.6294 139.541 80.5798 139.518 80.4629C139.451 80.1301 139.195 79.9114 138.849 79.9242C138.729 79.9284 138.731 80.1146 138.851 80.1098Z" fill="#3F302D"/>
<path d="M140.219 80.9739C140.466 80.8944 140.68 80.9995 140.797 81.2284C140.851 81.335 141.011 81.2385 140.957 81.1318C140.803 80.8299 140.496 80.6885 140.166 80.7952C140.052 80.8315 140.104 81.0102 140.219 80.9739Z" fill="#3F302D"/>
<path d="M139.59 80.8952C139.594 81.0659 139.566 81.2542 139.475 81.3993C139.343 81.6111 139.054 81.641 138.857 81.7909C138.588 81.9973 138.739 82.2075 139.032 82.3862C139.102 82.4294 139.166 82.3424 139.096 82.2992C138.441 81.8991 139.372 81.7642 139.563 81.4975C139.683 81.3305 139.723 81.1102 139.718 80.9064C139.717 80.837 139.589 80.8253 139.59 80.8952Z" fill="#DC8162"/>
<path d="M139.547 82.8536C139.547 82.8536 139.423 83.482 138.912 83.3444C138.4 83.2067 138.495 82.6386 138.495 82.6386L139.547 82.8536Z" fill="#FAFFFF"/>
<path d="M140.556 82.9637C140.443 83.1285 140.219 83.1717 140.053 83.0597C139.889 82.9477 139.845 82.7226 139.957 82.5577C140.069 82.3924 140.295 82.3497 140.459 82.4617C140.625 82.5738 140.668 82.7983 140.556 82.9637Z" fill="#F3A498"/>
<path d="M137.872 81.2946C138.057 81.2151 138.273 81.3004 138.352 81.4861C138.432 81.6723 138.346 81.8867 138.161 81.9667C137.975 82.0467 137.76 81.9609 137.68 81.7752C137.601 81.5896 137.686 81.3746 137.872 81.2946Z" fill="#F3A498"/>
<path d="M35.5715 72.8905L35.1145 72.1474C36.4379 70.1918 35.9289 65.0739 34.6073 61.9783C33.0401 58.305 33.9172 56.5718 34.7657 54.8958C35.3516 53.7376 35.9053 52.6441 35.8247 50.7839C35.5603 44.7528 33.7861 44.3154 33.7673 44.3116L33.8405 43.2906C33.9357 43.3056 36.1806 43.743 36.4856 50.7151C36.5844 52.9668 35.8951 54.3292 35.2867 55.5306C34.4873 57.1096 33.8559 58.3557 35.1595 61.4113C36.4802 64.5063 37.2765 70.3716 35.5715 72.8905Z" fill="#FFE168"/>
<path d="M36.7651 48.8349L37.5779 50.5494L34.5283 50.7654L35.2583 48.9427L36.7651 48.8349Z" fill="#B757CE"/>
<path d="M46.3527 38.7101C46.5575 44.6218 41.9318 49.5812 36.0211 49.7871C30.1092 49.9931 25.1503 45.3675 24.944 39.4559C24.7376 33.5442 29.3624 28.5837 35.2757 28.3788C41.1859 28.1724 46.146 32.7984 46.3527 38.7101Z" fill="#B757CE"/>
<path d="M24.944 39.4555C25.0221 41.7104 25.7954 43.7754 27.0471 45.459C29.0206 47.174 31.6152 48.1817 34.4345 48.084C40.3439 47.8781 44.9703 42.9187 44.7638 37.0076C44.6859 34.7527 43.9134 32.6866 42.6609 31.0031C40.6879 29.2896 38.0932 28.2793 35.2757 28.3785C29.3624 28.5834 24.7376 33.5439 24.944 39.4555Z" fill="#B757CE"/>
<path d="M29.6706 44.814C28.8695 44.8135 26.5388 38.705 27.3096 35.7385C27.9526 33.2878 29.4928 31.8923 31.8431 31.728C31.9531 31.7206 32.0623 31.7163 32.1707 31.7163C34.3767 31.7163 36.1494 33.3353 34.9133 35.2056C33.5376 37.2887 31.0569 34.7623 29.9114 44.3777C29.8751 44.6785 29.7899 44.814 29.6706 44.814Z" fill="#C564CC"/>
<path d="M147.073 148.6C146.424 146.722 146.23 145.061 146.645 144.882C147.065 144.712 147.921 146.093 148.566 147.97C149.217 149.845 149.409 151.512 148.989 151.688C148.575 151.86 147.709 150.473 147.073 148.6Z" fill="#36B2AF"/>
<path d="M144.342 141.495C143.7 139.61 143.511 137.946 143.918 137.775C144.334 137.601 145.2 138.979 145.844 140.855C146.496 142.744 146.679 144.402 146.262 144.576C145.855 144.753 144.99 143.373 144.342 141.495Z" fill="#36B2AF"/>
<path d="M142.919 143.659C141.428 142.513 140.427 141.258 140.676 140.852C140.932 140.451 142.342 141.053 143.835 142.204C145.331 143.346 146.332 144.602 146.085 145.003C145.824 145.413 144.411 144.806 142.919 143.659Z" fill="#36B2AF"/>
<path d="M149.482 142.288C151.093 141.338 152.552 140.921 152.76 141.361C152.965 141.797 151.833 142.906 150.237 143.86C148.632 144.799 147.157 145.214 146.952 144.776C146.743 144.349 147.871 143.226 149.482 142.288Z" fill="#36B2AF"/>
<path d="M147.089 141.315C147.928 139.531 148.933 138.269 149.326 138.497C149.717 138.722 149.355 140.351 148.511 142.135C147.666 143.908 146.663 145.173 146.268 144.947C145.883 144.718 146.245 143.09 147.089 141.315Z" fill="#36B2AF"/>
<path d="M145.206 148.852C145.023 150.852 145.225 152.511 145.665 152.56C146.108 152.61 146.614 151.029 146.799 149.029C146.986 147.032 146.778 145.37 146.341 145.32C145.893 145.27 145.385 146.848 145.206 148.852Z" fill="#36B2AF"/>
<path d="M143.226 147.324C142.053 148.862 141.375 150.365 141.716 150.678C142.053 150.999 143.272 150.006 144.451 148.474C145.625 146.935 146.295 145.438 145.965 145.119C145.625 144.799 144.402 145.794 143.226 147.324Z" fill="#36B2AF"/>
<path d="M142.452 144.236C140.63 144.265 139.165 144.69 139.165 145.177C139.178 145.666 140.659 146.042 142.471 146.013C144.293 145.978 145.756 145.554 145.747 145.069C145.741 144.579 144.273 144.209 142.452 144.236Z" fill="#36B2AF"/>
<path d="M150.315 144.281C148.496 144.311 147.025 144.73 147.035 145.22C147.044 145.714 148.52 146.09 150.331 146.052C152.153 146.028 153.621 145.603 153.614 145.112C153.607 144.626 152.124 144.249 150.315 144.281Z" fill="#36B2AF"/>
<path d="M149.346 147.744C147.851 146.592 146.851 145.343 147.102 144.936C147.361 144.538 148.77 145.14 150.261 146.287C151.756 147.432 152.76 148.691 152.506 149.089C152.253 149.496 150.843 148.89 149.346 147.744Z" fill="#36B2AF"/>
<path d="M145.706 145.214C145.536 144.701 145.762 144.132 146.227 143.935C146.685 143.741 147.201 143.993 147.368 144.505C147.553 145.019 147.321 145.58 146.858 145.779C146.393 145.976 145.882 145.718 145.706 145.214Z" fill="#FE88D4"/>
<path d="M218.312 187.453C218.312 187.453 181.8 174.822 139.688 187.558C122.302 192.816 99.1801 201.998 71.3859 186.95C39.5241 169.696 1.05753 155.998 0.0156436 145.071C-1.02937 134.146 50.6012 142.33 59.1193 144.959C67.6432 147.589 199.15 153.62 199.15 153.62L218.312 187.453Z" fill="#EE9D7F"/>
<path d="M40.9319 141.796C40.9319 141.796 33.2363 159.907 78.0805 168.053C95.792 171.27 118.349 182.186 143.506 171.613C168.668 161.044 55.6042 144.081 55.6042 144.081L40.9319 141.796Z" fill="#E67052"/>
<path d="M164.069 168.687C164.069 168.687 125.603 177.193 107.42 167.214C89.2383 157.239 56.2382 165.219 46.6696 151.663C37.1063 138.106 51.1841 134.003 61.6239 135.072C72.0624 136.141 101.516 140.402 124.275 133.138C165.699 119.917 178.672 120.867 209.772 136.517C209.772 136.517 238.526 148.171 254.582 139.541V200.001L164.069 168.687Z" fill="#EE9D7F"/>
<path d="M34.3403 135.654C32.9273 137.693 31.334 139.092 30.7766 138.788C30.2192 138.487 30.9133 136.593 32.328 134.554C33.7316 132.514 35.3314 131.115 35.8871 131.418C36.4445 131.721 35.7502 133.617 34.3403 135.654Z" fill="#C86CDB"/>
<path d="M29.2444 143.645C27.8324 145.678 26.2436 147.089 25.688 146.784C25.1288 146.479 25.82 144.583 27.2346 142.548C28.6466 140.511 30.2428 139.108 30.7958 139.413C31.3503 139.714 30.6553 141.614 29.2444 143.645Z" fill="#C86CDB"/>
<path d="M32.814 143.555C32.9405 145.937 32.5103 147.89 31.8546 147.919C31.2032 147.951 30.5756 146.045 30.4545 143.66C30.3305 141.275 30.7669 139.32 31.4137 139.292C32.0686 139.26 32.6944 141.17 32.814 143.555Z" fill="#C86CDB"/>
<path d="M25.48 137.731C23.0434 136.749 21.287 135.523 21.5566 134.992C21.828 134.461 24.0307 134.83 26.4666 135.809C28.9063 136.794 30.6642 138.017 30.3891 138.544C30.1195 139.077 27.9186 138.711 25.48 137.731Z" fill="#C86CDB"/>
<path d="M26.5906 140.927C23.9442 141.342 21.7152 141.216 21.6031 140.644C21.4918 140.07 23.5452 139.272 26.1907 138.849C28.8307 138.436 31.0643 138.56 31.1772 139.136C31.2831 139.708 29.2324 140.509 26.5906 140.927Z" fill="#C86CDB"/>
<path d="M36.2758 137.41C38.5615 136.153 40.1364 134.733 39.7951 134.236C39.4506 133.743 37.3227 134.362 35.0361 135.624C32.7513 136.88 31.1772 138.301 31.5114 138.799C31.8586 139.29 33.9867 138.671 36.2758 137.41Z" fill="#C86CDB"/>
<path d="M36.4387 140.573C39.1105 140.677 41.3095 140.291 41.346 139.709C41.3752 139.128 39.2305 138.573 36.5487 138.467C33.8706 138.361 31.6733 138.752 31.6451 139.331C31.6116 139.912 33.752 140.467 36.4387 140.573Z" fill="#C86CDB"/>
<path d="M33.8549 143.621C35.5109 145.488 37.2746 146.71 37.7922 146.343C38.3004 145.983 37.3684 144.178 35.7115 142.308C34.0526 140.445 32.2889 139.225 31.7772 139.588C31.2587 139.95 32.1933 141.757 33.8549 143.621Z" fill="#C86CDB"/>
<path d="M26.8503 135.417C28.5128 137.285 30.2756 138.504 30.7856 138.141C31.3069 137.777 30.3738 135.974 28.7078 134.106C27.0489 132.24 25.2844 131.019 24.7735 131.385C24.2596 131.746 25.1904 133.552 26.8503 135.417Z" fill="#C86CDB"/>
<path d="M31.3812 133.91C31.5071 136.289 31.0716 138.247 30.4229 138.278C29.7707 138.305 29.1441 136.396 29.0164 134.011C28.899 131.63 29.3273 129.677 29.9838 129.646C30.6333 129.616 31.2647 131.524 31.3812 133.91Z" fill="#C86CDB"/>
<path d="M31.9622 139.531C31.5787 140.083 30.7698 140.257 30.1503 139.916C29.5346 139.581 29.3395 138.859 29.7167 138.307C30.1065 137.76 30.9174 137.58 31.535 137.917C32.1508 138.254 32.3447 138.977 31.9622 139.531Z" fill="#FD9806"/>
<path d="M18.8681 138.161C18.3199 136.573 18.1559 135.168 18.5066 135.016C18.8628 134.872 19.586 136.04 20.1326 137.629C20.6829 139.214 20.845 140.623 20.4898 140.774C20.1399 140.919 19.4075 139.746 18.8681 138.161Z" fill="#36B2AF"/>
<path d="M16.5589 132.15C16.0158 130.556 15.8556 129.148 16.2 129.003C16.5524 128.857 17.2849 130.022 17.8298 131.608C18.3807 133.206 18.5355 134.61 18.183 134.755C17.8385 134.907 17.1071 133.738 16.5589 132.15Z" fill="#36B2AF"/>
<path d="M15.3542 133.982C14.0935 133.012 13.2463 131.949 13.4567 131.606C13.6726 131.267 14.8662 131.777 16.1285 132.751C17.3948 133.716 18.2421 134.779 18.0325 135.118C17.812 135.465 16.6169 134.951 15.3542 133.982Z" fill="#36B2AF"/>
<path d="M20.9075 132.821C22.2694 132.017 23.5046 131.664 23.6805 132.038C23.8535 132.406 22.8962 133.344 21.5451 134.15C20.1877 134.945 18.9399 135.297 18.7666 134.925C18.5901 134.565 19.5447 133.615 20.9075 132.821Z" fill="#36B2AF"/>
<path d="M18.883 131.997C19.5936 130.488 20.4436 129.42 20.7761 129.615C21.1069 129.804 20.8007 131.181 20.0864 132.691C19.3723 134.191 18.5234 135.262 18.19 135.07C17.8639 134.876 18.17 133.499 18.883 131.997Z" fill="#36B2AF"/>
<path d="M17.2888 138.374C17.134 140.066 17.3052 141.469 17.6768 141.51C18.0521 141.554 18.4803 140.217 18.636 138.523C18.7947 136.834 18.6188 135.428 18.2498 135.385C17.8708 135.344 17.4399 136.68 17.2888 138.374Z" fill="#36B2AF"/>
<path d="M15.6139 137.081C14.6226 138.383 14.0487 139.654 14.3365 139.919C14.6226 140.191 15.6531 139.351 16.6514 138.053C17.6435 136.753 18.2109 135.486 17.9314 135.216C17.6435 134.945 16.6095 135.787 15.6139 137.081Z" fill="#36B2AF"/>
<path d="M14.9584 134.47C13.4189 134.494 12.179 134.853 12.179 135.265C12.1892 135.68 13.4426 135.997 14.9746 135.973C16.5162 135.943 17.7541 135.585 17.7458 135.174C17.7415 134.759 16.4997 134.445 14.9584 134.47Z" fill="#36B2AF"/>
<path d="M21.6112 134.506C20.0717 134.533 18.8283 134.886 18.8366 135.301C18.8439 135.718 20.0925 136.039 21.6249 136.005C23.1661 135.986 24.4089 135.625 24.4024 135.211C24.3961 134.798 23.1417 134.481 21.6112 134.506Z" fill="#36B2AF"/>
<path d="M20.7912 137.438C19.5261 136.463 18.6797 135.406 18.8929 135.061C19.1114 134.724 20.3038 135.233 21.5655 136.204C22.8299 137.174 23.6791 138.238 23.4649 138.575C23.2509 138.918 22.0575 138.407 20.7912 137.438Z" fill="#36B2AF"/>
<path d="M17.713 135.297C17.5693 134.863 17.7603 134.382 18.154 134.215C18.5409 134.051 18.9775 134.263 19.1196 134.698C19.2763 135.131 19.0793 135.607 18.6878 135.775C18.2944 135.94 17.8614 135.723 17.713 135.297Z" fill="#FE88D4"/>
</g>
<defs>
<clipPath id="clip0_1391_45942">
<rect width="254.086" height="199.61" fill="white" transform="scale(1.00196)"/>
</clipPath>
</defs>
</svg>
