<svg width="365" height="283" viewBox="0 0 365 283" fill="none" xmlns="http://www.w3.org/2000/svg">
<g clip-path="url(#clip0_3802_21898)">
<path d="M132.437 192.782C127.436 194.746 123.507 199.231 119.689 200.452C117.83 201.045 112.157 201.535 110.273 200.701L112.256 208.965C112.698 210.791 113.026 212.876 113.956 214.515C121.461 214.667 121.682 213.649 124.751 208.358C128.413 202.049 133.563 198.56 141.19 198.696C148.323 198.823 151.194 205.17 154.574 204.963C164.506 204.358 161.836 196.682 170.129 192.107L170.362 191.976C174.855 189.508 181.723 189.684 185.963 192.375C187.842 193.567 189.952 195.943 192.308 195.813L192.529 195.807C197.063 195.625 197.994 192.412 199.878 189.027C202.381 184.532 206.726 182.305 211.697 181.624C216.222 181.003 219.682 182.966 223.289 185.397C226.635 187.651 227.256 187.419 231.044 186.5C232.394 186.173 233.618 185.951 234.59 184.865L234.708 184.736C235.451 183.879 237.079 179.775 238.163 178.035L238.288 177.86C243.901 170.039 255.103 170.68 262.206 176.358C265.425 178.929 267.997 177.97 271.582 176.455C272.184 176.201 272.836 176.116 273.383 175.744C273.2 173.938 272.7 172.176 272.279 170.414L270.262 163.084C269.379 163.995 267.473 164.559 266.321 165.094C260.646 167.731 254.938 164.698 249.082 164.821C239.248 165.028 233.67 174.688 224.95 175.505C212.835 176.64 210.118 170.542 197.996 179.68C186.129 188.625 183.744 180.542 173.579 183.016C166.267 184.796 160.265 192.277 153.248 192.59C146.398 192.896 139.104 190.255 132.437 192.782ZM113.392 153.946C108.668 155.683 103.175 159.25 102.282 164.632C101.811 167.469 103.125 171.041 103.787 173.823L106.056 183.065C106.472 182.224 107.065 181.883 107.668 181.222C116.348 171.718 126.39 169.136 138.592 174.531C140.92 175.56 143.246 176.868 145.729 177.481C152.328 179.111 159.802 176.345 164.476 171.627C166.342 169.744 167.89 167.563 169.709 165.634C177.931 156.919 190.228 153.726 201.414 158.518C205.146 160.116 208.763 161.806 212.853 162.277C219.038 162.992 226.081 159.77 230.239 155.29C236.567 148.471 240.35 141.674 251.48 141.341L253.8 141.328C258.028 141.54 262.12 142.832 265.907 144.678L263.373 133.53C262.842 131.317 262.559 128.358 261.102 126.571L260.964 126.395C258.854 123.787 254.599 122.119 251.315 121.824L249.389 121.742C236.274 120.93 231.512 134.66 223.181 140.536C218.308 143.972 211.308 145.988 205.49 144.25L202.892 143.364C200.739 142.543 198.667 141.379 196.582 140.395C184.973 134.915 173.776 137.777 165.684 147.958C159.733 155.445 156.288 160.644 144.93 160.319L144.735 160.316C134.727 160.091 123.811 149.529 113.392 153.946ZM130.179 270.447C126.799 273.733 117.698 287.258 113.362 287.263L112.676 287.214C108.498 286.84 98.3222 281.189 92.9939 279.68L79.1149 295.791C79.4806 297.7 81.8111 308.578 82.6343 309.361C86.577 310.23 89.8659 293.138 101.988 295.698L103.024 295.955C108.311 297.278 114.588 304.047 119.947 300.833C124.926 297.847 127.283 287.033 134.519 286.127C141.195 285.29 147.22 291.854 153.509 292.994L153.692 293.03C154.142 293.108 154.494 293.077 154.938 292.986L155.1 292.954C160.979 291.628 164.472 276.825 172.579 277.073L172.825 277.077C176.941 277.176 181.016 279.453 184.584 281.302C191.995 285.142 193.816 285.431 198.718 278.161C201.148 274.557 203.277 271.293 207.024 268.928C215.385 263.646 224.327 277.488 232.046 274.181L232.234 274.105C237.519 271.927 241.199 258.938 249.098 258.732L249.399 258.721C253.935 258.6 258.384 261.943 262.263 263.881C275.018 270.25 276.281 250.076 285.84 249.843L286.567 249.845C288.654 249.826 290.674 250.654 292.528 251.532C296.074 253.198 301.88 257.96 306.038 256.181L306.294 256.074C311.414 253.853 316.682 241.995 321.757 240.745C328.958 238.974 335.926 250.772 342.912 247.785L343.686 247.39C344.11 247.16 344.404 246.918 344.742 246.574L341.647 234.22C341.339 232.937 341.017 232.868 339.732 232.649C337.902 232.334 335.786 231.196 334.034 230.513L319.516 224.92C315.231 228.562 308.809 239.847 303.676 241.736C301.569 242.512 284.948 234.933 281.834 234.02L271.785 245.727C265.933 252.23 265.315 251.549 257.564 248.36L248.097 244.479C246.774 243.977 245.275 243.3 243.861 243.142L237.324 250.838C234.399 254.255 231.663 257.921 227.655 260.117C224.238 260.045 220.875 258.371 217.76 257.076L209.838 253.825C208.611 253.329 207.037 252.473 205.739 252.345C202.466 255.535 199.542 259.246 196.563 262.712C192.352 267.612 191.497 270.163 184.995 268.14C181.308 266.992 177.757 265.335 174.198 263.848L168.057 261.346L162.152 268.116C159.277 271.488 156.348 276.174 152.228 278.135C149.974 277.958 147.949 277.233 145.838 276.466L134.761 272.074C133.284 271.513 131.711 270.827 130.179 270.447ZM79.1798 249.34C65.6631 254.625 73.5291 271.787 75.7915 281.551L80.7162 275.635C82.9019 273.013 87.6686 265.826 91.4018 266.373L91.6544 266.405C95.3632 266.897 107.564 272.454 110.974 274.203L119.696 264.259C125.807 257.254 125.686 255.968 134.32 259.133L144.31 263.229C145.711 263.816 147.399 264.754 148.888 264.999L156.091 256.862C158.265 254.373 160.551 251.309 163.157 249.289C166.113 246.997 168.933 248.914 171.976 250.08L186.764 256.114L195.231 246.078C196.982 244.011 198.612 241.514 200.816 239.916L201.047 239.748C204.066 237.63 209.128 240.606 212.032 241.788L220.462 245.21C225.856 247.44 224.213 247.75 228.051 243.21L234.569 235.487C238.474 230.988 239.38 228.638 245.228 230.621L253.979 234.013C256.915 235.201 259.935 236.232 262.75 237.693L271.59 227.716C273.484 225.594 275.229 223.204 277.552 221.525L277.743 221.417C279.179 220.636 280.168 220.568 281.732 221.055L300.433 228.725C302.016 227.055 303.43 225.201 304.917 223.442L310.928 216.704C316.922 210.215 317.126 211.028 324.972 214.093L332.963 217.202C334.515 217.804 336.335 218.2 337.778 218.948L335.48 208.577C333.781 201.458 331.607 192.144 322.443 191.37L322.208 191.349C320.293 191.24 318.134 192.052 316.278 192.52L98.044 245.049C96.9159 245.31 95.7653 245.406 94.632 245.635L85.1187 247.864C83.1604 248.334 81.0894 248.709 79.1798 249.34ZM154.916 37.4034C156.115 37.0212 157.295 36.8745 158.478 37.3991L158.675 37.4902C161.445 38.7441 163.362 42.4704 165.097 44.8047C168.849 49.8588 173.938 55.1909 173.97 61.8948C173.995 66.7745 170.487 71.2808 166.121 73.1572C166.839 75.0322 167.456 76.8345 167.93 78.7884C167.965 78.935 168.263 80.3149 168.3 80.3406C168.914 80.7751 173.289 79.4027 176.222 82.1133L176.447 82.3313C178.574 84.3451 178.847 86.9395 179.508 89.6646L186.286 117.827L234.278 106.283C238.02 105.384 241.449 104.465 245.318 104.336C256.011 103.981 267.367 111.099 271.615 120.886L272.249 122.249C273.416 125.161 274.045 128.23 274.781 131.276L287.73 185.049L308.346 180.076C311.178 179.391 314.25 178.374 317.16 178.27C329.676 177.815 339.229 184.533 344.17 195.585C345.466 198.482 345.997 201.976 346.741 205.062L363.967 276.908C364.75 280.553 363.9 279.778 360.515 280.599L223.025 313.684L79.4292 348.027L61.2567 272.614C60.4966 269.456 59.4099 266.136 59.1974 262.894C58.5584 253.13 63.8782 243.655 71.9904 238.418C76.8584 235.275 82.6363 234.383 88.1955 233.048L105.01 229.043C105.015 228.121 104.487 226.813 104.256 225.889L91.3395 172.401C90.7021 169.777 89.7576 166.919 89.8026 164.203L89.8041 163.731C89.4748 153.578 95.9857 142.831 104.985 138.22C108.665 136.334 112.674 135.544 116.661 134.584L164.395 123.095C164.397 122.438 164.135 121.713 163.98 121.069L159.075 100.683C158.249 97.2438 156.82 93.1897 156.86 89.6531L156.865 89.4859C156.927 86.2657 159.641 83.1939 162.436 81.9051L163.807 81.1803C163.534 80.1563 162.163 74.5871 161.764 74.1303L161.281 74.1996C156.926 74.7306 151.834 71.2554 150.032 67.3567L149.912 67.0939C146.994 60.9155 149.8 53.3915 150.681 47.0415C151.238 43.0224 150.591 39.3621 154.916 37.4034Z" fill="#FFCEFD"/>
</g>
<defs>
<clipPath id="clip0_3802_21898">
<rect width="318.245" height="315.284" fill="white" transform="translate(0.861816 74.4438) rotate(-13.5285)"/>
</clipPath>
</defs>
</svg>
