<svg width="1525" height="863" viewBox="0 0 1525 863" fill="none" xmlns="http://www.w3.org/2000/svg">
<circle cx="434.572" cy="171.031" r="8.00146" fill="#EA5D40"/>
<circle cx="1256.72" cy="383.07" r="8.00146" fill="#F3BB00"/>
<path d="M1508.84 121.098L1508.71 126.545C1508.52 134.796 1512.87 142.489 1520.04 146.571L1525 149.391L1519.87 150.848C1511.81 153.137 1505.69 159.732 1504.02 167.945L1502.99 173.015L1499.7 168.269C1495.04 161.548 1487.1 157.893 1478.97 158.731L1473.22 159.322L1476.4 155.239C1481.55 148.625 1482.58 139.691 1479.07 132.078L1476.84 127.235L1482.21 129.165C1489.98 131.957 1498.65 130.258 1504.79 124.74L1508.84 121.098Z" fill="#48CE62"/>
<path d="M1157.83 34.6125L1154.48 32.6763L1153.67 34.071L1159.92 37.6756L1160.72 36.2808L1157.83 34.6125ZM1173.78 29.4053L1158.98 33.3709C1163.76 35.8925 1169.92 34.1312 1173.78 29.4053ZM1157.19 32.1566L1175.22 27.3268C1175.89 26.1727 1176.4 24.9584 1176.74 23.7223L1155.01 29.5421C1155.59 30.5431 1156.32 31.4182 1157.19 32.1566ZM1172.01 10.0589C1170.47 9.17276 1168.75 8.72424 1166.96 8.72424C1165.7 8.72424 1164.41 8.9485 1163.12 9.39702C1159.97 10.491 1157.24 12.8101 1155.45 15.917C1153.65 19.0238 1153.01 22.5463 1153.63 25.8281C1153.78 26.6048 1153.99 27.3433 1154.27 28.0379L1177.11 21.9173C1177.33 20.4076 1177.31 18.8925 1177.03 17.4211C1176.41 14.1885 1174.63 11.5685 1172.01 10.0589ZM1163.95 19.3301C1163.02 20.9382 1160.97 21.4852 1159.37 20.5608C1157.76 19.6309 1157.21 17.5798 1158.13 15.9717C1159.06 14.3635 1161.12 13.8166 1162.72 14.741C1164.33 15.6653 1164.88 17.7274 1163.95 19.3301Z" fill="#F6B13D"/>
<path d="M1178.65 17.1148C1177.93 13.4008 1175.87 10.3924 1172.83 8.63665C1169.79 6.88086 1166.15 6.60191 1162.58 7.84354C1159.05 9.07423 1156.02 11.6505 1154.03 15.0964C1152.04 18.5478 1151.32 22.4642 1152.02 26.1344C1152.37 27.9613 1153.05 29.6131 1154 31.0353C1153.65 31.1392 1153.34 31.3689 1153.14 31.7135L1152.17 33.3927C1151.77 34.0983 1152.01 35.0008 1152.71 35.4111L1155.11 36.7949C1154.58 37.6974 1153.66 39.2836 1153.01 40.4432C1152.72 40.9574 1152.43 41.0941 1152.21 41.1543C1151.36 41.384 1149.83 40.848 1147.51 39.5079C1145.23 38.1952 1143.22 38.5343 1141.93 39.0539C1140.56 39.6063 1139.71 40.4706 1139.68 40.5089C1139.36 40.837 1139.37 41.3567 1139.7 41.6684C1140.02 41.9857 1140.54 41.9747 1140.86 41.652C1140.96 41.5481 1143.45 39.0648 1146.69 40.93C1148.96 42.2428 1150.55 42.8499 1151.78 42.8499C1152.09 42.8499 1152.37 42.8116 1152.64 42.7405C1153.39 42.5327 1154 42.0349 1154.44 41.2527C1155.09 40.0986 1156.01 38.5179 1156.53 37.6208L1159.24 39.1906C1159.47 39.3219 1159.73 39.3876 1159.98 39.3876C1160.49 39.3876 1160.99 39.125 1161.26 38.6491L1162.23 36.9699C1162.38 36.7019 1162.45 36.4011 1162.42 36.1112C1162.84 36.1549 1163.27 36.1823 1163.7 36.1823C1165.15 36.1823 1166.62 35.9307 1168.08 35.4165C1171.61 34.1858 1174.65 31.6096 1176.64 28.1636C1178.63 24.7177 1179.34 20.785 1178.65 17.1148ZM1160.72 36.2807L1159.92 37.6755L1153.67 34.071L1154.48 32.6762L1157.83 34.6125L1160.72 36.2807ZM1158.99 33.3708L1173.79 29.4053C1169.92 34.1311 1163.76 35.8924 1158.99 33.3708ZM1175.22 27.3213L1157.19 32.1566C1156.32 31.4236 1155.59 30.543 1155.01 29.542L1176.74 23.7167C1176.4 24.9529 1175.89 26.1672 1175.22 27.3213ZM1177.12 21.9172L1154.27 28.0378C1153.99 27.3377 1153.78 26.5993 1153.63 25.8281C1153.01 22.5462 1153.65 19.0292 1155.45 15.9169C1157.25 12.8046 1159.97 10.4909 1163.12 9.39148C1164.41 8.94296 1165.7 8.7187 1166.96 8.7187C1168.75 8.7187 1170.47 9.16722 1172.01 10.0533C1174.63 11.5684 1176.41 14.183 1177.03 17.4156C1177.31 18.8924 1177.34 20.413 1177.12 21.9172Z" fill="#F6B13D"/>
<path d="M1159.36 20.5595C1159.74 20.78 1160.17 20.9232 1160.6 20.9808C1161.04 21.0384 1161.49 21.0093 1161.91 20.8951C1162.34 20.781 1162.74 20.5841 1163.09 20.3156C1163.44 20.0471 1163.73 19.7123 1163.95 19.3303C1164.17 18.9484 1164.31 18.5267 1164.37 18.0894C1164.43 17.6521 1164.4 17.2078 1164.29 16.7818C1164.17 16.3557 1163.97 15.9564 1163.71 15.6065C1163.44 15.2566 1163.1 14.963 1162.72 14.7425C1162.34 14.5219 1161.92 14.3788 1161.48 14.3212C1161.04 14.2636 1160.6 14.2927 1160.17 14.4068C1159.75 14.5209 1159.35 14.7179 1159 14.9864C1158.65 15.2548 1158.35 15.5896 1158.13 15.9716C1157.91 16.3536 1157.77 16.7752 1157.71 17.2125C1157.65 17.6498 1157.68 18.0942 1157.8 18.5202C1157.91 18.9462 1158.11 19.3456 1158.38 19.6955C1158.65 20.0454 1158.98 20.339 1159.36 20.5595Z" fill="white"/>
<path d="M291.757 56.4056C293.513 55.5271 295.58 55.5271 297.337 56.4056L307.679 61.579L319.166 63.1645C321.171 63.4413 322.917 64.674 323.849 66.4708L328.928 76.2615L337.05 83.7885C338.611 85.2348 339.326 87.3769 338.948 89.4707L337.044 100.018L338.948 110.566C339.326 112.66 338.611 114.802 337.05 116.248L328.928 123.775L323.849 133.566C322.917 135.362 321.171 136.595 319.166 136.872L307.679 138.457L297.337 143.631C295.58 144.509 293.513 144.509 291.757 143.631L281.414 138.457L269.927 136.872C267.922 136.595 266.176 135.362 265.244 133.566L260.166 123.775L252.043 116.248C250.483 114.802 249.767 112.66 250.145 110.566L252.049 100.018L250.145 89.4707C249.767 87.3769 250.483 85.2348 252.043 83.7885L260.166 76.2615L265.244 66.4708C266.176 64.674 267.922 63.4413 269.927 63.1645L281.414 61.579L291.757 56.4056Z" fill="#F286AB"/>
<path d="M157.232 543.494C158.989 542.616 161.056 542.616 162.812 543.494L206.861 565.528L256.038 572.316C258.043 572.592 259.789 573.825 260.721 575.622L282.648 617.895L318.047 650.7C319.607 652.146 320.323 654.289 319.945 656.382L311.596 702.628L319.945 748.873C320.323 750.967 319.607 753.109 318.047 754.555L282.648 787.36L260.721 829.634C259.789 831.43 258.043 832.663 256.038 832.94L206.861 839.728L162.812 861.761C161.056 862.64 158.989 862.64 157.232 861.761L113.183 839.728L64.007 832.94C62.0018 832.663 60.2557 831.43 59.3237 829.634L37.3965 787.36L1.99797 754.555C0.437376 753.109 -0.278201 750.967 0.0998022 748.873L8.44851 702.628L0.0998028 656.382C-0.278201 654.289 0.437378 652.146 1.99798 650.7L37.3965 617.895L59.3237 575.622C60.2557 573.825 62.0018 572.592 64.007 572.316L113.183 565.528L157.232 543.494Z" fill="url(#paint0_linear_1391_45049)"/>
<path d="M1454.25 415.692C1459.32 410.027 1468.19 410.027 1473.27 415.692C1475.85 418.58 1479.61 420.136 1483.48 419.922C1491.07 419.502 1497.34 425.774 1496.92 433.366C1496.71 437.235 1498.26 440.992 1501.15 443.576C1506.81 448.648 1506.81 457.517 1501.15 462.589C1498.26 465.173 1496.71 468.93 1496.92 472.799C1497.34 480.391 1491.07 486.663 1483.48 486.243C1479.61 486.029 1475.85 487.585 1473.27 490.472C1468.19 496.137 1459.32 496.137 1454.25 490.472C1451.67 487.585 1447.91 486.029 1444.04 486.243C1436.45 486.663 1430.18 480.391 1430.6 472.799C1430.81 468.93 1429.26 465.173 1426.37 462.589C1420.7 457.517 1420.7 448.648 1426.37 443.576C1429.26 440.992 1430.81 437.235 1430.6 433.366C1430.18 425.774 1436.45 419.502 1444.04 419.922C1447.91 420.136 1451.67 418.58 1454.25 415.692Z" fill="#88D4FF"/>
<defs>
<linearGradient id="paint0_linear_1391_45049" x1="160.022" y1="542.099" x2="160.022" y2="863.157" gradientUnits="userSpaceOnUse">
<stop stop-color="#7238B0"/>
<stop offset="1" stop-color="#A367E3"/>
</linearGradient>
</defs>
</svg>
