<svg width="1364" height="863" viewBox="0 0 1364 863" fill="none" xmlns="http://www.w3.org/2000/svg">
<circle cx="265" cy="171" r="8" fill="#EA5D40"/>
<circle cx="1087" cy="383" r="8" fill="#F3BB00"/>
<path d="M1339.07 121.076L1338.94 126.522C1338.75 134.772 1343.1 142.463 1350.27 146.544L1355.23 149.364L1350.1 150.82C1342.04 153.109 1335.93 159.703 1334.25 167.915L1333.22 172.983L1329.93 168.239C1325.28 161.519 1317.34 157.865 1309.21 158.702L1303.46 159.293L1306.64 155.211C1311.79 148.598 1312.82 139.666 1309.31 132.054L1307.08 127.212L1312.45 129.142C1320.21 131.933 1328.89 130.234 1335.02 124.717L1339.07 121.076Z" fill="#48CE62"/>
<path d="M988.13 34.6062L984.772 32.6703L983.968 34.0648L990.213 37.6687L991.017 36.2742L988.13 34.6062ZM1004.08 29.4L989.278 33.3648C994.052 35.8859 1000.21 34.125 1004.08 29.4ZM987.485 32.1508L1005.51 27.3219C1006.18 26.168 1006.69 24.9539 1007.03 23.718L985.302 29.5367C985.888 30.5375 986.62 31.4125 987.485 32.1508ZM1002.3 10.057C1000.77 9.17109 999.045 8.72266 997.257 8.72266C995.999 8.72266 994.703 8.94688 993.418 9.39531C990.263 10.4891 987.539 12.8078 985.745 15.9141C983.952 19.0203 983.306 22.5422 983.93 25.8234C984.077 26.6 984.291 27.3383 984.57 28.0328L1007.41 21.9133C1007.63 20.4039 1007.6 18.8891 1007.32 17.418C1006.71 14.1859 1004.92 11.5664 1002.3 10.057ZM994.249 19.3266C993.32 20.9344 991.269 21.4812 989.661 20.557C988.053 19.6273 987.506 17.5766 988.431 15.9688C989.355 14.3609 991.411 13.8141 993.019 14.7383C994.627 15.6625 995.174 17.7242 994.249 19.3266Z" fill="#F6B13D"/>
<path d="M1008.94 17.1118C1008.23 13.3985 1006.17 10.3907 1003.13 8.6352C1000.08 6.87973 996.448 6.60083 992.877 7.84223C989.349 9.0727 986.314 11.6485 984.323 15.0938C982.333 18.5446 981.622 22.4602 982.322 26.1297C982.672 27.9563 983.345 29.6079 984.302 31.0297C983.946 31.1336 983.634 31.3633 983.438 31.7079L982.47 33.3868C982.065 34.0922 982.305 34.9946 983.011 35.4047L985.406 36.7883C984.876 37.6907 983.957 39.2766 983.306 40.436C983.016 40.95 982.727 41.0868 982.502 41.1469C981.66 41.3766 980.123 40.8407 977.805 39.5008C975.53 38.1883 973.517 38.5274 972.232 39.0469C970.859 39.5993 970.012 40.4633 969.979 40.5016C969.662 40.8297 969.673 41.3493 969.995 41.661C970.323 41.9782 970.838 41.9672 971.155 41.6446C971.259 41.5407 973.752 39.0579 976.984 40.9227C979.254 42.2352 980.845 42.8422 982.081 42.8422C982.388 42.8422 982.672 42.804 982.934 42.7329C983.689 42.525 984.296 42.0274 984.734 41.2454C985.384 40.0915 986.303 38.511 986.828 37.6141L989.541 39.1836C989.77 39.3149 990.027 39.3805 990.279 39.3805C990.788 39.3805 991.285 39.118 991.559 38.6422L992.527 36.9633C992.68 36.6954 992.745 36.3946 992.718 36.1047C993.139 36.1485 993.566 36.1758 993.998 36.1758C995.441 36.1758 996.918 35.9243 998.378 35.4102C1001.91 34.1797 1004.94 31.604 1006.93 28.1586C1008.92 24.7133 1009.63 20.7813 1008.94 17.1118ZM991.017 36.2743L990.213 37.6688L983.968 34.0649L984.772 32.6704L988.13 34.6063L991.017 36.2743ZM989.284 33.3649L1004.08 29.4C1000.21 34.125 994.052 35.886 989.284 33.3649ZM1005.51 27.3165L987.484 32.1508C986.62 31.418 985.888 30.5375 985.302 29.5368L1007.03 23.7125C1006.69 24.9485 1006.18 26.1625 1005.51 27.3165ZM1007.41 21.9133L984.57 28.0329C984.291 27.3329 984.077 26.5946 983.93 25.8235C983.306 22.5422 983.946 19.0258 985.745 15.9141C987.545 12.8024 990.263 10.4891 993.418 9.38989C994.703 8.94145 995.999 8.71723 997.257 8.71723C999.045 8.71723 1000.77 9.16567 1002.3 10.0516C1004.92 11.5665 1006.71 14.1805 1007.33 17.4125C1007.6 18.8891 1007.63 20.4094 1007.41 21.9133Z" fill="#F6B13D"/>
<path d="M989.659 20.5556C990.041 20.7761 990.462 20.9193 990.899 20.9768C991.337 21.0344 991.781 21.0053 992.207 20.8912C992.633 20.7771 993.032 20.5802 993.382 20.3118C993.732 20.0433 994.025 19.7086 994.246 19.3267C994.466 18.9448 994.609 18.5232 994.667 18.086C994.724 17.6488 994.695 17.2045 994.581 16.7786C994.467 16.3526 994.27 15.9533 994.002 15.6035C993.733 15.2537 993.398 14.9601 993.016 14.7397C992.635 14.5192 992.213 14.376 991.776 14.3184C991.339 14.2608 990.894 14.2899 990.468 14.404C990.042 14.5182 989.643 14.7151 989.293 14.9835C988.943 15.252 988.65 15.5867 988.429 15.9686C988.209 16.3505 988.066 16.7721 988.008 17.2093C987.951 17.6465 987.98 18.0907 988.094 18.5167C988.208 18.9426 988.405 19.3419 988.674 19.6918C988.942 20.0416 989.277 20.3351 989.659 20.5556Z" fill="white"/>
<path d="M122.211 56.3953C123.966 55.517 126.034 55.517 127.789 56.3953L138.13 61.5678L149.615 63.153C151.62 63.4297 153.366 64.6622 154.297 66.4588L159.375 76.2476L167.496 83.7733C169.056 85.2193 169.771 87.361 169.393 89.4544L167.49 100L169.393 110.546C169.771 112.639 169.056 114.781 167.496 116.227L159.375 123.752L154.297 133.541C153.366 135.338 151.62 136.57 149.615 136.847L138.13 138.432L127.789 143.605C126.034 144.483 123.966 144.483 122.211 143.605L111.87 138.432L100.385 136.847C98.3803 136.57 96.6345 135.338 95.7026 133.541L90.6252 123.752L82.5044 116.227C80.9441 114.781 80.2287 112.639 80.6066 110.546L82.5104 100L80.6066 89.4544C80.2287 87.361 80.9441 85.2193 82.5044 83.7733L90.6252 76.2476L95.7027 66.4588C96.6345 64.6622 98.3803 63.4297 100.385 63.153L111.87 61.5678L122.211 56.3953Z" fill="#F286AB"/>
<path d="M-12.2895 543.395C-10.5335 542.517 -8.46646 542.517 -6.71054 543.395L37.3304 565.425L86.4978 572.212C88.5026 572.488 90.2484 573.721 91.1803 575.517L113.103 617.783L148.496 650.582C150.056 652.028 150.771 654.17 150.393 656.263L142.046 702.5L150.393 748.737C150.771 750.83 150.056 752.972 148.496 754.418L113.103 787.217L91.1803 829.483C90.2484 831.279 88.5026 832.512 86.4978 832.788L37.3304 839.575L-6.71054 861.605C-8.46646 862.483 -10.5335 862.483 -12.2895 861.605L-56.3303 839.575L-105.498 832.788C-107.503 832.512 -109.248 831.279 -110.18 829.483L-132.103 787.217L-167.496 754.418C-169.056 752.972 -169.771 750.83 -169.393 748.737L-161.046 702.5L-169.393 656.263C-169.771 654.17 -169.056 652.028 -167.496 650.582L-132.103 617.783L-110.18 575.517C-109.248 573.721 -107.503 572.488 -105.498 572.212L-56.3303 565.425L-12.2895 543.395Z" fill="url(#paint0_linear_42_7178)"/>
<path d="M1284.5 415.617C1289.57 409.953 1298.43 409.953 1303.5 415.617C1306.09 418.504 1309.84 420.059 1313.71 419.845C1321.3 419.426 1327.57 425.696 1327.15 433.287C1326.94 437.155 1328.5 440.911 1331.38 443.496C1337.05 448.566 1337.05 457.434 1331.38 462.504C1328.5 465.089 1326.94 468.845 1327.15 472.713C1327.57 480.304 1321.3 486.574 1313.71 486.155C1309.84 485.941 1306.09 487.496 1303.5 490.383C1298.43 496.047 1289.57 496.047 1284.5 490.383C1281.91 487.496 1278.16 485.941 1274.29 486.155C1266.7 486.574 1260.43 480.304 1260.85 472.713C1261.06 468.845 1259.5 465.089 1256.62 462.504C1250.95 457.434 1250.95 448.566 1256.62 443.496C1259.5 440.911 1261.06 437.155 1260.85 433.287C1260.43 425.696 1266.7 419.426 1274.29 419.845C1278.16 420.059 1281.91 418.504 1284.5 415.617Z" fill="#88D4FF"/>
<defs>
<linearGradient id="paint0_linear_42_7178" x1="-9.5" y1="542" x2="-9.5" y2="863" gradientUnits="userSpaceOnUse">
<stop stop-color="#7238B0"/>
<stop offset="1" stop-color="#A367E3"/>
</linearGradient>
</defs>
</svg>
