<svg width="42" height="42" viewBox="0 0 42 42" fill="none" xmlns="http://www.w3.org/2000/svg">
<path d="M2.14444 12.6421C0.289419 4.35699 8.64263 -2.51846 16.4165 0.894898L22.4699 3.55283C22.5385 3.58294 22.6148 3.59073 22.6881 3.57509L29.4482 2.13188C37.6592 0.378916 44.4347 8.61078 41.1358 16.3315L38.4197 22.688C38.3903 22.7569 38.3833 22.8333 38.3996 22.9064L39.8441 29.3579C41.6991 37.643 33.3459 44.5184 25.572 41.1051L19.5186 38.4472C19.45 38.417 19.3737 38.4092 19.3005 38.4249L12.5404 39.8681C4.32938 41.6211 -2.44618 33.3892 0.852777 25.6685L3.56881 19.312C3.59824 19.2431 3.60527 19.1667 3.58891 19.0936L2.14444 12.6421Z" fill="#FEFEFE"/>
</svg>
