<svg width="48" height="48" viewBox="0 0 48 48" fill="none" xmlns="http://www.w3.org/2000/svg">
<path d="M1.54233 21.4116C-3.10799 13.3485 3.38472 3.42248 12.6356 4.45226L19.8391 5.25413C19.9207 5.26321 20.0031 5.2464 20.0747 5.20608L26.6766 1.48536C34.6955 -3.03392 44.4774 3.36446 43.5499 12.5223L42.7864 20.062C42.7781 20.1437 42.7957 20.226 42.8368 20.2971L46.4579 26.5757C51.1082 34.6388 44.6155 44.5649 35.3646 43.5351L28.1611 42.7332C28.0795 42.7241 27.9971 42.7409 27.9256 42.7812L21.3236 46.502C13.3047 51.0213 3.52284 44.6229 4.45027 35.465L5.21383 27.9253C5.22211 27.8436 5.20448 27.7614 5.16345 27.6902L1.54233 21.4116Z" fill="#FEFEFE"/>
</svg>
