<svg width="42" height="45" viewBox="0 0 42 45" fill="none" xmlns="http://www.w3.org/2000/svg">
<path d="M16.5828 2.30711C18.4778 -0.768996 22.9497 -0.769002 24.8448 2.30711L26.1179 4.37367C27.8517 7.18815 30.9093 8.91512 34.2148 8.94692L36.6155 8.97002C40.347 9.00592 42.6429 13.0649 40.751 16.2815L39.9617 17.6236C38.1914 20.6336 38.1914 24.3665 39.9617 27.3764L40.751 28.7185C42.6429 31.9351 40.347 35.9941 36.6155 36.03L34.2148 36.0531C30.9093 36.0849 27.8517 37.8119 26.1179 40.6264L24.8448 42.6929C22.9497 45.769 18.4778 45.769 16.5828 42.6929L15.3097 40.6264C13.5758 37.8119 10.5182 36.0849 7.2127 36.0531L4.81205 36.03C1.08055 35.9941 -1.21532 31.9351 0.676503 28.7185L1.46586 27.3764C3.23614 24.3665 3.23614 20.6336 1.46586 17.6236L0.676504 16.2815C-1.21532 13.0649 1.08055 9.00592 4.81205 8.97002L7.21271 8.94692C10.5182 8.91512 13.5758 7.18815 15.3097 4.37368L16.5828 2.30711Z" fill="#FEFEFE"/>
</svg>
