<svg width="44" height="43" viewBox="0 0 44 43" fill="none" xmlns="http://www.w3.org/2000/svg">
<path d="M16.8803 3.42277C18.682 -1.14092 25.1409 -1.14092 26.9426 3.42277C27.9789 6.04776 30.8592 7.43485 33.5576 6.60842C38.249 5.17162 42.276 10.2213 39.8313 14.4754C38.4252 16.9223 39.1365 20.039 41.4651 21.6335C45.5135 24.4055 44.0762 30.7024 39.2261 31.4434C36.4363 31.8696 34.443 34.3691 34.6483 37.1837C35.0051 42.0772 29.1859 44.8796 25.5825 41.5496C23.5099 39.6342 20.313 39.6342 18.2404 41.5496C14.637 44.8796 8.81778 42.0772 9.17463 37.1837C9.37988 34.3691 7.38664 31.8696 4.59686 31.4434C-0.253325 30.7024 -1.69055 24.4055 2.3578 21.6335C4.68638 20.039 5.39776 16.9223 3.99159 14.4754C1.54689 10.2213 5.57391 5.17162 10.2653 6.60842C12.9637 7.43485 15.844 6.04776 16.8803 3.42277Z" fill="#FEFEFE"/>
</svg>
