<svg width="13" height="16" viewBox="0 0 13 16" fill="none" xmlns="http://www.w3.org/2000/svg">
<path d="M12.2359 5.30076C11.201 5.94026 10.5618 7.03654 10.5618 8.25463C10.5618 9.62498 11.3836 10.8735 12.6316 11.3912C12.3881 12.183 12.0228 12.9138 11.5663 13.5838C10.8966 14.5278 10.1966 15.5023 9.1617 15.5023C8.12682 15.5023 7.82245 14.8932 6.60495 14.8932C5.41788 14.8932 4.99176 15.5327 4.01776 15.5327C3.04375 15.5327 2.37413 14.6496 1.61319 13.5533C0.608751 12.0307 0.0304375 10.2645 0 8.40689C0 5.39212 1.948 3.77815 3.89601 3.77815C4.93088 3.77815 5.78313 4.4481 6.42232 4.4481C7.03107 4.4481 8.00507 3.7477 9.1617 3.7477C10.3792 3.71725 11.5358 4.29584 12.2359 5.30076ZM8.61382 2.4687C9.13126 1.85966 9.4052 1.09835 9.43564 0.306597C9.43564 0.215241 9.43564 0.0934318 9.4052 0.0020752C8.52251 0.0934318 7.7007 0.519763 7.12238 1.18971C6.60495 1.7683 6.30057 2.49916 6.27013 3.29091C6.27013 3.38227 6.27013 3.47363 6.30057 3.56498C6.36145 3.56498 6.45276 3.59544 6.51363 3.59544C7.33545 3.53453 8.09639 3.1082 8.61382 2.4687Z" fill="black"/>
</svg>
