<svg width="56" height="56" viewBox="0 0 56 56" fill="none" xmlns="http://www.w3.org/2000/svg">
<path d="M26.1298 34.6062L22.772 32.6703L21.9681 34.0648L28.2134 37.6687L29.0173 36.2742L26.1298 34.6062ZM42.0767 29.4L27.2783 33.3648C32.0525 35.8859 38.2103 34.125 42.0767 29.4ZM25.4845 32.1508L43.515 27.3219C44.1822 26.168 44.6908 24.9539 45.0298 23.718L23.3025 29.5367C23.8876 30.5375 24.6204 31.4125 25.4845 32.1508ZM40.3048 10.057C38.7681 9.17109 37.0454 8.72266 35.2572 8.72266C33.9993 8.72266 32.7033 8.94688 31.4181 9.39531C28.2626 10.4891 25.5392 12.8078 23.7454 15.9141C21.9517 19.0203 21.3064 22.5422 21.9298 25.8234C22.0775 26.6 22.2908 27.3383 22.5697 28.0328L45.4072 21.9133C45.6259 20.4039 45.604 18.8891 45.3197 17.418C44.7072 14.1859 42.9243 11.5664 40.3048 10.057ZM32.2493 19.3266C31.3197 20.9344 29.2689 21.4812 27.6611 20.557C26.0533 19.6273 25.5064 17.5766 26.4306 15.9688C27.3548 14.3609 29.4111 13.8141 31.0189 14.7383C32.6267 15.6625 33.1736 17.7242 32.2493 19.3266Z" fill="#F6B13D"/>
<path d="M46.9383 17.1116C46.2274 13.3984 44.1656 10.3905 41.125 8.63508C38.0844 6.87961 34.4477 6.6007 30.8766 7.84211C27.3492 9.07258 24.3141 11.6484 22.3234 15.0937C20.3328 18.5445 19.6219 22.4601 20.3219 26.1296C20.6719 27.9562 21.3445 29.6077 22.3016 31.0296C21.9461 31.1335 21.6344 31.3632 21.4375 31.7077L20.4695 33.3866C20.0649 34.0921 20.3055 34.9945 21.0109 35.4046L23.4063 36.7882C22.8758 37.6905 21.957 39.2765 21.3063 40.4359C21.0164 40.9499 20.7266 41.0866 20.5024 41.1468C19.6602 41.3765 18.1234 40.8405 15.8047 39.5007C13.5297 38.1882 11.5172 38.5273 10.232 39.0468C8.85939 39.5991 8.01173 40.4632 7.97892 40.5015C7.66173 40.8296 7.67267 41.3491 7.99532 41.6609C8.32345 41.978 8.83751 41.9671 9.1547 41.6445C9.25861 41.5406 11.7524 39.0577 14.9844 40.9226C17.2539 42.2351 18.8453 42.8421 20.0813 42.8421C20.3875 42.8421 20.6719 42.8038 20.9344 42.7327C21.6891 42.5249 22.2961 42.0273 22.7336 41.2452C23.3844 40.0913 24.3031 38.5109 24.8281 37.614L27.5406 39.1835C27.7703 39.3148 28.0274 39.3804 28.2789 39.3804C28.7875 39.3804 29.2852 39.1179 29.5586 38.6421L30.5266 36.9632C30.6797 36.6952 30.7453 36.3945 30.718 36.1046C31.1391 36.1484 31.5656 36.1757 31.9977 36.1757C33.4414 36.1757 34.918 35.9241 36.3781 35.4101C39.9055 34.1796 42.9406 31.6038 44.9313 28.1585C46.9219 24.7132 47.6328 20.7812 46.9383 17.1116ZM29.0172 36.2741L28.2133 37.6687L21.968 34.0648L22.7719 32.6702L26.1297 34.6062L29.0172 36.2741ZM27.2836 33.3648L42.082 29.3999C38.2102 34.1249 32.0524 35.8859 27.2836 33.3648ZM43.5149 27.3163L25.4844 32.1507C24.6203 31.4179 23.8875 30.5374 23.3024 29.5366L45.0297 23.7124C44.6906 24.9484 44.182 26.1624 43.5149 27.3163ZM45.4125 21.9132L22.5695 28.0327C22.2906 27.3327 22.0774 26.5945 21.9297 25.8234C21.3063 22.5421 21.9461 19.0257 23.7453 15.914C25.5445 12.8023 28.2625 10.489 31.418 9.38977C32.7031 8.94133 33.9992 8.71711 35.257 8.71711C37.0453 8.71711 38.768 9.16555 40.3047 10.0515C42.9242 11.5663 44.707 14.1804 45.325 17.4124C45.6039 18.889 45.6313 20.4093 45.4125 21.9132Z" fill="#F6B13D"/>
<path d="M27.6587 20.5557C28.0405 20.7762 28.4621 20.9194 28.8993 20.977C29.3365 21.0346 29.7808 21.0055 30.2068 20.8913C30.6327 20.7772 31.032 20.5803 31.3819 20.3119C31.7317 20.0434 32.0253 19.7087 32.2458 19.3268C32.4663 18.9449 32.6094 18.5233 32.6669 18.0861C32.7245 17.6489 32.6953 17.2046 32.5812 16.7787C32.467 16.3528 32.2701 15.9535 32.0016 15.6036C31.7331 15.2538 31.3984 14.9603 31.0165 14.7398C30.6346 14.5193 30.213 14.3761 29.7758 14.3186C29.3386 14.261 28.8943 14.2901 28.4684 14.4042C28.0424 14.5183 27.6431 14.7152 27.2933 14.9836C26.9434 15.2521 26.6498 15.5868 26.4294 15.9687C26.2089 16.3506 26.0658 16.7722 26.0082 17.2094C25.9507 17.6466 25.9798 18.0909 26.0939 18.5168C26.2081 18.9428 26.405 19.3421 26.6735 19.6919C26.942 20.0417 27.2767 20.3353 27.6587 20.5557Z" fill="white"/>
</svg>
