<svg width="16" height="16" viewBox="0 0 16 16" fill="none" xmlns="http://www.w3.org/2000/svg">
<g clip-path="url(#clip0_0_45)">
<path d="M7.40725 8.15399V4.6049H6.40948C5.30456 4.6049 4.72196 3.88839 4.72196 3.19196C4.72196 2.46873 5.25771 2.04016 5.97422 2.04016C6.79788 2.04016 7.44074 2.67633 7.44074 3.74105V4.6049H8.55905V3.74105C8.55905 2.67633 9.20191 2.04016 10.0255 2.04016C10.7421 2.04016 11.2845 2.46873 11.2845 3.19196C11.2845 3.88839 10.6818 4.6049 9.59028 4.6049H8.59251V8.15399H13.3135C14.0434 8.15399 14.4385 7.87276 14.4385 7.15622V5.60267C14.4385 4.89285 14.0434 4.6049 13.3135 4.6049H11.7532C12.1684 4.2299 12.4162 3.72096 12.4162 3.14508C12.4162 1.85268 11.3916 0.921875 10.0925 0.921875C9.12825 0.921875 8.34476 1.45756 8.00322 2.40847C7.66171 1.45756 6.87154 0.921875 5.90725 0.921875C4.61485 0.921875 3.58359 1.85268 3.58359 3.14508C3.58359 3.72096 3.82465 4.2299 4.24654 4.6049H2.68628C1.99654 4.6049 1.56128 4.89285 1.56128 5.60267V7.15622C1.56128 7.87276 1.96305 8.15399 2.68628 8.15399H7.40725ZM7.40725 15.0781V8.8705H2.51885V13.3772C2.51885 14.4955 3.17511 15.0781 4.29339 15.0781H7.40725ZM8.59251 8.8705V15.0781H11.7064C12.8246 15.0781 13.4809 14.4955 13.4809 13.3772V8.8705H8.59251Z" fill="#E567F8"/>
</g>
<defs>
<clipPath id="clip0_0_45">
<rect width="16" height="16" fill="white"/>
</clipPath>
</defs>
</svg>
