<svg width="105" height="118" viewBox="0 0 105 118" fill="none" xmlns="http://www.w3.org/2000/svg">
<path d="M60.124 117.915L104.617 100.68L44.0324 89.3052L0 103.687L60.124 117.915Z" fill="#FBDEC6"/>
<path d="M13.7366 53.8136L50.4503 47.8186L90.5777 55.3275L84.6137 102.316L56.6727 111.689L17.2784 100.988L13.7366 53.8136Z" fill="#E26D0E"/>
<path d="M50.4492 47.8184L49.7389 95.0279L84.6123 102.317L90.5763 55.3279L50.4492 47.8184Z" fill="#EE7F24"/>
<path d="M41.2967 68.4279L38.0407 75.5785L35.0541 74.0378L36.7493 67.3582L41.2967 68.4279Z" fill="#00D392"/>
<path d="M49.644 68.4795C49.644 68.4795 47.9073 74.5405 51.5361 75.701L53.3985 75.7462C53.3985 75.7462 49.9699 74.2704 51.3531 69.3291L50.396 69.0365L49.644 68.4795Z" fill="#AB2C5B"/>
<path d="M41.5483 63.0598C41.5483 63.0598 39.3487 68.2925 40.3966 71.5429C40.3966 71.5429 40.8513 72.3688 42.3724 72.5252C42.3724 72.5252 40.6609 70.8761 43.1268 64.9754L42.1911 64.1786L41.5483 63.0598Z" fill="#AB2C5B"/>
<path d="M35.5802 65.2875L36.9989 67.1234C36.9989 67.1234 39.9533 64.9295 43.1272 64.975L41.5487 63.0595C41.5487 63.0595 38.6949 62.7724 35.5802 65.2875Z" fill="#FF619A"/>
<path d="M57.3944 70.9335L55.1589 70.311C55.1589 70.311 54.1055 73.8378 51.5352 75.7008L53.9467 76.2908C53.9467 76.2908 56.4047 74.8121 57.3944 70.9335Z" fill="#FF619A"/>
<path d="M40.3965 71.5427C40.3965 71.5427 43.4416 73.4558 49.6438 68.4793C49.6438 68.4793 50.4179 68.6648 51.3529 69.3289C51.3529 69.3289 47.8699 73.6583 43.0418 73.3237C43.0418 73.3237 40.8535 73.0359 40.3965 71.5427Z" fill="#FF619A"/>
<path d="M57.0793 67.0169L59.0443 69.8122C59.0443 69.8122 55.9945 73.9124 52.8822 74.1035L50.0515 71.9502C50.0515 71.9502 56.5531 70.3345 57.0793 67.0169Z" fill="#FFD25E"/>
<path d="M56.2316 62.1045L57.4012 60.6038C63.6247 62.9061 67.0216 60.5829 67.0216 60.5829L65.3283 62.817C63.01 64.3219 56.2316 62.1045 56.2316 62.1045Z" fill="#FFD25E"/>
<path d="M61.9234 69.7283C61.9234 69.7283 58.6049 71.3434 51.9307 71.0011C51.9307 71.0011 52.1438 70.0236 53.0802 69.0409C53.0802 69.0409 61.4243 68.9291 62.7499 67.5242C62.7499 67.5242 63.0037 68.7428 61.9234 69.7283Z" fill="#FFD25E"/>
<path d="M47.857 77.8562C47.857 77.8562 50.3616 76.2078 57.0357 76.5509C57.0357 76.5509 57.8557 77.489 56.9195 78.472C56.9195 78.472 48.3558 78.6555 47.0298 80.0605C47.0298 80.0605 46.7761 78.8422 47.857 77.8562Z" fill="#FFD25E"/>
<path d="M56.2316 62.1045L57.4012 60.6038C63.6247 62.9061 67.0216 60.5829 67.0216 60.5829L65.3283 62.817C63.01 64.3219 56.2316 62.1045 56.2316 62.1045Z" fill="#FFD25E"/>
<path d="M61.9214 69.7283C61.9214 69.7283 58.6033 71.3433 51.9291 71.001C51.9291 71.001 52.1422 70.0235 53.0786 69.0408C53.0786 69.0408 61.4223 68.9291 62.748 67.5242C62.748 67.5242 63.0018 68.7428 61.9214 69.7283Z" fill="#FFD25E"/>
<path d="M47.857 77.8562C47.857 77.8562 50.3616 76.2078 57.0357 76.5509C57.0357 76.5509 57.8557 77.489 56.9195 78.472C56.9195 78.472 48.3558 78.6555 47.0298 80.0605C47.0298 80.0605 46.7761 78.8422 47.857 77.8562Z" fill="#FFD25E"/>
<path d="M56.2316 62.1045L57.4012 60.6038C63.6247 62.9061 67.0216 60.5829 67.0216 60.5829L65.3283 62.817C63.01 64.3219 56.2316 62.1045 56.2316 62.1045Z" fill="#FFD25E"/>
<path d="M61.9214 69.7283C61.9214 69.7283 58.6033 71.3433 51.9291 71.001C51.9291 71.001 52.1422 70.0235 53.0786 69.0408C53.0786 69.0408 61.4223 68.9291 62.748 67.5242C62.748 67.5242 63.0018 68.7428 61.9214 69.7283Z" fill="#FFD25E"/>
<path d="M47.857 77.8562C47.857 77.8562 50.3616 76.2078 57.0357 76.5509C57.0357 76.5509 57.8557 77.489 56.9195 78.472C56.9195 78.472 48.3558 78.6555 47.0298 80.0605C47.0298 80.0605 46.7761 78.8422 47.857 77.8562Z" fill="#FFD25E"/>
<path d="M56.2316 62.1045L57.4012 60.6038C63.6247 62.9061 67.0216 60.5829 67.0216 60.5829L65.3283 62.817C63.01 64.3219 56.2316 62.1045 56.2316 62.1045Z" fill="#FFD25E"/>
<path d="M61.9214 69.7283C61.9214 69.7283 58.6033 71.3433 51.9291 71.001C51.9291 71.001 52.1422 70.0235 53.0786 69.0408C53.0786 69.0408 61.4223 68.9291 62.748 67.5242C62.748 67.5242 63.0018 68.7428 61.9214 69.7283Z" fill="#FFD25E"/>
<path d="M47.857 77.8562C47.857 77.8562 50.3616 76.2078 57.0357 76.5509C57.0357 76.5509 57.8557 77.489 56.9195 78.472C56.9195 78.472 48.3558 78.6555 47.0298 80.0605C47.0298 80.0605 46.7761 78.8422 47.857 77.8562Z" fill="#FFD25E"/>
<path d="M52.633 86.7818L53.6384 85.4115C53.6384 85.4115 48.2975 81.798 47.8475 77.8605C47.8475 77.8605 43.9093 80.4466 52.633 86.7818Z" fill="#FFD25E"/>
<path d="M61.9223 69.7281C61.9223 69.7281 63.6712 67.0416 56.2307 62.1045C56.2307 62.1045 56.5653 60.9004 57.4 60.6042C57.4 60.6042 66.0689 66.0656 61.9223 69.7281Z" fill="#FFD25E"/>
<path d="M53.0797 69.0415C53.0797 69.0415 51.137 71.5925 58.196 77.0631C58.196 77.0631 57.773 78.2384 56.919 78.4735C56.919 78.4735 48.675 72.3893 53.0797 69.0415Z" fill="#FFD25E"/>
<path d="M65.3276 62.8166C65.3276 62.8166 67.1303 59.3963 66.7395 57.0232L68.4559 56.8104C68.4559 56.8104 68.7475 61.0016 65.3276 62.8166Z" fill="#FFD25E"/>
<path d="M34.3409 56.9295C32.7042 58.0489 32.2843 60.2832 33.404 61.9201C34.5236 63.5571 36.758 63.976 38.3947 62.8566C40.0317 61.7369 40.4512 59.5029 39.3316 57.8659C38.212 56.2289 35.9778 55.8098 34.3409 56.9295Z" fill="#FF8148"/>
<path d="M56.7572 62.2372L54.8178 65.6857L56.5582 69.2375L52.679 68.4582L49.8381 71.2111L49.3811 67.2821L45.8851 65.4315L49.4806 63.7819L50.161 59.8843L52.8405 62.7948L56.7572 62.2372Z" fill="#07B7C2"/>
<path d="M42.1648 52.147L44.3569 51.8846C47.5443 58.8937 52.2333 59.7944 52.2333 59.7944L49.0095 60.2246C45.8755 59.544 42.1648 52.147 42.1648 52.147Z" fill="#00D392"/>
<path d="M40.5317 63.0652C40.5317 63.0652 36.369 61.5166 31.1979 55.7376C31.1979 55.7376 32.9378 54.839 33.8897 55.3632C33.8897 55.3632 40.7821 62.0006 43.0227 61.9455C43.0227 61.9455 42.2262 63.1499 40.5317 63.0652Z" fill="#00D392"/>
<path d="M42.1629 52.1465L44.3549 51.8841C47.5423 58.8933 52.2314 59.7939 52.2314 59.7939L49.0075 60.2242C45.8735 59.5435 42.1629 52.1465 42.1629 52.1465Z" fill="#00D392"/>
<path d="M40.5315 63.0654C40.5315 63.0654 36.3688 61.5168 31.1977 55.7378C31.1977 55.7378 32.9377 54.8395 33.8896 55.3637C33.8896 55.3637 40.7821 62.0006 43.0227 61.9455C43.0227 61.9455 42.2259 63.1501 40.5315 63.0654Z" fill="#00D392"/>
<path d="M42.1629 52.1465L44.3549 51.8841C47.5423 58.8933 52.2314 59.7939 52.2314 59.7939L49.0075 60.2242C45.8735 59.5435 42.1629 52.1465 42.1629 52.1465Z" fill="#00D392"/>
<path d="M40.5315 63.0654C40.5315 63.0654 36.3688 61.5168 31.1977 55.7378C31.1977 55.7378 32.9377 54.8395 33.8896 55.3637C33.8896 55.3637 40.7821 62.0006 43.0227 61.9455C43.0227 61.9455 42.2259 63.1501 40.5315 63.0654Z" fill="#00D392"/>
<path d="M42.1629 52.1465L44.3549 51.8841C47.5423 58.8933 52.2314 59.7939 52.2314 59.7939L49.0075 60.2242C45.8735 59.5435 42.1629 52.1465 42.1629 52.1465Z" fill="#00D392"/>
<path d="M40.5315 63.0654C40.5315 63.0654 36.3688 61.5168 31.1977 55.7378C31.1977 55.7378 32.9377 54.8395 33.8896 55.3637C33.8896 55.3637 40.7821 62.0006 43.0227 61.9455C43.0227 61.9455 42.2259 63.1501 40.5315 63.0654Z" fill="#00D392"/>
<path d="M24.2015 62.0041L25.9083 62.9909C25.9083 62.9909 29.406 56.3771 33.8911 55.3632C33.8911 55.3632 30.9437 51.9827 24.2015 62.0041Z" fill="#00D392"/>
<path d="M40.5322 63.0647C40.5322 63.0647 44.1747 62.3113 42.1636 52.1466C42.1636 52.1466 43.4287 51.4391 44.3553 51.8836C44.3553 51.8836 46.9372 63.4886 40.5322 63.0647Z" fill="#00D392"/>
<path d="M49.0089 60.2246C49.0089 60.2246 53.2996 58.9158 54.9356 56.6544L56.5135 57.8955C56.5135 57.8955 53.2982 61.5599 49.0089 60.2246Z" fill="#00D392"/>
<path d="M57.7678 70.9175C56.7124 71.6394 56.4413 73.0809 57.1634 74.1367C57.8855 75.1924 59.3272 75.4625 60.3827 74.7406C61.4387 74.0183 61.7092 72.5772 60.9871 71.5214C60.265 70.4657 58.8239 70.1952 57.7678 70.9175Z" fill="#FF619A"/>
<path d="M47.677 57.8861L49.2458 56.1362L49.1387 54.7912C49.1387 54.7912 51.5425 57.9103 51.8297 60.6848L50.1358 63.6578C50.1358 63.6578 48.9922 59.6156 47.677 57.8861Z" fill="#07B7C2"/>
<path d="M47.677 57.8856L49.2458 56.1357L49.1387 54.7907C49.1387 54.7907 51.5425 57.9098 51.8297 60.6843L50.1358 63.6573C50.1358 63.6573 48.9922 59.6151 47.677 57.8856Z" fill="#07B7C2"/>
<path d="M52.8991 56.6076C51.871 52.6674 48.295 49.7353 48.295 49.7353L50.2073 46.897C53.2325 48.8693 54.1902 53.4378 54.1902 53.4378L53.3087 54.5917L52.8991 56.6076Z" fill="#07B7C2"/>
<path d="M52.8989 56.6078C51.8708 52.6676 48.2948 49.7355 48.2948 49.7355L50.2073 46.8975C53.2325 48.8697 54.1902 53.4383 54.1902 53.4383L53.3085 54.5919L52.8989 56.6078Z" fill="#07B7C2"/>
<path d="M59.6324 51.7855L48.2937 49.7362C48.2937 49.7362 48.7767 47.9978 50.2065 46.898L61.5452 48.9473C61.0623 50.6852 59.6324 51.7855 59.6324 51.7855Z" fill="#07B7C2"/>
<path d="M52.8996 56.6081L47.6787 57.8861C47.6787 57.8861 47.8927 56.0947 49.1398 54.7909L54.1904 53.4384C54.0741 55.2388 52.8996 56.6081 52.8996 56.6081Z" fill="#07B7C2"/>
<path d="M43.28 71.9818L40.4199 72.8777C40.4199 72.8777 45.9613 69.1407 41.7018 64.0739L44.861 62.4951C44.861 62.4951 48.284 68.1759 43.28 71.9818Z" fill="#07B7C2"/>
<path d="M43.28 71.9818L40.4199 72.8777C40.4199 72.8777 45.9613 69.1407 41.7018 64.0739L44.861 62.4951C44.861 62.4951 48.284 68.1759 43.28 71.9818Z" fill="#07B7C2"/>
<path d="M37.5106 70.5879L39.6124 69.511C39.6124 69.511 41.0997 72.6627 43.2789 71.9817C43.2789 71.9817 40.0808 74.8129 37.5106 70.5879Z" fill="#07B7C2"/>
<path d="M50.1366 63.6576L41.7008 64.0742C41.7008 64.0742 42.3133 62.3768 43.8217 61.3875L51.8308 60.6844C51.4797 62.4536 50.1366 63.6576 50.1366 63.6576Z" fill="#07B7C2"/>
<path d="M66.7817 49.3988L63.6504 49.8444L61.5082 47.518L60.9652 50.6336L58.0902 51.9518L60.8852 53.4317L61.2507 56.5728L63.5218 54.3717L66.6223 54.9952L65.231 52.1553L66.7817 49.3988Z" fill="#00D392"/>
<path d="M47.7789 60.6771C46.142 61.7968 45.7224 64.0308 46.842 65.6678C47.9617 67.3048 50.1958 67.7238 51.8328 66.6042C53.4692 65.485 53.8887 63.2509 52.7691 61.6139C51.6495 59.9769 49.4153 59.5579 47.7789 60.6771Z" fill="#07B7C2"/>
<path d="M64.309 51.0282L61.1778 51.4738L59.0356 49.1474L58.4925 52.263L55.6175 53.5812L58.4125 55.0611L58.7781 58.2022L61.0492 56.0011L64.1497 56.6246L62.7583 53.7847L64.309 51.0282Z" fill="#FFD25E"/>
<path d="M60.0189 48.5172C58.3819 49.6368 57.9626 51.8707 59.0823 53.5076C60.2019 55.1446 62.4358 55.5639 64.0727 54.4442C65.7097 53.3246 66.129 51.0908 65.0094 49.4538C63.8897 47.8168 61.6559 47.3975 60.0189 48.5172Z" fill="#00D392"/>
<path d="M49.5232 59.8584L47.9276 62.6944L49.3593 65.6158L46.169 64.9754L43.8327 67.2395L43.4568 64.0075L40.5813 62.4856L43.538 61.1287L44.0981 57.9235L46.3016 60.317L49.5232 59.8584Z" fill="#07B7C2"/>
<path d="M56.1777 62.9736C56.1777 62.9736 53.2134 65.7126 55.0743 69.9227L52.5652 71.7277C52.5652 71.7277 51.2547 68.3285 52.4613 65.5374L53.9683 64.5768L56.1777 62.9736Z" fill="#07B7C2"/>
<path d="M56.1777 62.9727C56.1777 62.9727 53.2134 65.7116 55.0743 69.9217L52.5654 71.727C52.5654 71.727 51.2547 68.3275 52.4613 65.5364L53.9685 64.5761L56.1777 62.9727Z" fill="#07B7C2"/>
<path d="M56.1777 62.9727C56.1777 62.9727 53.2134 65.7116 55.0743 69.9217L52.5654 71.727C52.5654 71.727 51.2547 68.3275 52.4613 65.5364L53.9685 64.5761L56.1777 62.9727Z" fill="#07B7C2"/>
<path d="M60.456 65.817C60.456 65.817 59.4128 67.2467 58.3727 67.5007C58.3727 67.5007 55.1146 63.8317 52.4618 65.5362C52.4618 65.5362 53.1112 63.6194 56.1785 62.9727C56.1785 62.9727 59.3044 63.3038 60.456 65.817Z" fill="#07B7C2"/>
<path d="M47.0792 69.6409C47.0792 69.6409 48.1224 68.2117 49.1626 67.9572C49.1626 67.9572 52.4207 71.6261 55.0736 69.922C55.0736 69.922 54.4243 71.8388 51.3567 72.4857C51.3567 72.4857 48.231 72.1544 47.0792 69.6409Z" fill="#07B7C2"/>
<path d="M49.3526 59.5389C47.7159 60.6583 47.296 62.8925 48.4157 64.5295C49.5353 66.1665 51.7697 66.5854 53.4064 65.4659C55.0431 64.3465 55.463 62.1122 54.3433 60.4753C53.2237 58.8383 50.9893 58.4194 49.3526 59.5389Z" fill="#FFD25E"/>
<path d="M53.1641 62.3475L47.62 66.1394L45.8505 63.5522L51.9001 60.4995L53.1641 62.3475Z" fill="#07B7C2"/>
<path d="M51.9405 49.7623L49.6446 50.9058L47.4019 49.6631L47.78 52.1993L45.9047 53.9484L48.4336 54.3728L49.5176 56.6966L50.7026 54.4224L53.2477 54.1096L51.4514 52.2801L51.9405 49.7623Z" fill="#FF8148"/>
<path d="M39.3882 68.4363L36.9089 69.0674C36.9089 69.0674 34.8511 65.8415 35.5461 63.613L37.8066 62.2057C37.8066 62.2057 37.2066 67.185 39.3882 68.4363Z" fill="#00D392"/>
<path d="M56.7841 111.691L17.3898 100.99L13.8477 53.8149L58.6174 62.0717L56.7841 111.691Z" fill="#EE7F24"/>
<path d="M58.6177 62.0711L90.689 55.3289L84.725 102.317L56.7844 111.69L58.6177 62.0711Z" fill="#E67010"/>
<path d="M68.0002 107.928L74.8635 105.625L82.0337 57.1053L74.9892 58.6296L68.0002 107.928Z" fill="#EBAF2A"/>
<path d="M29.7472 104.346L26.4102 56.1235L34.999 57.7155L36.766 106.252L29.7472 104.346Z" fill="#EBAF2A"/>
<path d="M95.1021 32.9L63.4881 45.4482L64.2578 56.8753L94.7376 43.6395L95.1021 32.9Z" fill="#F17510"/>
<path d="M95.1014 32.9003L61.7786 31.1217L50.6295 30.527L8.69843 44.3063L63.4877 45.4485L95.1014 32.9003Z" fill="#FC9039"/>
<path d="M11.2776 54.4211L64.2582 56.8763L63.4885 45.4492L8.69922 44.3066L11.2776 54.4211Z" fill="#EE7F24"/>
<path d="M21.8691 44.5605L32.9313 44.915L35.4356 55.5401L25.6387 55.0861L21.8691 44.5605Z" fill="#EBAF2A"/>
<path d="M21.8707 44.5605L61.78 31.1223L71.0694 31.618L32.9329 44.9149L21.8707 44.5605Z" fill="#F1BA4E"/>
<path d="M79.0259 39.4159L78.53 50.6782L85.3483 47.7175L85.9385 36.5379L79.0259 39.4159Z" fill="#EBAF2A"/>
<path d="M85.9381 36.5375L37.0224 34.9988L29.1538 37.5848L79.0253 39.4159L85.9381 36.5375Z" fill="#F1BA4E"/>
<path d="M20.5806 22.4158C20.5806 22.4158 33.1785 36.6503 48.1799 36.9675C51.6562 36.5526 53.2228 35.5079 53.2228 35.5079L31.4049 21.752C32.4038 17.081 34.7096 12.79 38.0534 9.37915C39.4514 7.95288 37.89 5.6348 36.0428 6.39461L29.8751 8.92944L23.5954 15.2119L20.5806 22.4158Z" fill="#E89A23"/>
<path d="M51.6564 36.5529L39.1906 14.8146C38.9338 14.3664 38.4836 14.0662 37.9714 13.9979C36.424 13.7925 32.8845 13.6185 28.6732 15.3542C22.9958 17.6943 20.5812 22.4162 20.5812 22.4162L23.5957 15.2119C24.4519 13.1654 25.7139 11.3137 27.3056 9.76801C30.2589 6.89983 33.9891 4.96039 38.0336 4.19056L41.6729 3.49746C43.1852 3.20959 44.6781 4.08211 45.1696 5.54063L54.8937 34.3944L51.6564 36.5529Z" fill="#F1BA4E"/>
<path d="M81.8312 15.1083C81.8312 15.1083 72.9361 31.907 58.4299 35.745C54.9544 36.1598 53.1857 35.513 53.1857 35.513L71.1547 17.0098C69.0849 12.7051 65.8343 9.07695 61.7821 6.54855C60.0878 5.49111 61.0593 2.87061 63.0333 3.1744L69.6249 4.18757L77.2064 8.81563L81.8312 15.1083Z" fill="#E89A23"/>
<path d="M54.9561 36.1594L61.957 12.0984C62.1017 11.6022 62.4683 11.2052 62.9505 11.0182C64.4053 10.4544 67.8048 9.45263 72.3065 10.1485C78.375 11.0872 81.8325 15.1079 81.8325 15.1079L77.2081 8.81587C75.8946 7.0281 74.232 5.52486 72.3217 4.39698C68.776 2.30407 64.6946 1.29708 60.5823 1.50014L56.8823 1.68305C55.3448 1.7589 54.0988 2.95803 53.9641 4.49165L51.3019 34.823L54.9561 36.1594Z" fill="#F1BA4E"/>
</svg>
