<svg width="12" height="12" viewBox="0 0 12 12" fill="none" xmlns="http://www.w3.org/2000/svg">
<path d="M6 1.125C3.312 1.125 1.125 3.312 1.125 6C1.125 8.688 3.312 10.875 6 10.875C8.688 10.875 10.875 8.688 10.875 6C10.875 3.312 8.688 1.125 6 1.125ZM8.537 4.366L5.387 8.116C5.35253 8.15721 5.30959 8.1905 5.26111 8.21363C5.21262 8.23675 5.15971 8.24916 5.106 8.25H5.0995C5.04698 8.24998 4.99506 8.23894 4.94708 8.21758C4.8991 8.19622 4.85615 8.16502 4.821 8.126L3.471 6.626C3.41127 6.56177 3.37591 6.47865 3.37106 6.39108C3.36621 6.3035 3.39217 6.21699 3.44443 6.14655C3.4967 6.07611 3.57197 6.02619 3.65719 6.00545C3.74242 5.98471 3.83221 5.99446 3.911 6.033C3.956 6.0555 3.996 6.0865 4.028 6.124L5.0895 7.304L7.963 3.884C8.02807 3.81184 8.11861 3.76775 8.21554 3.76103C8.31247 3.75431 8.40823 3.78547 8.48264 3.84795C8.55705 3.91044 8.60431 3.99936 8.61445 4.096C8.62459 4.19263 8.59682 4.28943 8.537 4.366Z" fill="#DE900B"/>
</svg>
