<svg width="14" height="14" viewBox="0 0 14 14" fill="none" xmlns="http://www.w3.org/2000/svg">
<path d="M7.92748 7.00116L10.5257 4.40357C10.6444 4.27965 10.71 4.11416 10.7082 3.94253C10.7065 3.77089 10.6377 3.60675 10.5165 3.48523C10.3953 3.3637 10.2313 3.29446 10.0597 3.29231C9.88802 3.29017 9.72237 3.35529 9.59815 3.47374L6.99998 6.07132L4.4024 3.47374C4.34131 3.41269 4.26879 3.36426 4.18898 3.33124C4.10918 3.29821 4.02365 3.28122 3.93728 3.28125C3.85091 3.28128 3.76539 3.29832 3.6856 3.33139C3.60582 3.36447 3.53333 3.41294 3.47227 3.47403C3.34897 3.59741 3.27973 3.76472 3.27979 3.93915C3.27984 4.11359 3.34919 4.28085 3.47257 4.40416L6.07015 7.00174L3.47257 9.59932C3.41151 9.66038 3.36308 9.73286 3.33004 9.81263C3.297 9.8924 3.27999 9.9779 3.27999 10.0642C3.27999 10.1506 3.297 10.2361 3.33004 10.3159C3.36308 10.3956 3.41151 10.4681 3.47257 10.5292C3.53362 10.5902 3.6061 10.6386 3.68587 10.6717C3.76564 10.7047 3.85114 10.7217 3.93748 10.7217C4.02383 10.7217 4.10932 10.7047 4.18909 10.6717C4.26886 10.6386 4.34135 10.5902 4.4024 10.5292L6.99998 7.93099L9.59757 10.5286C9.65862 10.5896 9.7311 10.6381 9.81087 10.6711C9.89064 10.7041 9.97614 10.7211 10.0625 10.7211C10.1488 10.7211 10.2343 10.7041 10.3141 10.6711C10.3939 10.6381 10.4663 10.5896 10.5274 10.5286C10.5885 10.4675 10.6369 10.395 10.6699 10.3153C10.703 10.2355 10.72 10.15 10.72 10.0637C10.72 9.97731 10.703 9.89182 10.6699 9.81205C10.6369 9.73227 10.5885 9.65979 10.5274 9.59874L7.92748 7.00116Z" fill="#3B3F46"/>
</svg>
