<svg width="16" height="16" viewBox="0 0 16 16" fill="none" xmlns="http://www.w3.org/2000/svg">
<path d="M9.06019 8.00132L12.0295 5.03265C12.1653 4.89103 12.2402 4.7019 12.2382 4.50575C12.2362 4.30959 12.1576 4.122 12.019 3.98312C11.8805 3.84423 11.6931 3.7651 11.497 3.76264C11.3008 3.76019 11.1115 3.83461 10.9695 3.96999L8.00019 6.93865L5.03152 3.96999C4.9617 3.90021 4.87882 3.84487 4.78762 3.80713C4.69641 3.76938 4.59866 3.74997 4.49995 3.75C4.40125 3.75003 4.30351 3.7695 4.21233 3.80731C4.12114 3.84511 4.0383 3.9005 3.96852 3.97032C3.8276 4.11133 3.74847 4.30254 3.74854 4.50189C3.7486 4.70124 3.82785 4.8924 3.96886 5.03332L6.93752 8.00199L3.96886 10.9707C3.89908 11.0404 3.84373 11.1233 3.80597 11.2144C3.76821 11.3056 3.74877 11.4033 3.74877 11.502C3.74877 11.6007 3.76821 11.6984 3.80597 11.7895C3.84373 11.8807 3.89908 11.9635 3.96886 12.0333C4.03863 12.1031 4.12147 12.1584 4.21263 12.1962C4.3038 12.234 4.40151 12.2534 4.50019 12.2534C4.59887 12.2534 4.69658 12.234 4.78775 12.1962C4.87891 12.1584 4.96175 12.1031 5.03152 12.0333L8.00019 9.06399L10.9689 12.0327C11.0386 12.1024 11.1215 12.1578 11.2126 12.1955C11.3038 12.2333 11.4015 12.2527 11.5002 12.2527C11.5989 12.2527 11.6966 12.2333 11.7877 12.1955C11.8789 12.1578 11.9617 12.1024 12.0315 12.0327C12.1013 11.9629 12.1566 11.88 12.1944 11.7889C12.2322 11.6977 12.2516 11.6 12.2516 11.5013C12.2516 11.4026 12.2322 11.3049 12.1944 11.2138C12.1566 11.1226 12.1013 11.0398 12.0315 10.97L9.06019 8.00132Z" fill="#4C515B"/>
</svg>
