<svg width="18" height="18" viewBox="0 0 18 18" fill="none" xmlns="http://www.w3.org/2000/svg">
<path d="M10.1924 9.00149L13.5329 5.66174C13.6856 5.50241 13.7699 5.28964 13.7677 5.06897C13.7655 4.84829 13.677 4.63725 13.5211 4.48101C13.3653 4.32476 13.1544 4.23573 12.9338 4.23297C12.7131 4.23021 12.5001 4.31394 12.3404 4.46624L8.99991 7.80599L5.66016 4.46624C5.58161 4.38774 5.48837 4.32548 5.38576 4.28302C5.28316 4.24055 5.17319 4.21872 5.06214 4.21875C4.9511 4.21878 4.84114 4.24069 4.73856 4.28322C4.63598 4.32575 4.54278 4.38806 4.46428 4.46661C4.30575 4.62524 4.21673 4.84036 4.2168 5.06463C4.21687 5.2889 4.30603 5.50395 4.46466 5.66249L7.80441 9.00224L4.46466 12.342C4.38616 12.4205 4.32389 12.5137 4.28141 12.6162C4.23893 12.7188 4.21706 12.8287 4.21706 12.9397C4.21706 13.0507 4.23893 13.1607 4.28141 13.2632C4.32389 13.3658 4.38616 13.459 4.46466 13.5375C4.54316 13.616 4.63635 13.6783 4.73891 13.7207C4.84147 13.7632 4.9514 13.7851 5.06241 13.7851C5.17342 13.7851 5.28335 13.7632 5.38591 13.7207C5.48847 13.6783 5.58166 13.616 5.66016 13.5375L8.99991 10.197L12.3397 13.5367C12.4182 13.6152 12.5113 13.6775 12.6139 13.72C12.7165 13.7625 12.8264 13.7843 12.9374 13.7843C13.0484 13.7843 13.1583 13.7625 13.2609 13.72C13.3635 13.6775 13.4567 13.6152 13.5352 13.5367C13.6137 13.4582 13.6759 13.365 13.7184 13.2625C13.7609 13.1599 13.7828 13.05 13.7828 12.939C13.7828 12.828 13.7609 12.718 13.7184 12.6155C13.6759 12.5129 13.6137 12.4197 13.5352 12.3412L10.1924 9.00149Z" fill="#3B3F46"/>
</svg>
