<svg width="16" height="16" viewBox="0 0 16 16" fill="none" xmlns="http://www.w3.org/2000/svg">
<path d="M3.33337 9.99967H2.66671C2.31309 9.99967 1.97395 9.8592 1.7239 9.60915C1.47385 9.3591 1.33337 9.01996 1.33337 8.66634V2.66634C1.33337 2.31272 1.47385 1.97358 1.7239 1.72353C1.97395 1.47348 2.31309 1.33301 2.66671 1.33301H8.66671C9.02033 1.33301 9.35947 1.47348 9.60952 1.72353C9.85956 1.97358 10 2.31272 10 2.66634V3.33301M7.33337 5.99967H13.3334C14.0698 5.99967 14.6667 6.59663 14.6667 7.33301V13.333C14.6667 14.0694 14.0698 14.6663 13.3334 14.6663H7.33337C6.59699 14.6663 6.00004 14.0694 6.00004 13.333V7.33301C6.00004 6.59663 6.59699 5.99967 7.33337 5.99967Z" stroke="#3B3F46" stroke-width="1.33333" stroke-linecap="round" stroke-linejoin="round"/>
</svg>
