<svg width="21" height="21" viewBox="0 0 21 21" fill="none" xmlns="http://www.w3.org/2000/svg">
<g clip-path="url(#clip0_1391_45929)">
<path d="M20.988 19.4954L21 19.4994C20.9924 19.5714 20.9585 19.6363 20.9282 19.701C20.6831 20.2243 20.2699 20.6311 19.6886 20.753L19.4634 20.7891C19.0988 20.8189 18.7164 20.7966 18.3502 20.7964L2.3877 20.7969C1.62041 20.7972 1.14424 20.8773 0.507002 20.3366C0.18038 20.0239 0.157681 19.8959 0.00424951 19.5275L0 19.5177C0.233132 19.5348 0.471452 19.5297 0.705177 19.5301L20.7856 19.5147C20.8527 19.5106 20.9255 19.5232 20.988 19.4954Z" fill="#9E096C"/>
<path d="M6.61419 9.62311C6.26302 9.67189 5.94175 9.89901 5.67796 9.91838C5.54954 9.92776 5.17802 9.87164 5.07003 9.78903L5.06963 10.3498C5.06981 10.4738 5.05871 10.6126 5.09307 10.7321C5.57222 10.8577 5.60212 10.7958 5.88067 10.5038C6.21301 10.1555 6.59726 10.0112 7.08446 10.1376C7.54012 10.2559 7.62636 10.7074 7.84637 10.7463C8.4929 10.8608 8.4401 10.3271 9.04281 10.1617L9.05974 10.1568C9.3861 10.0678 9.82404 10.1851 10.0545 10.4232C10.1567 10.5287 10.2553 10.7137 10.4085 10.7417L10.4228 10.7448C10.7165 10.8031 10.8258 10.6113 10.9989 10.4232C11.2289 10.1735 11.542 10.0977 11.8715 10.1307C12.1714 10.1607 12.363 10.3401 12.5569 10.5517C12.7368 10.748 12.7802 10.7427 13.0374 10.7422C13.1291 10.7421 13.211 10.7467 13.2901 10.6921L13.2997 10.6856C13.3606 10.6421 13.5284 10.4039 13.6248 10.309L13.6355 10.2997C14.1164 9.88455 14.8252 10.0986 15.1932 10.5725C15.36 10.7872 15.5398 10.7654 15.7932 10.7235C15.8357 10.7165 15.8789 10.7211 15.9197 10.7057C15.9359 10.587 15.931 10.4662 15.9312 10.3467L15.9149 9.84533C15.8442 9.89013 15.7132 9.89689 15.631 9.91343C15.2263 9.99498 14.9069 9.71226 14.5293 9.62979C13.8952 9.49128 13.3882 10.0249 12.8162 9.94271C12.0214 9.82852 11.9412 9.39536 11.0224 9.79447C10.123 10.1852 10.0948 9.62983 9.40446 9.63164C8.90788 9.63297 8.40733 10.0202 7.95232 9.93205C7.50811 9.84595 7.08092 9.56385 6.61419 9.62311ZM5.99185 6.83753C5.66195 6.87609 5.25444 7.02013 5.11408 7.35162C5.04009 7.52634 5.06928 7.7758 5.06879 7.96454L5.07171 8.59246C5.11138 8.54492 5.15467 8.53223 5.20358 8.49915C5.90712 8.02336 6.59124 8.0127 7.29084 8.54718C7.42431 8.64915 7.5533 8.76895 7.70317 8.84661C8.10135 9.05308 8.62353 8.99099 8.99624 8.76046C9.145 8.66843 9.27798 8.55239 9.42449 8.45674C10.0865 8.02455 10.9247 8.00952 11.5684 8.4896C11.7831 8.64973 11.9891 8.81397 12.2443 8.90737C12.63 9.0487 13.1316 8.95071 13.4675 8.72747C13.9787 8.38762 14.3264 8.00996 15.0456 8.16041L15.1946 8.19543C15.4626 8.27423 15.7052 8.4203 15.9196 8.59719L15.9291 7.84289C15.9292 7.69271 15.9568 7.49848 15.8909 7.36135L15.8847 7.34795C15.7896 7.14806 15.5424 6.97537 15.3363 6.90577L15.214 6.87079C14.3851 6.6162 13.8676 7.42357 13.2425 7.67192C12.8768 7.81715 12.3966 7.83846 12.0502 7.63716L11.8971 7.54018C11.7717 7.4543 11.6567 7.3476 11.5381 7.25234C10.878 6.72154 10.1154 6.73228 9.43908 7.26056C8.94171 7.64906 8.64047 7.92943 7.91681 7.73326L7.90434 7.73003C7.26572 7.56114 6.72846 6.71499 5.99185 6.83753ZM5.27049 14.5709C5.0029 14.7295 4.21023 15.4568 3.93199 15.3902L3.88874 15.3765C3.62644 15.2879 3.06086 14.7683 2.7423 14.5893L1.60319 15.4087C1.59718 15.5368 1.57878 16.2706 1.61952 16.3336C1.85904 16.4502 2.33388 15.4044 3.07209 15.7558L3.13459 15.7882C3.45332 15.9547 3.75158 16.4859 4.14497 16.3624C4.51048 16.2477 4.82866 15.5903 5.30689 15.6439C5.7481 15.6932 6.03333 16.2074 6.41922 16.3776L6.4304 16.3827C6.45804 16.3947 6.48113 16.3981 6.51098 16.3991L6.5219 16.3996C6.91955 16.4053 7.37212 15.5095 7.88842 15.6505L7.90416 15.6546C8.16667 15.7244 8.39296 15.9334 8.59333 16.1072C9.00951 16.4679 9.12188 16.5145 9.54862 16.1238C9.76014 15.9301 9.94711 15.7536 10.224 15.6597C10.8419 15.4499 11.202 16.476 11.7483 16.3829L11.7614 16.381C12.1341 16.3228 12.5707 15.5463 13.0807 15.655L13.1002 15.6589C13.393 15.7212 13.6269 16.0044 13.8458 16.1886C14.5658 16.7941 14.9583 15.5193 15.5751 15.6519L15.6217 15.6632C15.7559 15.6942 15.8728 15.7785 15.9781 15.8635C16.1799 16.0251 16.4789 16.4202 16.7731 16.3703L16.7912 16.3674C17.154 16.3039 17.675 15.6245 18.0198 15.6226C18.5092 15.6201 18.7741 16.4846 19.2684 16.4008L19.3242 16.3874C19.3549 16.3793 19.3775 16.3682 19.4045 16.3514L19.3966 15.511C19.3967 15.424 19.3771 15.4146 19.2981 15.3807C19.1855 15.3322 19.0673 15.2265 18.9654 15.1557L18.1204 14.5728C17.7892 14.7402 17.203 15.3651 16.8445 15.4071C16.6974 15.4243 15.748 14.6815 15.5624 14.5749L14.7369 15.1709C14.2612 15.4977 14.232 15.4445 13.7839 15.1203L13.2365 14.7251C13.1593 14.6725 13.0736 14.6059 12.9853 14.574L12.4471 14.9668C12.2068 15.1409 11.9747 15.3338 11.6836 15.4129C11.4655 15.3555 11.2756 15.1962 11.0957 15.065L10.6376 14.7342C10.5666 14.6834 10.4788 14.6042 10.3975 14.5759C10.1383 14.7301 9.89343 14.923 9.64879 15.0994C9.30301 15.3487 9.20877 15.4992 8.82289 15.269C8.60407 15.1385 8.4018 14.9774 8.19643 14.827L7.84106 14.5717L7.35775 14.9149C7.12125 15.0869 6.861 15.3423 6.56639 15.4045C6.42448 15.3583 6.30579 15.2806 6.18218 15.1988L5.53932 14.746C5.45322 14.6872 5.36292 14.619 5.27049 14.5709ZM2.32438 12.4296C1.37562 12.56 1.61535 13.7825 1.60979 14.4438L2.01705 14.1403C2.19776 14.0057 2.6145 13.6183 2.84557 13.711L2.86129 13.7169C3.09163 13.8058 3.78863 14.3506 3.9804 14.5154L4.69343 14.0121C5.19368 13.657 5.20575 13.5727 5.71082 13.909L6.28849 14.326C6.36933 14.3853 6.46313 14.4715 6.55489 14.5102L7.14256 14.0994C7.32047 13.9732 7.51443 13.8119 7.71281 13.7225C7.93786 13.6211 8.08915 13.7876 8.26639 13.9094L9.12201 14.5248L9.82011 14.0117C9.96436 13.9061 10.1075 13.7711 10.2736 13.7026L10.2909 13.6953C10.5174 13.6061 10.7961 13.8751 10.9642 13.9958L11.4522 14.3454C11.7639 14.5718 11.6537 14.5663 11.97 14.3343L12.5074 13.9395C12.8274 13.7111 12.9217 13.5743 13.2664 13.7917L13.7754 14.1445C13.9454 14.266 14.1233 14.3788 14.2813 14.516L15.0025 14.0123C15.1567 13.9054 15.3056 13.779 15.4805 13.7072L15.4944 13.7032C15.5986 13.6753 15.6631 13.6861 15.7559 13.7416L16.8373 14.5223C16.9647 14.4396 17.084 14.3425 17.2065 14.2525L17.6962 13.9131C18.1809 13.5893 18.1815 13.6446 18.6375 13.9623L19.1022 14.2851C19.1924 14.3478 19.3031 14.4012 19.3842 14.4715L19.3968 13.7707C19.3977 13.2877 19.402 12.6566 18.826 12.4655L18.8113 12.4605C18.6901 12.4239 18.5391 12.4427 18.4128 12.4441L3.60087 12.4454C3.52447 12.4448 3.44917 12.4331 3.37292 12.4304L2.72819 12.4265C2.5953 12.4264 2.45663 12.4185 2.32438 12.4296ZM10.4548 0.00161362C10.5377 -0.00440216 10.6156 0.00440025 10.6834 0.0563183L10.6946 0.0652065C10.853 0.18841 10.9185 0.457064 10.9937 0.633598C11.1564 1.01577 11.4006 1.43641 11.2992 1.86701C11.2255 2.18046 10.9309 2.41541 10.6218 2.46839C10.6389 2.59978 10.6507 2.72493 10.6509 2.85759C10.6509 2.86755 10.6487 2.96068 10.6507 2.96289C10.6834 3.00025 10.9853 2.97974 11.1316 3.1989L11.1427 3.21637C11.248 3.3784 11.2255 3.54906 11.2258 3.73409L11.2259 5.64551L14.4831 5.64573C14.7371 5.64578 14.9712 5.63976 15.2215 5.69124C15.913 5.8335 16.5317 6.46549 16.6531 7.15894L16.6728 7.25614C16.7027 7.46098 16.6956 7.66759 16.6959 7.87437L16.6965 11.5241L18.096 11.5233C18.2882 11.5231 18.501 11.5053 18.6893 11.5435C19.4993 11.7075 20.0085 12.286 20.1549 13.0713C20.1933 13.2772 20.1734 13.5095 20.1735 13.719L20.1697 18.5943C20.1636 18.8402 20.1211 18.7774 19.8912 18.7778L10.5597 18.778L0.817032 18.7647L0.815236 13.6461C0.815236 13.4317 0.796756 13.202 0.833169 12.9907C0.942894 12.3544 1.43045 11.8286 2.03174 11.6179C2.39257 11.4913 2.77702 11.5233 3.15428 11.5235L4.29482 11.5261C4.30942 11.467 4.29574 11.3749 4.29517 11.3121L4.29215 7.68117C4.29177 7.50295 4.27529 7.30501 4.3201 7.13148L4.32747 7.10123C4.46308 6.44475 5.04668 5.85579 5.69525 5.69885C5.96041 5.63463 6.22981 5.64587 6.50045 5.64582L9.7402 5.64556C9.7505 5.60346 9.74484 5.55287 9.74484 5.50918V4.12554C9.74493 3.89218 9.71587 3.61004 9.77301 3.38375L9.77588 3.3731C9.82957 3.16746 10.0511 3.01228 10.2503 2.97275L10.3495 2.94741C10.3478 2.87749 10.3458 2.49904 10.3272 2.46357L10.2952 2.46056C10.0076 2.4274 9.73453 2.12584 9.67912 1.8479L9.6755 1.8292C9.58365 1.38777 9.87981 0.948374 10.0343 0.554573C10.1321 0.305334 10.1471 0.0605164 10.4548 0.00161362Z" fill="#F351BC"/>
</g>
<defs>
<clipPath id="clip0_1391_45929">
<rect width="21" height="20.8046" fill="white"/>
</clipPath>
</defs>
</svg>
