<svg width="16" height="16" viewBox="0 0 16 16" fill="none" xmlns="http://www.w3.org/2000/svg">
<path d="M14.1668 6.10013C12.6268 3.68013 10.3734 2.28679 8.00008 2.28679C6.81342 2.28679 5.66008 2.63346 4.60675 3.28013C3.55342 3.93346 2.60675 4.88679 1.83342 6.10013C1.16675 7.14679 1.16675 8.84679 1.83342 9.89346C3.37342 12.3201 5.62675 13.7068 8.00008 13.7068C9.18675 13.7068 10.3401 13.3601 11.3934 12.7135C12.4468 12.0601 13.3934 11.1068 14.1668 9.89346C14.8334 8.85346 14.8334 7.14679 14.1668 6.10013ZM8.00008 10.6935C6.50675 10.6935 5.30675 9.48679 5.30675 8.00013C5.30675 6.51346 6.50675 5.30679 8.00008 5.30679C9.49342 5.30679 10.6934 6.51346 10.6934 8.00013C10.6934 9.48679 9.49342 10.6935 8.00008 10.6935Z" fill="#6197B5"/>
<path d="M8.00005 6.09325C6.95338 6.09325 6.10005 6.94658 6.10005 7.99991C6.10005 9.04658 6.95338 9.89991 8.00005 9.89991C9.04672 9.89991 9.90672 9.04658 9.90672 7.99991C9.90672 6.95325 9.04672 6.09325 8.00005 6.09325Z" fill="#6197B5"/>
</svg>
