<svg width="7" height="9" viewBox="0 0 7 9" fill="none" xmlns="http://www.w3.org/2000/svg">
<path d="M5.62404 3.03545C5.62404 3.01355 5.62404 2.99157 5.62404 2.9367C5.75144 3.0826 5.86233 3.20432 5.9673 3.33059C6.32034 3.75518 6.56939 4.22835 6.68445 4.76314C6.69468 4.81066 6.7109 4.85697 6.72431 4.90381C6.725 4.92624 6.72287 4.94913 6.72689 4.97096C6.78502 5.2858 6.80708 5.60208 6.77077 5.92094C6.75471 6.06207 6.73962 6.20319 6.72416 6.34432C6.61563 6.65181 6.53983 6.97453 6.39265 7.26383C5.9119 8.20835 5.08637 8.72889 4.03679 8.95104C4.00367 8.95809 3.96744 8.9518 3.93258 8.95165C4.09606 8.8613 4.25947 8.77103 4.42288 8.68069C4.51042 8.65113 4.60501 8.63347 4.68429 8.58989C5.08015 8.37244 5.40098 8.07761 5.62775 7.69615C5.90629 7.2276 6.0562 6.72457 6.06856 6.18167C6.0753 5.8832 6.02483 5.59374 5.96359 5.30513C5.93729 5.18113 5.88234 5.06274 5.8355 4.92746C5.73992 5.00401 5.66769 5.0654 5.59167 5.12217C5.05908 5.51947 4.30328 5.32878 4.0424 4.7329C3.92182 4.45747 3.90249 4.1693 3.9078 3.87508C3.91545 3.45216 3.81715 3.05213 3.58522 2.68908C3.49291 2.54455 3.38505 2.40918 3.28273 2.26753C3.25931 2.28564 3.24752 2.29095 3.24211 2.29974C3.22438 2.32877 3.20772 2.35848 3.19283 2.38894C2.9815 2.82134 2.70019 3.20985 2.385 3.57706C2.05445 3.96209 1.70229 4.32892 1.41739 4.75086C1.09962 5.22145 0.871338 5.71319 0.80937 6.27891C0.75455 6.77944 0.868352 7.24261 1.1072 7.6725C1.33242 8.07791 1.683 8.38252 2.10577 8.60262C2.20277 8.6531 2.31049 8.68463 2.41328 8.72488C2.54806 8.78922 2.68391 8.85175 2.81692 8.91936C2.8504 8.93634 2.87479 8.96984 2.90337 8.99576C2.25021 8.90238 1.64852 8.6838 1.14455 8.26861C0.334486 7.60118 -0.0697973 6.76026 0.00988306 5.72115C0.0797181 4.81028 0.488223 4.04304 1.07401 3.34628C1.41624 2.93927 1.76078 2.53371 2.09072 2.11761C2.42647 1.69416 2.67312 1.2247 2.7667 0.695215C2.80675 0.468596 2.81007 0.235988 2.83057 0.000501344C2.98312 0.169215 3.13929 0.337475 3.29019 0.509978C3.44471 0.68665 3.6088 0.85794 3.74166 1.04894C3.89385 1.26783 4.02361 1.50225 4.15026 1.73637C4.45782 2.30527 4.51179 2.91168 4.44729 3.54121C4.42675 3.74153 4.45926 3.95284 4.50383 4.15157C4.55226 4.36743 4.6833 4.53652 4.94092 4.55895C5.19505 4.58101 5.37362 4.46459 5.50034 4.26245C5.5202 4.23077 5.534 4.19568 5.55059 4.1621C5.56552 4.12421 5.58046 4.08631 5.59546 4.04842L5.59584 4.04667C5.71749 3.7125 5.68793 3.37447 5.62404 3.03545Z" fill="#F14631"/>
<path d="M2.90342 8.99507C2.87485 8.96915 2.85045 8.93565 2.81697 8.91868C2.68396 8.85107 2.54811 8.78854 2.41332 8.72419C2.40884 8.71404 2.40734 8.70039 2.39948 8.6941C2.0916 8.44687 1.91244 8.13172 1.83971 7.75329C1.72915 7.17788 1.85496 6.66272 2.24381 6.19356C2.25104 6.22722 2.25712 6.24791 2.25973 6.26898C2.27606 6.40055 2.27644 6.53615 2.31116 6.66302C2.35734 6.83181 2.52416 6.92814 2.68212 6.90321C2.8482 6.87691 2.97521 6.7354 2.97031 6.55957C2.96605 6.40737 2.94126 6.25579 2.92707 6.10375C2.88584 5.66181 3.0188 5.27041 3.30478 4.92579C3.36571 4.85234 3.43854 4.788 3.51759 4.70743C3.53465 4.76784 3.55155 4.80278 3.55344 4.8384C3.56792 5.10549 3.67926 5.33863 3.83782 5.54963C4.03442 5.81127 4.24164 6.0657 4.44908 6.31968C4.66547 6.5845 4.84108 6.86842 4.90649 7.20334C5.00244 7.69516 4.92377 8.14658 4.55527 8.5263C4.5082 8.57488 4.46689 8.62862 4.42293 8.68001C4.25953 8.77035 4.09612 8.86062 3.93263 8.95096C3.86306 8.96559 3.79355 8.98014 3.72398 8.99477C3.76324 8.96953 3.80712 8.94907 3.84085 8.91822C3.9296 8.83712 4.01388 8.75148 4.09998 8.66765C4.13682 8.61823 4.18692 8.57352 4.20829 8.51857C4.31508 8.2439 4.26673 7.9737 4.16532 7.70805C4.15038 7.66901 4.12158 7.63483 4.09915 7.59845C4.09506 7.57283 4.09922 7.54183 4.08558 7.52243C3.96848 7.35569 3.85154 7.18879 3.72708 7.02713C3.68176 6.96824 3.61658 6.92344 3.54192 6.85538C3.52616 6.91685 3.52282 6.94641 3.51115 6.97248C3.4534 7.10125 3.41474 7.24465 3.32875 7.35326C3.21981 7.49082 3.07623 7.60474 2.93952 7.72002C2.69351 7.92746 2.58217 8.17356 2.66573 8.4884C2.73456 8.74784 2.93419 8.88646 3.16365 9C3.07691 8.99833 2.99016 8.99667 2.90342 8.99507Z" fill="#F8DB44"/>
<path d="M4.10974 7.97696C4.10921 7.98264 4.10875 7.98825 4.10822 7.99386C4.1105 7.99128 4.11428 7.98878 4.11451 7.98598C4.11474 7.98309 4.11156 7.97999 4.10974 7.97696ZM4.09996 8.66773C4.01386 8.75155 3.92958 8.8372 3.84083 8.9183C3.8071 8.94914 3.76321 8.96961 3.72395 8.99485C3.53713 8.99651 3.35039 8.99826 3.16362 9C2.93417 8.88654 2.73454 8.74791 2.6657 8.48848C2.58215 8.17364 2.69349 7.92754 2.9395 7.7201C3.07621 7.60482 3.21979 7.4909 3.32873 7.35334C3.41472 7.24473 3.45338 7.10133 3.51113 6.97256C3.5228 6.94648 3.52614 6.91692 3.5419 6.85546C3.61656 6.92352 3.68174 6.96831 3.72706 7.0272C3.85151 7.18887 3.96846 7.35576 4.08556 7.52251C4.0992 7.54191 4.09503 7.57291 4.09913 7.59853C4.09913 7.69766 4.09913 7.7968 4.09913 7.89593C4.10868 7.89207 4.11823 7.88828 4.12778 7.88449C4.1537 7.92057 4.19902 7.95535 4.20198 7.9931C4.21137 8.11535 4.2188 8.24049 4.20107 8.361C4.18561 8.46574 4.13498 8.56563 4.09996 8.66773Z" fill="#F4F6B8"/>
<path d="M4.42359 8.68003C4.46755 8.62865 4.50885 8.57491 4.55592 8.52633C4.92442 8.14661 5.00309 7.69519 4.90714 7.20337C4.84173 6.86845 4.66612 6.58453 4.44974 6.31971C4.24229 6.06573 4.03508 5.81129 3.83847 5.54966C3.67991 5.33865 3.56857 5.10552 3.5541 4.83843C3.5522 4.8028 3.5353 4.76786 3.51825 4.70746C3.4392 4.78802 3.36637 4.85237 3.30544 4.92581C3.01945 5.27044 2.88649 5.66183 2.92773 6.10378C2.94192 6.25582 2.96671 6.4074 2.97096 6.55959C2.97586 6.73543 2.84886 6.87693 2.68277 6.90323C2.52482 6.92817 2.35799 6.83184 2.31182 6.66305C2.27709 6.53617 2.27671 6.40058 2.26038 6.269C2.25777 6.24793 2.25169 6.22724 2.24446 6.19359C1.85562 6.66275 1.7298 7.17791 1.84037 7.75332C1.9131 8.13175 2.09225 8.4469 2.40014 8.69413C2.40799 8.70042 2.40949 8.71406 2.41397 8.72422C2.3112 8.68397 2.20348 8.65244 2.10648 8.60197C1.6837 8.38187 1.33313 8.07726 1.10791 7.67184C0.869058 7.24195 0.755256 6.77878 0.810076 6.27825C0.872044 5.71254 1.10032 5.2208 1.4181 4.7502C1.70299 4.32827 2.05515 3.96143 2.38571 3.57641C2.7009 3.20919 2.98221 2.82068 3.19354 2.38829C3.20842 2.35782 3.22508 2.32811 3.24282 2.29908C3.24822 2.29029 3.26002 2.28498 3.28344 2.26687C3.38576 2.40853 3.49362 2.54389 3.58593 2.68843C3.81786 3.05147 3.91616 3.4515 3.9085 3.87442C3.9032 4.16865 3.92252 4.45681 4.04311 4.73224C4.30399 5.32812 5.05979 5.51881 5.59238 5.12151C5.6684 5.06474 5.74063 5.00335 5.8362 4.9268C5.88304 5.06209 5.93799 5.18048 5.96429 5.30447C6.02553 5.59309 6.07601 5.88254 6.06926 6.18101C6.05691 6.72391 5.90699 7.22694 5.62846 7.69549C5.40169 8.07695 5.08086 8.37179 4.68499 8.58923C4.60572 8.63281 4.51113 8.65047 4.42359 8.68003Z" fill="#F78F31"/>
<path d="M4.09996 8.668C4.13497 8.56591 4.1856 8.46602 4.20106 8.36127C4.2188 8.24076 4.21137 8.11563 4.20197 7.99338C4.19902 7.95563 4.15369 7.92084 4.12777 7.88477C4.11822 7.88855 4.10867 7.89234 4.09912 7.89621C4.09912 7.79707 4.09912 7.69794 4.09912 7.5988C4.12156 7.63518 4.15036 7.66936 4.16529 7.7084C4.2667 7.97405 4.31506 8.24425 4.20826 8.51892C4.18689 8.57387 4.13679 8.61859 4.09996 8.668Z" fill="#FAF7BE"/>
<path d="M4.1094 7.97756C4.11114 7.98059 4.11433 7.9837 4.1141 7.98658C4.11387 7.98938 4.11008 7.99188 4.10781 7.99446C4.10834 7.98885 4.10879 7.98324 4.1094 7.97756Z" fill="#FAF7BE"/>
</svg>
