<svg width="16" height="16" viewBox="0 0 16 16" fill="none" xmlns="http://www.w3.org/2000/svg">
<path d="M13.3329 2.6665L7.99959 7.99984M13.3329 2.6665V5.6665M13.3329 2.6665H10.3329M12.6663 8.33317V11.1998C12.6663 11.9466 12.6663 12.32 12.5209 12.6052C12.3931 12.856 12.1891 13.06 11.9383 13.1878C11.6531 13.3332 11.2797 13.3332 10.5329 13.3332H4.79959C4.05286 13.3332 3.67949 13.3332 3.39427 13.1878C3.14339 13.06 2.93941 12.856 2.81159 12.6052C2.66626 12.32 2.66626 11.9466 2.66626 11.1998V5.4665C2.66626 4.71977 2.66626 4.3464 2.81159 4.06118C2.93941 3.8103 3.14339 3.60632 3.39427 3.4785C3.67949 3.33317 4.05285 3.33317 4.79959 3.33317H7.66626" stroke="#4C515B" stroke-linecap="round" stroke-linejoin="round"/>
</svg>
