<svg width="16" height="16" viewBox="0 0 16 16" fill="none" xmlns="http://www.w3.org/2000/svg">
<g clip-path="url(#clip0_0_13)">
<path d="M15.04 8.16663C15.04 7.64663 14.9933 7.14663 14.9067 6.66663H8V9.50329H11.9467C11.7767 10.42 11.26 11.1966 10.4833 11.7166V13.5566H12.8533C14.24 12.28 15.04 10.4 15.04 8.16663Z" fill="#4285F4"/>
<path d="M7.99999 15.3333C9.97999 15.3333 11.64 14.6766 12.8533 13.5566L10.4833 11.7166C9.82666 12.1566 8.98665 12.4166 7.99999 12.4166C6.08999 12.4166 4.47332 11.1266 3.89665 9.39331H1.44666V11.2933C2.65332 13.69 5.13332 15.3333 7.99999 15.3333Z" fill="#34A853"/>
<path d="M3.89663 9.39333C3.74996 8.95333 3.66663 8.48333 3.66663 8C3.66663 7.51667 3.74996 7.04666 3.89663 6.60667V4.70667H1.44663C0.933293 5.72857 0.666174 6.85641 0.666627 8C0.666627 9.18333 0.94996 10.3033 1.44663 11.2933L3.89663 9.39333Z" fill="#FBBC05"/>
<path d="M7.99999 3.58329C9.07665 3.58329 10.0433 3.95329 10.8033 4.67996L12.9067 2.57663C11.6367 1.39329 9.97666 0.666626 7.99999 0.666626C5.13332 0.666626 2.65332 2.30996 1.44666 4.70663L3.89665 6.60663C4.47332 4.87329 6.08999 3.58329 7.99999 3.58329Z" fill="#EA4335"/>
</g>
<defs>
<clipPath id="clip0_0_13">
<rect width="16" height="16" fill="white"/>
</clipPath>
</defs>
</svg>
