<svg width="11" height="11" viewBox="0 0 11 11" fill="none" xmlns="http://www.w3.org/2000/svg">
<path d="M5.49929 9.62498C5.36142 9.62475 5.2268 9.58307 5.11292 9.50536C3.42444 8.35954 2.69294 7.57305 2.28961 7.08172C1.43071 6.03444 1.01913 4.95965 1.03104 3.79504C1.04433 2.46039 2.11499 1.37506 3.4171 1.37506C4.36447 1.37506 5.02034 1.90856 5.40213 2.35268C5.41422 2.36665 5.42917 2.37786 5.44598 2.38554C5.46278 2.39322 5.48104 2.3972 5.49952 2.3972C5.518 2.3972 5.53626 2.39322 5.55306 2.38554C5.56987 2.37786 5.58483 2.36665 5.59692 2.35268C5.9787 1.9081 6.63457 1.37506 7.58148 1.37506C8.88405 1.37506 9.95471 2.46039 9.968 3.79504C9.97991 4.95965 9.56788 6.03489 8.70897 7.08217C8.30564 7.5735 7.5746 8.35954 5.88612 9.50536C5.77224 9.58307 5.63762 9.62475 5.49975 9.62498H5.49929Z" fill="#F93232"/>
</svg>
