<svg width="7" height="7" viewBox="0 0 7 7" fill="none" xmlns="http://www.w3.org/2000/svg">
<g clip-path="url(#clip0_1470_54250)">
<path d="M3.50001 6.12503C3.41227 6.12488 3.3266 6.09836 3.25413 6.0489C2.17961 5.31972 1.7141 4.81921 1.45743 4.50654C0.910833 3.84007 0.648911 3.1561 0.656495 2.41496C0.664953 1.56561 1.3463 0.874932 2.17494 0.874932C2.77783 0.874932 3.19521 1.21444 3.43817 1.49707C3.44587 1.50596 3.45538 1.51309 3.46608 1.51798C3.47677 1.52287 3.48839 1.5254 3.50015 1.5254C3.51191 1.5254 3.52353 1.52287 3.53423 1.51798C3.54492 1.51309 3.55444 1.50596 3.56213 1.49707C3.8051 1.21415 4.22248 0.874932 4.82507 0.874932C5.654 0.874932 6.33535 1.56561 6.34381 2.41496C6.35139 3.1561 6.08918 3.84036 5.54259 4.50683C5.28591 4.81951 4.8207 5.31972 3.74618 6.0489C3.67371 6.09836 3.58804 6.12488 3.5003 6.12503H3.50001Z" fill="#F93232"/>
</g>
<defs>
<clipPath id="clip0_1470_54250">
<rect width="6.31701" height="6.31701" fill="white" transform="scale(1.10814)"/>
</clipPath>
</defs>
</svg>
