<svg width="15" height="15" viewBox="0 0 15 15" fill="none" xmlns="http://www.w3.org/2000/svg">
<g clip-path="url(#clip0_1470_53617)">
<path d="M11.25 1.17188C10.2145 1.17188 9.27703 1.59164 8.59852 2.27039L7.66594 3.19875C7.5743 3.29039 7.42617 3.29039 7.33453 3.19875C7.33453 3.19875 6.40383 2.26828 6.40195 2.27039C5.72297 1.59164 4.78547 1.17188 3.75 1.17188C1.67883 1.17188 0 2.8507 0 4.92188C0 5.70422 0.24 6.43031 0.649922 7.03125C0.649922 7.03125 0.821953 7.30406 1.02539 7.50727C1.22883 7.71047 6.83719 13.3191 6.83719 13.3191C7.02023 13.5021 7.26023 13.5938 7.5 13.5938C7.73977 13.5938 7.97977 13.5021 8.16281 13.3191C8.16281 13.3191 13.7714 7.71047 13.9746 7.50727C14.1778 7.30406 14.3501 7.03125 14.3501 7.03125C14.76 6.43031 15 5.70422 15 4.92188C15 2.8507 13.3212 1.17188 11.25 1.17188ZM13.3594 5.15625C13.2298 5.15625 13.125 5.05148 13.125 4.92188C13.125 3.88641 12.2855 3.04688 11.25 3.04688C11.1204 3.04688 11.0156 2.94211 11.0156 2.8125C11.0156 2.68289 11.1204 2.57812 11.25 2.57812C12.5442 2.57812 13.5938 3.62766 13.5938 4.92188C13.5938 5.05148 13.489 5.15625 13.3594 5.15625Z" fill="#E32E2E"/>
</g>
<defs>
<clipPath id="clip0_1470_53617">
<rect width="14.5" height="14.5" fill="white" transform="scale(1.03448)"/>
</clipPath>
</defs>
</svg>
