<svg width="16" height="16" viewBox="0 0 16 16" fill="none" xmlns="http://www.w3.org/2000/svg">
<path d="M4.15835 10.7953L7.94693 15.2158C8.00804 15.2869 8.0838 15.344 8.16901 15.3831C8.25423 15.4222 8.34689 15.4425 8.44066 15.4425C8.53443 15.4425 8.6271 15.4222 8.71231 15.3831C8.79753 15.344 8.87328 15.2869 8.9344 15.2158L12.7224 10.7953C13.0837 10.3732 12.7843 9.72168 12.2287 9.72168H4.65151C4.09591 9.72168 3.79585 10.3732 4.15835 10.7953Z" fill="#6B7280"/>
<path d="M12.7218 5.64842L8.93376 1.22736C8.8727 1.15605 8.79693 1.09881 8.71165 1.05957C8.62637 1.02032 8.53361 1 8.43974 1C8.34586 1 8.2531 1.02032 8.16782 1.05957C8.08255 1.09881 8.00677 1.15605 7.94571 1.22736L4.15771 5.64842C3.79637 6.07047 4.09585 6.72204 4.65145 6.72204H12.2292C12.7842 6.72204 13.0843 6.06989 12.7218 5.64842Z" fill="#6B7280"/>
</svg>
