<svg width="20" height="20" viewBox="0 0 20 20" fill="none" xmlns="http://www.w3.org/2000/svg">
<g clip-path="url(#clip0_664_177792)">
<path d="M14.375 7.5H13.75V4.375C13.75 3.38044 13.3549 2.42661 12.6517 1.72335C11.9484 1.02009 10.9946 0.625 10 0.625C9.00544 0.625 8.05161 1.02009 7.34835 1.72335C6.64509 2.42661 6.25 3.38044 6.25 4.375V7.5H5.625C4.96216 7.50066 4.32666 7.76427 3.85796 8.23296C3.38927 8.70166 3.12566 9.33716 3.125 10V16.875C3.12566 17.5378 3.38927 18.1733 3.85796 18.642C4.32666 19.1107 4.96216 19.3743 5.625 19.375H14.375C15.0378 19.3741 15.6731 19.1104 16.1418 18.6418C16.6104 18.1731 16.8741 17.5378 16.875 16.875V10C16.8741 9.33723 16.6104 8.70186 16.1418 8.23321C15.6731 7.76456 15.0378 7.50088 14.375 7.5ZM12.5 7.5H7.5V4.375C7.5 3.71196 7.76339 3.07607 8.23223 2.60723C8.70107 2.13839 9.33696 1.875 10 1.875C10.663 1.875 11.2989 2.13839 11.7678 2.60723C12.2366 3.07607 12.5 3.71196 12.5 4.375V7.5Z" fill="#4C515B"/>
</g>
<defs>
<clipPath id="clip0_664_177792">
<rect width="20" height="20" fill="white"/>
</clipPath>
</defs>
</svg>
