<svg width="52" height="51" viewBox="0 0 52 51" fill="none" xmlns="http://www.w3.org/2000/svg">
<g clip-path="url(#clip0_3230_29683)">
<path d="M22.5897 46.8784C25.1955 47.2872 27.6863 46.0653 29.0233 43.9733L17.355 42.1426C17.9871 44.5436 19.9841 46.4696 22.5897 46.8784Z" fill="#898E99"/>
<path d="M39.2677 26.518L39.7054 23.7281C40.6355 17.8003 37.4835 12.1578 32.3424 9.66978L32.631 7.83002C32.9615 5.72343 31.5166 3.74068 29.41 3.41016C27.3034 3.07965 25.3206 4.5246 24.9901 6.6312L24.7015 8.47096C19.0453 9.26494 14.3168 13.6709 13.3868 19.5988L12.9491 22.3887C12.1321 27.5958 9.37267 32.2217 5.17914 35.4146C4.76817 35.7275 4.58366 36.2554 4.71022 36.7561C4.83678 37.2568 5.25 37.6337 5.76024 37.7137L41.4178 43.3082C41.928 43.3883 42.4367 43.1561 42.7105 42.7182C42.9844 42.2803 42.9704 41.7212 42.6751 41.2976C39.6609 36.9738 38.4508 31.725 39.2677 26.518ZM29.8745 8.76571C29.4617 8.65953 29.0403 8.5715 28.6108 8.5041C28.1812 8.4367 27.7531 8.39145 27.3276 8.3661L27.5371 7.03081C27.6472 6.32861 28.3082 5.84696 29.0104 5.95713C29.7126 6.0673 30.1942 6.72822 30.084 7.43042L29.8745 8.76571Z" fill="#BBBEC5"/>
<path d="M43.1013 24.2612C42.9909 24.9645 43.4717 25.6242 44.175 25.7345C44.8783 25.8448 45.5379 25.3641 45.6482 24.6608C46.4488 19.5584 45.2145 14.4496 42.1726 10.2756C41.7533 9.70031 40.947 9.57371 40.3716 9.99302C39.7962 10.4123 39.6697 11.2186 40.0891 11.794C42.7254 15.4115 43.7951 19.8391 43.1013 24.2612Z" fill="#4C515B"/>
<path d="M8.5175 20.1398C9.2208 20.2501 9.88044 19.7694 9.99079 19.0661C10.6846 14.644 13.059 10.7568 16.6764 8.12048C17.2517 7.70117 17.3783 6.89489 16.9589 6.31952C16.5397 5.74416 15.7334 5.61765 15.158 6.03696C10.984 9.07883 8.24437 13.564 7.44382 18.6665C7.33347 19.3698 7.8142 20.0294 8.5175 20.1398Z" fill="#4C515B"/>
</g>
<defs>
<clipPath id="clip0_3230_29683">
<rect width="44" height="44" fill="white" transform="translate(7.67578) rotate(8.91677)"/>
</clipPath>
</defs>
</svg>
