<svg width="249" height="100" viewBox="0 0 249 100" fill="none" xmlns="http://www.w3.org/2000/svg">
<g filter="url(#filter0_d_1391_45926)">
<rect x="16" y="13" width="220" height="66" rx="8" fill="white"/>
<g clip-path="url(#clip0_1391_45926)">
<rect x="24" y="21" width="36" height="36" rx="18" fill="#FEF4FF"/>
<g clip-path="url(#clip1_1391_45926)">
<path d="M52.988 46.4954L53 46.4994C52.9924 46.5714 52.9585 46.6363 52.9282 46.701C52.6831 47.2243 52.2699 47.6311 51.6886 47.753L51.4634 47.7891C51.0988 47.8189 50.7164 47.7966 50.3502 47.7964L34.3877 47.7969C33.6204 47.7972 33.1442 47.8773 32.507 47.3366C32.1804 47.0239 32.1577 46.8959 32.0042 46.5275L32 46.5177C32.2331 46.5348 32.4715 46.5297 32.7052 46.5301L52.7856 46.5147C52.8527 46.5106 52.9255 46.5232 52.988 46.4954Z" fill="#9E096C"/>
<path d="M38.6142 36.6231C38.263 36.6719 37.9417 36.899 37.678 36.9184C37.5495 36.9278 37.178 36.8716 37.07 36.789L37.0696 37.3498C37.0698 37.4738 37.0587 37.6126 37.0931 37.7321C37.5722 37.8577 37.6021 37.7958 37.8807 37.5038C38.213 37.1555 38.5973 37.0112 39.0845 37.1376C39.5401 37.2559 39.6264 37.7074 39.8464 37.7463C40.4929 37.8608 40.4401 37.3271 41.0428 37.1617L41.0597 37.1568C41.3861 37.0678 41.824 37.1851 42.0545 37.4232C42.1567 37.5287 42.2553 37.7137 42.4085 37.7417L42.4228 37.7448C42.7165 37.8031 42.8258 37.6113 42.9989 37.4232C43.2289 37.1735 43.542 37.0977 43.8715 37.1307C44.1714 37.1607 44.363 37.3401 44.5569 37.5517C44.7368 37.748 44.7802 37.7427 45.0374 37.7422C45.1291 37.7421 45.211 37.7467 45.2901 37.6921L45.2997 37.6856C45.3606 37.6421 45.5284 37.4039 45.6248 37.309L45.6355 37.2997C46.1164 36.8846 46.8252 37.0986 47.1932 37.5725C47.36 37.7872 47.5398 37.7654 47.7932 37.7235C47.8357 37.7165 47.8789 37.7211 47.9197 37.7057C47.9359 37.587 47.931 37.4662 47.9312 37.3467L47.9149 36.8453C47.8442 36.8901 47.7132 36.8969 47.631 36.9134C47.2263 36.995 46.9069 36.7123 46.5293 36.6298C45.8952 36.4913 45.3882 37.0249 44.8162 36.9427C44.0214 36.8285 43.9412 36.3954 43.0224 36.7945C42.123 37.1852 42.0948 36.6298 41.4045 36.6316C40.9079 36.633 40.4073 37.0202 39.9523 36.932C39.5081 36.8459 39.0809 36.5639 38.6142 36.6231ZM37.9918 33.8375C37.6619 33.8761 37.2544 34.0201 37.1141 34.3516C37.0401 34.5263 37.0693 34.7758 37.0688 34.9645L37.0717 35.5925C37.1114 35.5449 37.1547 35.5322 37.2036 35.4991C37.9071 35.0234 38.5912 35.0127 39.2908 35.5472C39.4243 35.6492 39.5533 35.769 39.7032 35.8466C40.1014 36.0531 40.6235 35.991 40.9962 35.7605C41.145 35.6684 41.278 35.5524 41.4245 35.4567C42.0865 35.0246 42.9247 35.0095 43.5684 35.4896C43.7831 35.6497 43.9891 35.814 44.2443 35.9074C44.63 36.0487 45.1316 35.9507 45.4675 35.7275C45.9787 35.3876 46.3264 35.01 47.0456 35.1604L47.1946 35.1954C47.4626 35.2742 47.7052 35.4203 47.9196 35.5972L47.9291 34.8429C47.9292 34.6927 47.9568 34.4985 47.8909 34.3613L47.8847 34.3479C47.7896 34.1481 47.5424 33.9754 47.3363 33.9058L47.214 33.8708C46.3851 33.6162 45.8676 34.4236 45.2425 34.6719C44.8768 34.8172 44.3966 34.8385 44.0502 34.6372L43.8971 34.5402C43.7717 34.4543 43.6567 34.3476 43.5381 34.2523C42.878 33.7215 42.1154 33.7323 41.4391 34.2606C40.9417 34.6491 40.6405 34.9294 39.9168 34.7333L39.9043 34.73C39.2657 34.5611 38.7285 33.715 37.9918 33.8375ZM37.2705 41.5709C37.0029 41.7295 36.2102 42.4568 35.932 42.3902L35.8887 42.3765C35.6264 42.2879 35.0609 41.7683 34.7423 41.5893L33.6032 42.4087C33.5972 42.5368 33.5788 43.2706 33.6195 43.3336C33.859 43.4502 34.3339 42.4044 35.0721 42.7558L35.1346 42.7882C35.4533 42.9547 35.7516 43.4859 36.145 43.3624C36.5105 43.2477 36.8287 42.5903 37.3069 42.6439C37.7481 42.6932 38.0333 43.2074 38.4192 43.3776L38.4304 43.3827C38.458 43.3947 38.4811 43.3981 38.511 43.3991L38.5219 43.3996C38.9195 43.4053 39.3721 42.5095 39.8884 42.6505L39.9042 42.6546C40.1667 42.7244 40.393 42.9334 40.5933 43.1072C41.0095 43.4679 41.1219 43.5145 41.5486 43.1238C41.7601 42.9301 41.9471 42.7536 42.224 42.6597C42.8419 42.4499 43.202 43.476 43.7483 43.3829L43.7614 43.381C44.1341 43.3228 44.5707 42.5463 45.0807 42.655L45.1002 42.6589C45.393 42.7212 45.6269 43.0044 45.8458 43.1886C46.5658 43.7941 46.9583 42.5193 47.5751 42.6519L47.6217 42.6632C47.7559 42.6942 47.8728 42.7785 47.9781 42.8635C48.1799 43.0251 48.4789 43.4202 48.7731 43.3703L48.7912 43.3674C49.154 43.3039 49.675 42.6245 50.0198 42.6226C50.5092 42.6201 50.7741 43.4846 51.2684 43.4008L51.3242 43.3874C51.3549 43.3793 51.3775 43.3682 51.4045 43.3514L51.3966 42.511C51.3967 42.424 51.3771 42.4146 51.2981 42.3807C51.1855 42.3322 51.0673 42.2265 50.9654 42.1557L50.1204 41.5728C49.7892 41.7402 49.203 42.3651 48.8445 42.4071C48.6974 42.4243 47.748 41.6815 47.5624 41.5749L46.7369 42.1709C46.2612 42.4977 46.232 42.4445 45.7839 42.1203L45.2365 41.7251C45.1593 41.6725 45.0736 41.6059 44.9853 41.574L44.4471 41.9668C44.2068 42.1409 43.9747 42.3338 43.6836 42.4129C43.4655 42.3555 43.2756 42.1962 43.0957 42.065L42.6376 41.7342C42.5666 41.6834 42.4788 41.6042 42.3975 41.5759C42.1383 41.7301 41.8934 41.923 41.6488 42.0994C41.303 42.3487 41.2088 42.4992 40.8229 42.269C40.6041 42.1385 40.4018 41.9774 40.1964 41.827L39.8411 41.5717L39.3578 41.9149C39.1212 42.0869 38.861 42.3423 38.5664 42.4045C38.4245 42.3583 38.3058 42.2806 38.1822 42.1988L37.5393 41.746C37.4532 41.6872 37.3629 41.619 37.2705 41.5709ZM34.3244 39.4296C33.3756 39.56 33.6154 40.7825 33.6098 41.4438L34.0171 41.1403C34.1978 41.0057 34.6145 40.6183 34.8456 40.711L34.8613 40.7169C35.0916 40.8058 35.7886 41.3506 35.9804 41.5154L36.6934 41.0121C37.1937 40.657 37.2057 40.5727 37.7108 40.909L38.2885 41.326C38.3693 41.3853 38.4631 41.4715 38.5549 41.5102L39.1426 41.0994C39.3205 40.9732 39.5144 40.8119 39.7128 40.7225C39.9379 40.6211 40.0891 40.7876 40.2664 40.9094L41.122 41.5248L41.8201 41.0117C41.9644 40.9061 42.1075 40.7711 42.2736 40.7026L42.2909 40.6953C42.5174 40.6061 42.7961 40.8751 42.9642 40.9958L43.4522 41.3454C43.7639 41.5718 43.6537 41.5663 43.97 41.3343L44.5074 40.9395C44.8274 40.7111 44.9217 40.5743 45.2664 40.7917L45.7754 41.1445C45.9454 41.266 46.1233 41.3788 46.2813 41.516L47.0025 41.0123C47.1567 40.9054 47.3056 40.779 47.4805 40.7072L47.4944 40.7032C47.5986 40.6753 47.6631 40.6861 47.7559 40.7416L48.8373 41.5223C48.9647 41.4396 49.084 41.3425 49.2065 41.2525L49.6962 40.9131C50.1809 40.5893 50.1815 40.6446 50.6375 40.9623L51.1022 41.2851C51.1924 41.3478 51.3031 41.4012 51.3842 41.4715L51.3968 40.7707C51.3977 40.2877 51.402 39.6566 50.826 39.4655L50.8113 39.4605C50.6901 39.4239 50.5391 39.4427 50.4128 39.4441L35.6009 39.4454C35.5245 39.4448 35.4492 39.4331 35.3729 39.4304L34.7282 39.4265C34.5953 39.4264 34.4566 39.4185 34.3244 39.4296ZM42.4548 27.0016C42.5377 26.9956 42.6156 27.0044 42.6834 27.0563L42.6946 27.0652C42.853 27.1884 42.9185 27.4571 42.9937 27.6336C43.1564 28.0158 43.4006 28.4364 43.2992 28.867C43.2255 29.1805 42.9309 29.4154 42.6218 29.4684C42.6389 29.5998 42.6507 29.7249 42.6509 29.8576C42.6509 29.8675 42.6487 29.9607 42.6507 29.9629C42.6834 30.0003 42.9853 29.9797 43.1316 30.1989L43.1427 30.2164C43.248 30.3784 43.2255 30.5491 43.2258 30.7341L43.2259 32.6455L46.4831 32.6457C46.7371 32.6458 46.9712 32.6398 47.2215 32.6912C47.913 32.8335 48.5317 33.4655 48.6531 34.1589L48.6728 34.2561C48.7027 34.461 48.6956 34.6676 48.6959 34.8744L48.6965 38.5241L50.096 38.5233C50.2882 38.5231 50.501 38.5053 50.6893 38.5435C51.4993 38.7075 52.0085 39.286 52.1549 40.0713C52.1933 40.2772 52.1734 40.5095 52.1735 40.719L52.1697 45.5943C52.1636 45.8402 52.1211 45.7774 51.8912 45.7778L42.5597 45.778L32.817 45.7647L32.8152 40.6461C32.8152 40.4317 32.7968 40.202 32.8332 39.9907C32.9429 39.3544 33.4304 38.8286 34.0317 38.6179C34.3926 38.4913 34.777 38.5233 35.1543 38.5235L36.2948 38.5261C36.3094 38.467 36.2957 38.3749 36.2952 38.3121L36.2921 34.6812C36.2918 34.5029 36.2753 34.305 36.3201 34.1315L36.3275 34.1012C36.4631 33.4447 37.0467 32.8558 37.6952 32.6988C37.9604 32.6346 38.2298 32.6459 38.5005 32.6458L41.7402 32.6456C41.7505 32.6035 41.7448 32.5529 41.7448 32.5092V31.1255C41.7449 30.8922 41.7159 30.61 41.773 30.3838L41.7759 30.3731C41.8296 30.1675 42.0511 30.0123 42.2503 29.9727L42.3495 29.9474C42.3478 29.8775 42.3458 29.499 42.3272 29.4636L42.2952 29.4606C42.0076 29.4274 41.7345 29.1258 41.6791 28.8479L41.6755 28.8292C41.5836 28.3878 41.8798 27.9484 42.0343 27.5546C42.1321 27.3053 42.1471 27.0605 42.4548 27.0016Z" fill="#F351BC"/>
</g>
</g>
<path d="M71.432 26.44C72.208 26.44 72.82 26.612 73.268 26.956C73.724 27.292 73.952 27.772 73.952 28.396C73.952 28.628 73.912 28.836 73.832 29.02C73.76 29.196 73.66 29.352 73.532 29.488C73.404 29.616 73.256 29.724 73.088 29.812C72.92 29.9 72.748 29.968 72.572 30.016C72.788 30.056 72.992 30.124 73.184 30.22C73.384 30.316 73.556 30.444 73.7 30.604C73.852 30.756 73.968 30.94 74.048 31.156C74.136 31.364 74.18 31.604 74.18 31.876C74.18 32.188 74.112 32.476 73.976 32.74C73.84 32.996 73.648 33.22 73.4 33.412C73.152 33.596 72.852 33.74 72.5 33.844C72.156 33.948 71.776 34 71.36 34H68.876V26.44H71.432ZM70.34 29.512H71.156C71.524 29.512 71.832 29.436 72.08 29.284C72.328 29.124 72.452 28.864 72.452 28.504C72.452 28.192 72.34 27.96 72.116 27.808C71.9 27.648 71.596 27.568 71.204 27.568H70.34V29.512ZM70.34 32.872H71.168C71.376 32.872 71.572 32.852 71.756 32.812C71.94 32.772 72.1 32.708 72.236 32.62C72.372 32.532 72.476 32.416 72.548 32.272C72.628 32.12 72.668 31.94 72.668 31.732C72.668 31.532 72.624 31.364 72.536 31.228C72.448 31.084 72.332 30.968 72.188 30.88C72.044 30.792 71.876 30.728 71.684 30.688C71.492 30.648 71.292 30.628 71.084 30.628H70.34V32.872ZM75.5911 34V28.3H77.0071V34H75.5911ZM76.2991 26.992C76.0511 26.992 75.8551 26.92 75.7111 26.776C75.5751 26.632 75.5071 26.452 75.5071 26.236C75.5071 26.028 75.5791 25.852 75.7231 25.708C75.8671 25.556 76.0591 25.48 76.2991 25.48C76.5311 25.48 76.7191 25.552 76.8631 25.696C77.0071 25.84 77.0791 26.02 77.0791 26.236C77.0791 26.452 77.0071 26.632 76.8631 26.776C76.7191 26.92 76.5311 26.992 76.2991 26.992ZM78.6346 34V28.3H79.7266L79.9066 29.368C80.0426 29.04 80.2586 28.764 80.5546 28.54C80.8506 28.308 81.2186 28.192 81.6586 28.192C81.8506 28.192 82.0186 28.212 82.1626 28.252C82.3066 28.292 82.4266 28.336 82.5226 28.384L82.2826 29.536C82.1946 29.488 82.0866 29.448 81.9586 29.416C81.8306 29.376 81.6746 29.356 81.4906 29.356C81.0826 29.356 80.7386 29.496 80.4586 29.776C80.1786 30.056 80.0386 30.5 80.0386 31.108V34H78.6346ZM86.8794 29.332H85.3074V32.188C85.3074 32.46 85.3714 32.648 85.4994 32.752C85.6354 32.848 85.8074 32.896 86.0154 32.896C86.1754 32.896 86.3434 32.88 86.5194 32.848C86.6954 32.816 86.8434 32.772 86.9634 32.716L87.1794 33.724C87.0274 33.788 86.8194 33.852 86.5554 33.916C86.2994 33.972 86.0234 34 85.7274 34C85.0794 34 84.6114 33.868 84.3234 33.604C84.0434 33.34 83.9034 32.944 83.9034 32.416V29.332H83.0394V28.3H83.9034V26.524H85.3074V28.3H86.8794V29.332ZM89.5551 34H88.1391V25.456H89.5551V28.888C89.7951 28.688 90.0671 28.524 90.3711 28.396C90.6831 28.26 91.0191 28.192 91.3791 28.192C91.7151 28.192 92.0031 28.244 92.2431 28.348C92.4911 28.444 92.6951 28.58 92.8551 28.756C93.0151 28.932 93.1311 29.14 93.2031 29.38C93.2831 29.62 93.3231 29.884 93.3231 30.172V34H91.9071V30.448C91.9071 30.04 91.8231 29.748 91.6551 29.572C91.4951 29.388 91.2551 29.296 90.9351 29.296C90.7031 29.296 90.4671 29.352 90.2271 29.464C89.9871 29.576 89.7631 29.732 89.5551 29.932V34ZM98.5499 25.456H99.9659V34H98.9099L98.7539 33.376H98.7059C98.5219 33.592 98.2979 33.772 98.0339 33.916C97.7699 34.052 97.4299 34.12 97.0139 34.12C96.6779 34.12 96.3579 34.056 96.0539 33.928C95.7499 33.8 95.4819 33.612 95.2499 33.364C95.0259 33.108 94.8459 32.796 94.7099 32.428C94.5819 32.06 94.5179 31.636 94.5179 31.156C94.5179 30.708 94.5739 30.304 94.6859 29.944C94.8059 29.576 94.9779 29.264 95.2019 29.008C95.4259 28.744 95.6979 28.544 96.0179 28.408C96.3459 28.264 96.7139 28.192 97.1219 28.192C97.4019 28.192 97.6659 28.236 97.9139 28.324C98.1699 28.404 98.3819 28.52 98.5499 28.672V25.456ZM98.5499 29.764C98.4139 29.604 98.2539 29.476 98.0699 29.38C97.8859 29.284 97.6819 29.236 97.4579 29.236C97.2579 29.236 97.0659 29.272 96.8819 29.344C96.7059 29.408 96.5459 29.516 96.4019 29.668C96.2659 29.82 96.1539 30.016 96.0659 30.256C95.9859 30.496 95.9459 30.784 95.9459 31.12C95.9459 31.456 95.9819 31.748 96.0539 31.996C96.1339 32.244 96.2379 32.448 96.3659 32.608C96.4939 32.76 96.6419 32.876 96.8099 32.956C96.9859 33.028 97.1699 33.064 97.3619 33.064C97.6259 33.064 97.8579 33.004 98.0579 32.884C98.2579 32.756 98.4219 32.592 98.5499 32.392V29.764ZM101.57 28.804C101.922 28.612 102.278 28.464 102.638 28.36C102.998 28.248 103.394 28.192 103.826 28.192C104.162 28.192 104.466 28.232 104.738 28.312C105.01 28.384 105.246 28.504 105.446 28.672C105.646 28.84 105.798 29.06 105.902 29.332C106.014 29.596 106.07 29.92 106.07 30.304V34H104.954L104.81 33.4H104.774C104.366 33.88 103.786 34.12 103.034 34.12C102.434 34.12 101.966 33.964 101.63 33.652C101.294 33.332 101.126 32.92 101.126 32.416C101.126 32.096 101.194 31.82 101.33 31.588C101.466 31.356 101.65 31.164 101.882 31.012C102.122 30.86 102.406 30.748 102.734 30.676C103.062 30.596 103.418 30.556 103.802 30.556H104.642V30.16C104.642 29.848 104.55 29.628 104.366 29.5C104.182 29.364 103.934 29.296 103.622 29.296C103.398 29.296 103.158 29.332 102.902 29.404C102.654 29.476 102.378 29.6 102.074 29.776L101.57 28.804ZM104.654 31.456L104.006 31.48C103.478 31.496 103.11 31.588 102.902 31.756C102.694 31.916 102.59 32.112 102.59 32.344C102.59 32.64 102.678 32.84 102.854 32.944C103.03 33.048 103.234 33.1 103.466 33.1C103.698 33.1 103.918 33.044 104.126 32.932C104.342 32.812 104.518 32.648 104.654 32.44V31.456ZM106.698 28.3H108.234L109.302 31.204L109.698 32.572H109.734L110.118 31.192L111.078 28.3H112.53L110.406 34.3C110.174 34.964 109.862 35.536 109.47 36.016C109.078 36.496 108.542 36.852 107.862 37.084L107.262 35.968C107.686 35.808 108.046 35.584 108.342 35.296C108.646 35.008 108.866 34.64 109.002 34.192L109.062 33.988L106.698 28.3ZM116.208 26.44H118.932C119.348 26.44 119.712 26.5 120.024 26.62C120.336 26.74 120.596 26.904 120.804 27.112C121.02 27.32 121.18 27.564 121.284 27.844C121.396 28.124 121.452 28.428 121.452 28.756C121.452 29.06 121.404 29.328 121.308 29.56C121.22 29.792 121.104 29.996 120.96 30.172C120.816 30.348 120.656 30.496 120.48 30.616C120.304 30.728 120.132 30.82 119.964 30.892L121.872 34H120.204L118.632 31.156H117.636V34H116.208V26.44ZM117.636 30.016H118.368C118.824 30.016 119.2 29.924 119.496 29.74C119.792 29.548 119.94 29.232 119.94 28.792C119.94 28.392 119.82 28.088 119.58 27.88C119.348 27.672 119.004 27.568 118.548 27.568H117.636V30.016ZM127.795 31.468H123.919V31.516C123.919 32.036 124.079 32.424 124.399 32.68C124.727 32.936 125.155 33.064 125.683 33.064C125.995 33.064 126.271 33.036 126.511 32.98C126.759 32.924 126.995 32.848 127.219 32.752L127.495 33.748C127.263 33.852 126.987 33.94 126.667 34.012C126.347 34.084 125.975 34.12 125.551 34.12C125.127 34.12 124.727 34.064 124.351 33.952C123.983 33.84 123.659 33.664 123.379 33.424C123.099 33.184 122.875 32.88 122.707 32.512C122.547 32.144 122.467 31.704 122.467 31.192C122.467 30.744 122.535 30.336 122.671 29.968C122.807 29.6 122.999 29.284 123.247 29.02C123.495 28.756 123.795 28.552 124.147 28.408C124.499 28.264 124.887 28.192 125.311 28.192C126.071 28.192 126.675 28.424 127.123 28.888C127.571 29.352 127.795 29.996 127.795 30.82V31.468ZM126.343 30.484C126.343 30.316 126.323 30.156 126.283 30.004C126.243 29.844 126.179 29.704 126.091 29.584C126.003 29.464 125.887 29.372 125.743 29.308C125.607 29.236 125.443 29.2 125.251 29.2C124.891 29.2 124.595 29.32 124.363 29.56C124.131 29.8 123.991 30.116 123.943 30.508L126.343 30.484ZM130.383 34H128.967V28.3H130.059L130.239 29.056C130.503 28.792 130.787 28.584 131.091 28.432C131.395 28.272 131.747 28.192 132.147 28.192C132.547 28.192 132.883 28.272 133.155 28.432C133.427 28.584 133.631 28.804 133.767 29.092C134.039 28.812 134.339 28.592 134.667 28.432C134.995 28.272 135.355 28.192 135.747 28.192C136.347 28.192 136.803 28.356 137.115 28.684C137.427 29.012 137.583 29.48 137.583 30.088V34H136.167V30.28C136.167 29.976 136.095 29.736 135.951 29.56C135.807 29.384 135.587 29.296 135.291 29.296C135.059 29.296 134.827 29.352 134.595 29.464C134.363 29.576 134.155 29.736 133.971 29.944C133.979 30 133.983 30.052 133.983 30.1C133.983 30.14 133.983 30.188 133.983 30.244V34H132.567V30.28C132.567 29.976 132.495 29.736 132.351 29.56C132.207 29.384 131.987 29.296 131.691 29.296C131.459 29.296 131.227 29.36 130.995 29.488C130.771 29.608 130.567 29.776 130.383 29.992V34ZM139.224 34V28.3H140.64V34H139.224ZM139.932 26.992C139.684 26.992 139.488 26.92 139.344 26.776C139.208 26.632 139.14 26.452 139.14 26.236C139.14 26.028 139.212 25.852 139.356 25.708C139.5 25.556 139.692 25.48 139.932 25.48C140.164 25.48 140.352 25.552 140.496 25.696C140.64 25.84 140.712 26.02 140.712 26.236C140.712 26.452 140.64 26.632 140.496 26.776C140.352 26.92 140.164 26.992 139.932 26.992ZM143.695 34H142.279V28.3H143.383L143.563 29.056C143.835 28.784 144.127 28.572 144.439 28.42C144.751 28.268 145.099 28.192 145.483 28.192C146.099 28.192 146.575 28.364 146.911 28.708C147.247 29.044 147.415 29.524 147.415 30.148V34H145.999V30.316C145.999 30.012 145.919 29.768 145.759 29.584C145.607 29.392 145.375 29.296 145.063 29.296C144.831 29.296 144.595 29.36 144.355 29.488C144.115 29.608 143.895 29.772 143.695 29.98V34ZM152.632 25.456H154.048V34H152.992L152.836 33.376H152.788C152.604 33.592 152.38 33.772 152.116 33.916C151.852 34.052 151.512 34.12 151.096 34.12C150.76 34.12 150.44 34.056 150.136 33.928C149.832 33.8 149.564 33.612 149.332 33.364C149.108 33.108 148.928 32.796 148.792 32.428C148.664 32.06 148.6 31.636 148.6 31.156C148.6 30.708 148.656 30.304 148.768 29.944C148.888 29.576 149.06 29.264 149.284 29.008C149.508 28.744 149.78 28.544 150.1 28.408C150.428 28.264 150.796 28.192 151.204 28.192C151.484 28.192 151.748 28.236 151.996 28.324C152.252 28.404 152.464 28.52 152.632 28.672V25.456ZM152.632 29.764C152.496 29.604 152.336 29.476 152.152 29.38C151.968 29.284 151.764 29.236 151.54 29.236C151.34 29.236 151.148 29.272 150.964 29.344C150.788 29.408 150.628 29.516 150.484 29.668C150.348 29.82 150.236 30.016 150.148 30.256C150.068 30.496 150.028 30.784 150.028 31.12C150.028 31.456 150.064 31.748 150.136 31.996C150.216 32.244 150.32 32.448 150.448 32.608C150.576 32.76 150.724 32.876 150.892 32.956C151.068 33.028 151.252 33.064 151.444 33.064C151.708 33.064 151.94 33.004 152.14 32.884C152.34 32.756 152.504 32.592 152.632 32.392V29.764ZM160.561 31.468H156.685V31.516C156.685 32.036 156.845 32.424 157.165 32.68C157.493 32.936 157.921 33.064 158.449 33.064C158.761 33.064 159.037 33.036 159.277 32.98C159.525 32.924 159.761 32.848 159.985 32.752L160.261 33.748C160.029 33.852 159.753 33.94 159.433 34.012C159.113 34.084 158.741 34.12 158.317 34.12C157.893 34.12 157.493 34.064 157.117 33.952C156.749 33.84 156.425 33.664 156.145 33.424C155.865 33.184 155.641 32.88 155.473 32.512C155.313 32.144 155.233 31.704 155.233 31.192C155.233 30.744 155.301 30.336 155.437 29.968C155.573 29.6 155.765 29.284 156.013 29.02C156.261 28.756 156.561 28.552 156.913 28.408C157.265 28.264 157.653 28.192 158.077 28.192C158.837 28.192 159.441 28.424 159.889 28.888C160.337 29.352 160.561 29.996 160.561 30.82V31.468ZM159.109 30.484C159.109 30.316 159.089 30.156 159.049 30.004C159.009 29.844 158.945 29.704 158.857 29.584C158.769 29.464 158.653 29.372 158.509 29.308C158.373 29.236 158.209 29.2 158.017 29.2C157.657 29.2 157.361 29.32 157.129 29.56C156.897 29.8 156.757 30.116 156.709 30.508L159.109 30.484ZM161.721 34V28.3H162.813L162.993 29.368C163.129 29.04 163.345 28.764 163.641 28.54C163.937 28.308 164.305 28.192 164.745 28.192C164.937 28.192 165.105 28.212 165.249 28.252C165.393 28.292 165.513 28.336 165.609 28.384L165.369 29.536C165.281 29.488 165.173 29.448 165.045 29.416C164.917 29.376 164.761 29.356 164.577 29.356C164.169 29.356 163.825 29.496 163.545 29.776C163.265 30.056 163.125 30.5 163.125 31.108V34H161.721ZM168.312 34.84H180.312V22.84H168.312V34.84Z" fill="#4C515B"/>
<path d="M68.8 51V44.7H69.72V47.35H72.71V44.7H73.63V51H72.71V48.13H69.72V51H68.8ZM79.096 48.75H75.726V48.79C75.726 49.31 75.866 49.71 76.146 49.99C76.4327 50.27 76.8193 50.41 77.306 50.41C77.5593 50.41 77.7827 50.39 77.976 50.35C78.176 50.31 78.3927 50.2433 78.626 50.15L78.806 50.8C78.6127 50.8867 78.3827 50.9567 78.116 51.01C77.856 51.0633 77.576 51.09 77.276 51.09C76.936 51.09 76.616 51.0433 76.316 50.95C76.0227 50.8567 75.7627 50.7133 75.536 50.52C75.3093 50.32 75.1293 50.0667 74.996 49.76C74.8693 49.4533 74.806 49.0867 74.806 48.66C74.806 48.2933 74.8593 47.96 74.966 47.66C75.0793 47.36 75.236 47.1067 75.436 46.9C75.636 46.6867 75.876 46.5233 76.156 46.41C76.4427 46.29 76.7627 46.23 77.116 46.23C77.416 46.23 77.686 46.28 77.926 46.38C78.1727 46.48 78.3827 46.62 78.556 46.8C78.7293 46.98 78.8627 47.1967 78.956 47.45C79.0493 47.7033 79.096 47.9833 79.096 48.29V48.75ZM78.186 48.12C78.186 47.9467 78.1627 47.7867 78.116 47.64C78.076 47.4867 78.0093 47.3533 77.916 47.24C77.8293 47.1267 77.716 47.0367 77.576 46.97C77.436 46.9033 77.266 46.87 77.066 46.87C76.6993 46.87 76.3993 46.9867 76.166 47.22C75.9393 47.4533 75.7993 47.76 75.746 48.14L78.186 48.12ZM79.4474 46.3H80.3874L81.3874 48.99L81.7274 50.11H81.7474L82.0874 48.99L82.9974 46.3H83.8974L82.0874 51.4C81.8874 51.9667 81.6341 52.41 81.3274 52.73C81.0274 53.05 80.6674 53.2833 80.2474 53.43L79.8674 52.73C80.1808 52.61 80.4574 52.4367 80.6974 52.21C80.9441 51.9833 81.1341 51.67 81.2674 51.27L81.3574 51L79.4474 46.3ZM88.1536 44.7V49.85C88.1536 50.3167 88.1303 50.7 88.0836 51C88.0436 51.3 87.9403 51.5633 87.7736 51.79C87.5736 52.07 87.3136 52.2633 86.9936 52.37C86.6736 52.4833 86.3536 52.5433 86.0336 52.55V51.8C86.4269 51.7933 86.7303 51.67 86.9436 51.43C87.0636 51.2967 87.1403 51.1333 87.1736 50.94C87.2136 50.7467 87.2336 50.5433 87.2336 50.33V44.7H88.1536ZM89.5991 46.72C89.7591 46.64 89.9091 46.57 90.0491 46.51C90.1891 46.4433 90.3291 46.39 90.4691 46.35C90.6091 46.31 90.7525 46.28 90.8991 46.26C91.0458 46.24 91.2058 46.23 91.3791 46.23C91.6391 46.23 91.8758 46.26 92.0891 46.32C92.3091 46.3733 92.4958 46.4667 92.6491 46.6C92.8091 46.7333 92.9325 46.91 93.0191 47.13C93.1058 47.3433 93.1491 47.6133 93.1491 47.94V51H92.4191L92.3091 50.48H92.2891C92.0825 50.7 91.8558 50.8567 91.6091 50.95C91.3625 51.0433 91.0891 51.09 90.7891 51.09C90.5625 51.09 90.3525 51.06 90.1591 51C89.9725 50.9333 89.8091 50.8433 89.6691 50.73C89.5291 50.61 89.4191 50.4667 89.3391 50.3C89.2658 50.1333 89.2291 49.9467 89.2291 49.74C89.2291 49.2467 89.4225 48.8733 89.8091 48.62C90.2025 48.36 90.7191 48.23 91.3591 48.23H92.2591V47.83C92.2591 47.49 92.1725 47.26 91.9991 47.14C91.8258 47.0133 91.5925 46.95 91.2991 46.95C91.1258 46.95 90.9258 46.98 90.6991 47.04C90.4791 47.0933 90.2258 47.2 89.9391 47.36L89.5991 46.72ZM92.2691 48.83L91.5291 48.85C91.0291 48.8633 90.6725 48.9533 90.4591 49.12C90.2525 49.28 90.1491 49.4767 90.1491 49.71C90.1491 49.85 90.1725 49.97 90.2191 50.07C90.2658 50.1633 90.3258 50.2367 90.3991 50.29C90.4791 50.3433 90.5691 50.3833 90.6691 50.41C90.7758 50.43 90.8858 50.44 90.9991 50.44C91.2191 50.44 91.4425 50.39 91.6691 50.29C91.8958 50.1833 92.0958 50.0167 92.2691 49.79V48.83ZM95.3217 51H94.4417V46.3H95.1317L95.2617 46.95C95.4951 46.7167 95.7384 46.54 95.9917 46.42C96.2517 46.2933 96.5484 46.23 96.8817 46.23C97.3617 46.23 97.7384 46.3667 98.0117 46.64C98.2851 46.9067 98.4217 47.28 98.4217 47.76V51H97.5417V47.89C97.5417 47.6033 97.4651 47.3767 97.3117 47.21C97.1651 47.0367 96.9384 46.95 96.6317 46.95C96.1651 46.95 95.7284 47.16 95.3217 47.58V51ZM103.784 48.75H100.414V48.79C100.414 49.31 100.554 49.71 100.834 49.99C101.12 50.27 101.507 50.41 101.994 50.41C102.247 50.41 102.47 50.39 102.664 50.35C102.864 50.31 103.08 50.2433 103.314 50.15L103.494 50.8C103.3 50.8867 103.07 50.9567 102.804 51.01C102.544 51.0633 102.264 51.09 101.964 51.09C101.624 51.09 101.304 51.0433 101.004 50.95C100.71 50.8567 100.45 50.7133 100.224 50.52C99.9968 50.32 99.8168 50.0667 99.6835 49.76C99.5568 49.4533 99.4935 49.0867 99.4935 48.66C99.4935 48.2933 99.5468 47.96 99.6535 47.66C99.7668 47.36 99.9235 47.1067 100.124 46.9C100.324 46.6867 100.564 46.5233 100.844 46.41C101.13 46.29 101.45 46.23 101.804 46.23C102.104 46.23 102.374 46.28 102.614 46.38C102.86 46.48 103.07 46.62 103.244 46.8C103.417 46.98 103.55 47.1967 103.644 47.45C103.737 47.7033 103.784 47.9833 103.784 48.29V48.75ZM102.874 48.12C102.874 47.9467 102.85 47.7867 102.804 47.64C102.764 47.4867 102.697 47.3533 102.604 47.24C102.517 47.1267 102.404 47.0367 102.264 46.97C102.124 46.9033 101.954 46.87 101.754 46.87C101.387 46.87 101.087 46.9867 100.854 47.22C100.627 47.4533 100.487 47.76 100.434 48.14L102.874 48.12ZM104.913 43.9H105.853L105.733 48.91H105.013L104.913 43.9ZM104.773 50.46C104.773 50.2867 104.833 50.14 104.953 50.02C105.073 49.9 105.216 49.84 105.383 49.84C105.549 49.84 105.689 49.9 105.803 50.02C105.923 50.14 105.983 50.2867 105.983 50.46C105.983 50.6533 105.923 50.8067 105.803 50.92C105.689 51.0333 105.549 51.09 105.383 51.09C105.216 51.09 105.073 51.0333 104.953 50.92C104.833 50.8067 104.773 50.6533 104.773 50.46ZM109.94 44.7L111.51 47.52L113.09 44.7H114.06L111.93 48.36V51H111.01V48.36L108.93 44.7H109.94ZM118.459 48.6C118.459 48.9933 118.399 49.3467 118.279 49.66C118.159 49.9667 117.992 50.2267 117.779 50.44C117.572 50.6533 117.329 50.8167 117.049 50.93C116.769 51.0367 116.465 51.09 116.139 51.09C115.812 51.09 115.509 51.04 115.229 50.94C114.955 50.8333 114.715 50.68 114.509 50.48C114.309 50.2733 114.149 50.0233 114.029 49.73C113.915 49.43 113.859 49.0867 113.859 48.7C113.859 48.3067 113.919 47.9567 114.039 47.65C114.159 47.3433 114.322 47.0867 114.529 46.88C114.742 46.6667 114.989 46.5067 115.269 46.4C115.549 46.2867 115.852 46.23 116.179 46.23C116.505 46.23 116.805 46.28 117.079 46.38C117.359 46.48 117.599 46.63 117.799 46.83C118.005 47.03 118.165 47.28 118.279 47.58C118.399 47.8733 118.459 48.2133 118.459 48.6ZM117.539 48.65C117.539 48.3367 117.499 48.07 117.419 47.85C117.339 47.63 117.232 47.45 117.099 47.31C116.972 47.17 116.825 47.07 116.659 47.01C116.492 46.9433 116.322 46.91 116.149 46.91C115.975 46.91 115.805 46.9367 115.639 46.99C115.472 47.0433 115.325 47.1367 115.199 47.27C115.072 47.4033 114.969 47.5833 114.889 47.81C114.815 48.03 114.779 48.31 114.779 48.65C114.779 48.9633 114.819 49.2333 114.899 49.46C114.979 49.68 115.082 49.86 115.209 50C115.342 50.14 115.492 50.2433 115.659 50.31C115.825 50.3767 115.995 50.41 116.169 50.41C116.342 50.41 116.512 50.3833 116.679 50.33C116.845 50.27 116.992 50.1733 117.119 50.04C117.245 49.9 117.345 49.72 117.419 49.5C117.499 49.2733 117.539 48.99 117.539 48.65ZM122.68 46.3H123.56V51H122.87L122.75 50.41H122.71C122.536 50.6033 122.32 50.7667 122.06 50.9C121.806 51.0267 121.51 51.09 121.17 51.09C120.683 51.09 120.286 50.9533 119.98 50.68C119.68 50.4 119.53 49.98 119.53 49.42V46.3H120.41V49.31C120.41 49.51 120.433 49.68 120.48 49.82C120.533 49.96 120.6 50.0733 120.68 50.16C120.766 50.24 120.866 50.3 120.98 50.34C121.093 50.3733 121.216 50.39 121.35 50.39C121.616 50.39 121.856 50.3333 122.07 50.22C122.283 50.1067 122.486 49.95 122.68 49.75V46.3ZM124.9 51V46.3H125.56L125.71 47.24C125.824 46.94 126.01 46.6967 126.27 46.51C126.53 46.3233 126.83 46.23 127.17 46.23C127.344 46.23 127.487 46.2433 127.6 46.27C127.714 46.2967 127.817 46.33 127.91 46.37L127.74 47.14C127.66 47.1 127.57 47.0667 127.47 47.04C127.377 47.0133 127.264 47 127.13 47C126.937 47 126.757 47.0333 126.59 47.1C126.43 47.1667 126.287 47.2667 126.16 47.4C126.04 47.5333 125.944 47.7 125.87 47.9C125.804 48.0933 125.77 48.3167 125.77 48.57V51H124.9ZM135.198 48.65C135.198 49.0233 135.141 49.36 135.028 49.66C134.914 49.96 134.761 50.2167 134.568 50.43C134.374 50.6433 134.148 50.8067 133.888 50.92C133.628 51.0333 133.351 51.09 133.058 51.09C132.751 51.09 132.481 51.0467 132.248 50.96C132.021 50.8733 131.808 50.74 131.608 50.56H131.588L131.498 51H130.868V43.9H131.738V46.89C131.951 46.6633 132.184 46.4967 132.438 46.39C132.698 46.2833 132.968 46.23 133.248 46.23C133.848 46.23 134.321 46.4433 134.668 46.87C135.021 47.2967 135.198 47.89 135.198 48.65ZM134.278 48.66C134.278 48.14 134.168 47.7267 133.948 47.42C133.728 47.1067 133.418 46.95 133.018 46.95C132.764 46.95 132.534 47.0067 132.328 47.12C132.121 47.2333 131.924 47.3933 131.738 47.6V49.88C131.878 50.04 132.034 50.17 132.208 50.27C132.388 50.3633 132.594 50.41 132.828 50.41C133.014 50.41 133.194 50.3767 133.368 50.31C133.548 50.2433 133.704 50.14 133.838 50C133.971 49.8533 134.078 49.67 134.158 49.45C134.238 49.23 134.278 48.9667 134.278 48.66ZM136.398 51V46.3H137.278V51H136.398ZM136.838 45.09C136.685 45.09 136.551 45.04 136.438 44.94C136.331 44.8333 136.278 44.7033 136.278 44.55C136.278 44.3967 136.331 44.2667 136.438 44.16C136.551 44.0533 136.685 44 136.838 44C136.985 44 137.115 44.0533 137.228 44.16C137.341 44.2667 137.398 44.3967 137.398 44.55C137.398 44.7033 137.341 44.8333 137.228 44.94C137.115 45.04 136.985 45.09 136.838 45.09ZM138.699 51V46.3H139.359L139.509 47.24C139.622 46.94 139.809 46.6967 140.069 46.51C140.329 46.3233 140.629 46.23 140.969 46.23C141.142 46.23 141.286 46.2433 141.399 46.27C141.512 46.2967 141.616 46.33 141.709 46.37L141.539 47.14C141.459 47.1 141.369 47.0667 141.269 47.04C141.176 47.0133 141.062 47 140.929 47C140.736 47 140.556 47.0333 140.389 47.1C140.229 47.1667 140.086 47.2667 139.959 47.4C139.839 47.5333 139.742 47.7 139.669 47.9C139.602 48.0933 139.569 48.3167 139.569 48.57V51H138.699ZM145.213 46.96H143.833V49.69C143.833 49.9233 143.889 50.08 144.003 50.16C144.123 50.24 144.276 50.28 144.463 50.28C144.596 50.28 144.743 50.2667 144.903 50.24C145.063 50.2067 145.203 50.17 145.323 50.13L145.463 50.8C145.329 50.8533 145.159 50.9 144.953 50.94C144.746 50.98 144.529 51 144.303 51C143.836 51 143.496 50.9 143.283 50.7C143.069 50.4933 142.963 50.1967 142.963 49.81V46.96H142.263V46.3H142.963V44.8H143.833V46.3H145.213V46.96ZM147.275 51H146.395V43.9H147.275V46.9C147.495 46.7067 147.738 46.5467 148.005 46.42C148.272 46.2933 148.565 46.23 148.885 46.23C149.145 46.23 149.372 46.27 149.565 46.35C149.758 46.4233 149.915 46.53 150.035 46.67C150.162 46.8033 150.255 46.9633 150.315 47.15C150.382 47.3367 150.415 47.54 150.415 47.76V51H149.535V47.98C149.535 47.62 149.462 47.36 149.315 47.2C149.168 47.0333 148.945 46.95 148.645 46.95C148.418 46.95 148.188 47.0067 147.955 47.12C147.728 47.2333 147.502 47.3933 147.275 47.6V51ZM154.905 43.9H155.785V51H155.045L154.935 50.48H154.905C154.699 50.6933 154.489 50.85 154.275 50.95C154.069 51.0433 153.805 51.09 153.485 51.09C153.232 51.09 152.985 51.04 152.745 50.94C152.512 50.84 152.302 50.69 152.115 50.49C151.929 50.29 151.779 50.04 151.665 49.74C151.552 49.4333 151.495 49.0733 151.495 48.66C151.495 48.2933 151.542 47.96 151.635 47.66C151.735 47.36 151.875 47.1033 152.055 46.89C152.235 46.6767 152.455 46.5133 152.715 46.4C152.975 46.2867 153.272 46.23 153.605 46.23C153.852 46.23 154.085 46.27 154.305 46.35C154.532 46.4233 154.732 46.5367 154.905 46.69V43.9ZM154.905 47.43C154.592 47.0767 154.222 46.9 153.795 46.9C153.615 46.9 153.439 46.9333 153.265 47C153.099 47.06 152.949 47.16 152.815 47.3C152.689 47.44 152.585 47.62 152.505 47.84C152.425 48.06 152.385 48.3233 152.385 48.63C152.385 48.95 152.422 49.2233 152.495 49.45C152.569 49.67 152.665 49.8533 152.785 50C152.912 50.14 153.052 50.2433 153.205 50.31C153.365 50.3767 153.525 50.41 153.685 50.41C154.185 50.41 154.592 50.1933 154.905 49.76V47.43ZM157.197 46.72C157.357 46.64 157.507 46.57 157.647 46.51C157.787 46.4433 157.927 46.39 158.067 46.35C158.207 46.31 158.35 46.28 158.497 46.26C158.643 46.24 158.803 46.23 158.977 46.23C159.237 46.23 159.473 46.26 159.687 46.32C159.907 46.3733 160.093 46.4667 160.247 46.6C160.407 46.7333 160.53 46.91 160.617 47.13C160.703 47.3433 160.747 47.6133 160.747 47.94V51H160.017L159.907 50.48H159.887C159.68 50.7 159.453 50.8567 159.207 50.95C158.96 51.0433 158.687 51.09 158.387 51.09C158.16 51.09 157.95 51.06 157.757 51C157.57 50.9333 157.407 50.8433 157.267 50.73C157.127 50.61 157.017 50.4667 156.937 50.3C156.863 50.1333 156.827 49.9467 156.827 49.74C156.827 49.2467 157.02 48.8733 157.407 48.62C157.8 48.36 158.317 48.23 158.957 48.23H159.857V47.83C159.857 47.49 159.77 47.26 159.597 47.14C159.423 47.0133 159.19 46.95 158.897 46.95C158.723 46.95 158.523 46.98 158.297 47.04C158.077 47.0933 157.823 47.2 157.537 47.36L157.197 46.72ZM159.867 48.83L159.127 48.85C158.627 48.8633 158.27 48.9533 158.057 49.12C157.85 49.28 157.747 49.4767 157.747 49.71C157.747 49.85 157.77 49.97 157.817 50.07C157.863 50.1633 157.923 50.2367 157.997 50.29C158.077 50.3433 158.167 50.3833 158.267 50.41C158.373 50.43 158.483 50.44 158.597 50.44C158.817 50.44 159.04 50.39 159.267 50.29C159.493 50.1833 159.693 50.0167 159.867 49.79V48.83ZM161.43 46.3H162.37L163.37 48.99L163.71 50.11H163.73L164.07 48.99L164.98 46.3H165.88L164.07 51.4C163.87 51.9667 163.617 52.41 163.31 52.73C163.01 53.05 162.65 53.2833 162.23 53.43L161.85 52.73C162.163 52.61 162.44 52.4367 162.68 52.21C162.927 51.9833 163.117 51.67 163.25 51.27L163.34 51L161.43 46.3ZM168.986 51V46.3H169.866V51H168.986ZM169.426 45.09C169.273 45.09 169.139 45.04 169.026 44.94C168.919 44.8333 168.866 44.7033 168.866 44.55C168.866 44.3967 168.919 44.2667 169.026 44.16C169.139 44.0533 169.273 44 169.426 44C169.573 44 169.703 44.0533 169.816 44.16C169.929 44.2667 169.986 44.3967 169.986 44.55C169.986 44.7033 169.929 44.8333 169.816 44.94C169.703 45.04 169.573 45.09 169.426 45.09ZM173.947 47.18C173.727 47.0733 173.527 47 173.347 46.96C173.167 46.92 172.987 46.9 172.807 46.9C172.487 46.9 172.25 46.96 172.097 47.08C171.944 47.1933 171.867 47.3467 171.867 47.54C171.867 47.68 171.92 47.8033 172.027 47.91C172.134 48.01 172.357 48.11 172.697 48.21L172.997 48.3C173.444 48.4333 173.78 48.6067 174.007 48.82C174.24 49.0267 174.357 49.31 174.357 49.67C174.357 50.0967 174.197 50.44 173.877 50.7C173.564 50.96 173.124 51.09 172.557 51.09C172.257 51.09 171.967 51.0633 171.687 51.01C171.414 50.9567 171.177 50.8833 170.977 50.79L171.187 50.1C171.38 50.1933 171.59 50.27 171.817 50.33C172.044 50.3833 172.274 50.41 172.507 50.41C172.807 50.41 173.044 50.3567 173.217 50.25C173.397 50.1433 173.487 49.9667 173.487 49.72C173.487 49.5067 173.41 49.3567 173.257 49.27C173.104 49.1767 172.884 49.0867 172.597 49L172.287 48.9C171.854 48.76 171.53 48.5867 171.317 48.38C171.11 48.1667 171.007 47.8933 171.007 47.56C171.007 47.36 171.05 47.1767 171.137 47.01C171.224 46.8433 171.34 46.7033 171.487 46.59C171.64 46.4767 171.82 46.39 172.027 46.33C172.234 46.2633 172.46 46.23 172.707 46.23C172.94 46.23 173.18 46.2533 173.427 46.3C173.68 46.34 173.92 46.41 174.147 46.51L173.947 47.18ZM180.066 46.96H178.686V49.69C178.686 49.9233 178.743 50.08 178.856 50.16C178.976 50.24 179.129 50.28 179.316 50.28C179.449 50.28 179.596 50.2667 179.756 50.24C179.916 50.2067 180.056 50.17 180.176 50.13L180.316 50.8C180.183 50.8533 180.013 50.9 179.806 50.94C179.599 50.98 179.383 51 179.156 51C178.689 51 178.349 50.9 178.136 50.7C177.923 50.4933 177.816 50.1967 177.816 49.81V46.96H177.116V46.3H177.816V44.8H178.686V46.3H180.066V46.96ZM182.129 51H181.249V43.9H182.129V46.9C182.349 46.7067 182.592 46.5467 182.859 46.42C183.125 46.2933 183.419 46.23 183.739 46.23C183.999 46.23 184.225 46.27 184.419 46.35C184.612 46.4233 184.769 46.53 184.889 46.67C185.015 46.8033 185.109 46.9633 185.169 47.15C185.235 47.3367 185.269 47.54 185.269 47.76V51H184.389V47.98C184.389 47.62 184.315 47.36 184.169 47.2C184.022 47.0333 183.799 46.95 183.499 46.95C183.272 46.95 183.042 47.0067 182.809 47.12C182.582 47.2333 182.355 47.3933 182.129 47.6V51ZM186.779 51V46.3H187.659V51H186.779ZM187.219 45.09C187.066 45.09 186.932 45.04 186.819 44.94C186.712 44.8333 186.659 44.7033 186.659 44.55C186.659 44.3967 186.712 44.2667 186.819 44.16C186.932 44.0533 187.066 44 187.219 44C187.366 44 187.496 44.0533 187.609 44.16C187.722 44.2667 187.779 44.3967 187.779 44.55C187.779 44.7033 187.722 44.8333 187.609 44.94C187.496 45.04 187.366 45.09 187.219 45.09ZM191.74 47.18C191.52 47.0733 191.32 47 191.14 46.96C190.96 46.92 190.78 46.9 190.6 46.9C190.28 46.9 190.043 46.96 189.89 47.08C189.737 47.1933 189.66 47.3467 189.66 47.54C189.66 47.68 189.713 47.8033 189.82 47.91C189.927 48.01 190.15 48.11 190.49 48.21L190.79 48.3C191.237 48.4333 191.573 48.6067 191.8 48.82C192.033 49.0267 192.15 49.31 192.15 49.67C192.15 50.0967 191.99 50.44 191.67 50.7C191.357 50.96 190.917 51.09 190.35 51.09C190.05 51.09 189.76 51.0633 189.48 51.01C189.207 50.9567 188.97 50.8833 188.77 50.79L188.98 50.1C189.173 50.1933 189.383 50.27 189.61 50.33C189.837 50.3833 190.067 50.41 190.3 50.41C190.6 50.41 190.837 50.3567 191.01 50.25C191.19 50.1433 191.28 49.9667 191.28 49.72C191.28 49.5067 191.203 49.3567 191.05 49.27C190.897 49.1767 190.677 49.0867 190.39 49L190.08 48.9C189.647 48.76 189.323 48.5867 189.11 48.38C188.903 48.1667 188.8 47.8933 188.8 47.56C188.8 47.36 188.843 47.1767 188.93 47.01C189.017 46.8433 189.133 46.7033 189.28 46.59C189.433 46.4767 189.613 46.39 189.82 46.33C190.027 46.2633 190.253 46.23 190.5 46.23C190.733 46.23 190.973 46.2533 191.22 46.3C191.473 46.34 191.713 46.41 191.94 46.51L191.74 47.18ZM196.269 51H195.389V46.3H196.069L196.199 46.95C196.419 46.73 196.656 46.5567 196.909 46.43C197.162 46.2967 197.466 46.23 197.819 46.23C198.152 46.23 198.426 46.3 198.639 46.44C198.852 46.5733 199.012 46.76 199.119 47C199.352 46.7533 199.609 46.5633 199.889 46.43C200.169 46.2967 200.479 46.23 200.819 46.23C201.299 46.23 201.659 46.3667 201.899 46.64C202.146 46.9067 202.269 47.28 202.269 47.76V51H201.389V47.92C201.389 47.6067 201.322 47.3667 201.189 47.2C201.056 47.0333 200.836 46.95 200.529 46.95C200.076 46.95 199.652 47.1533 199.259 47.56C199.266 47.5933 199.269 47.6267 199.269 47.66C199.269 47.6933 199.269 47.7267 199.269 47.76V51H198.389V47.92C198.389 47.6067 198.322 47.3667 198.189 47.2C198.056 47.0333 197.836 46.95 197.529 46.95C197.076 46.95 196.656 47.1633 196.269 47.59V51ZM207.941 48.6C207.941 48.9933 207.881 49.3467 207.761 49.66C207.641 49.9667 207.475 50.2267 207.261 50.44C207.055 50.6533 206.811 50.8167 206.531 50.93C206.251 51.0367 205.948 51.09 205.621 51.09C205.295 51.09 204.991 51.04 204.711 50.94C204.438 50.8333 204.198 50.68 203.991 50.48C203.791 50.2733 203.631 50.0233 203.511 49.73C203.398 49.43 203.341 49.0867 203.341 48.7C203.341 48.3067 203.401 47.9567 203.521 47.65C203.641 47.3433 203.805 47.0867 204.011 46.88C204.225 46.6667 204.471 46.5067 204.751 46.4C205.031 46.2867 205.335 46.23 205.661 46.23C205.988 46.23 206.288 46.28 206.561 46.38C206.841 46.48 207.081 46.63 207.281 46.83C207.488 47.03 207.648 47.28 207.761 47.58C207.881 47.8733 207.941 48.2133 207.941 48.6ZM207.021 48.65C207.021 48.3367 206.981 48.07 206.901 47.85C206.821 47.63 206.715 47.45 206.581 47.31C206.455 47.17 206.308 47.07 206.141 47.01C205.975 46.9433 205.805 46.91 205.631 46.91C205.458 46.91 205.288 46.9367 205.121 46.99C204.955 47.0433 204.808 47.1367 204.681 47.27C204.555 47.4033 204.451 47.5833 204.371 47.81C204.298 48.03 204.261 48.31 204.261 48.65C204.261 48.9633 204.301 49.2333 204.381 49.46C204.461 49.68 204.565 49.86 204.691 50C204.825 50.14 204.975 50.2433 205.141 50.31C205.308 50.3767 205.478 50.41 205.651 50.41C205.825 50.41 205.995 50.3833 206.161 50.33C206.328 50.27 206.475 50.1733 206.601 50.04C206.728 49.9 206.828 49.72 206.901 49.5C206.981 49.2733 207.021 48.99 207.021 48.65ZM209.892 51H209.012V46.3H209.702L209.832 46.95C210.065 46.7167 210.309 46.54 210.562 46.42C210.822 46.2933 211.119 46.23 211.452 46.23C211.932 46.23 212.309 46.3667 212.582 46.64C212.855 46.9067 212.992 47.28 212.992 47.76V51H212.112V47.89C212.112 47.6033 212.035 47.3767 211.882 47.21C211.735 47.0367 211.509 46.95 211.202 46.95C210.735 46.95 210.299 47.16 209.892 47.58V51ZM216.775 46.96H215.395V49.69C215.395 49.9233 215.452 50.08 215.565 50.16C215.685 50.24 215.838 50.28 216.025 50.28C216.158 50.28 216.305 50.2667 216.465 50.24C216.625 50.2067 216.765 50.17 216.885 50.13L217.025 50.8C216.892 50.8533 216.722 50.9 216.515 50.94C216.308 50.98 216.092 51 215.865 51C215.398 51 215.058 50.9 214.845 50.7C214.632 50.4933 214.525 50.1967 214.525 49.81V46.96H213.825V46.3H214.525V44.8H215.395V46.3H216.775V46.96ZM218.838 51H217.958V43.9H218.838V46.9C219.058 46.7067 219.301 46.5467 219.568 46.42C219.834 46.2933 220.128 46.23 220.448 46.23C220.708 46.23 220.934 46.27 221.128 46.35C221.321 46.4233 221.478 46.53 221.598 46.67C221.724 46.8033 221.818 46.9633 221.878 47.15C221.944 47.3367 221.978 47.54 221.978 47.76V51H221.098V47.98C221.098 47.62 221.024 47.36 220.878 47.2C220.731 47.0333 220.508 46.95 220.208 46.95C219.981 46.95 219.751 47.0067 219.518 47.12C219.291 47.2333 219.064 47.3933 218.838 47.6V51ZM223.208 50.46C223.208 50.2867 223.268 50.14 223.388 50.02C223.508 49.9 223.651 49.84 223.818 49.84C223.985 49.84 224.125 49.9 224.238 50.02C224.358 50.14 224.418 50.2867 224.418 50.46C224.418 50.6533 224.358 50.8067 224.238 50.92C224.125 51.0333 223.985 51.09 223.818 51.09C223.651 51.09 223.508 51.0333 223.388 50.92C223.268 50.8067 223.208 50.6533 223.208 50.46ZM71.55 65.33C71.8833 65.33 72.1567 65.3033 72.37 65.25C72.59 65.1967 72.8067 65.12 73.02 65.02L73.23 65.76C72.9967 65.8733 72.74 65.9567 72.46 66.01C72.1867 66.0633 71.85 66.09 71.45 66.09C71.0367 66.09 70.6467 66.02 70.28 65.88C69.9133 65.74 69.5933 65.5333 69.32 65.26C69.0533 64.9867 68.84 64.65 68.68 64.25C68.5267 63.8433 68.45 63.3767 68.45 62.85C68.45 62.3367 68.5267 61.88 68.68 61.48C68.8333 61.0733 69.0433 60.7333 69.31 60.46C69.5833 60.18 69.9067 59.97 70.28 59.83C70.6533 59.6833 71.06 59.61 71.5 59.61C71.9133 59.61 72.2533 59.6433 72.52 59.71C72.7867 59.7767 73.0333 59.8667 73.26 59.98L73.04 60.7C72.9133 60.6467 72.7933 60.6 72.68 60.56C72.5733 60.5133 72.4633 60.4767 72.35 60.45C72.2433 60.4233 72.13 60.4033 72.01 60.39C71.8967 60.3767 71.7667 60.37 71.62 60.37C71.3267 60.37 71.0467 60.4167 70.78 60.51C70.52 60.5967 70.29 60.74 70.09 60.94C69.8967 61.14 69.74 61.4 69.62 61.72C69.5067 62.0333 69.45 62.4133 69.45 62.86C69.45 63.3133 69.5067 63.6967 69.62 64.01C69.7333 64.3233 69.8833 64.5767 70.07 64.77C70.2633 64.9633 70.4867 65.1067 70.74 65.2C70.9933 65.2867 71.2633 65.33 71.55 65.33ZM74.2459 66V61.3H74.9059L75.0559 62.24C75.1693 61.94 75.3559 61.6967 75.6159 61.51C75.8759 61.3233 76.1759 61.23 76.5159 61.23C76.6893 61.23 76.8326 61.2433 76.9459 61.27C77.0593 61.2967 77.1626 61.33 77.2559 61.37L77.0859 62.14C77.0059 62.1 76.9159 62.0667 76.8159 62.04C76.7226 62.0133 76.6093 62 76.4759 62C76.2826 62 76.1026 62.0333 75.9359 62.1C75.7759 62.1667 75.6326 62.2667 75.5059 62.4C75.3859 62.5333 75.2893 62.7 75.2159 62.9C75.1493 63.0933 75.1159 63.3167 75.1159 63.57V66H74.2459ZM81.7425 63.75H78.3725V63.79C78.3725 64.31 78.5125 64.71 78.7925 64.99C79.0792 65.27 79.4658 65.41 79.9525 65.41C80.2058 65.41 80.4292 65.39 80.6225 65.35C80.8225 65.31 81.0392 65.2433 81.2725 65.15L81.4525 65.8C81.2592 65.8867 81.0292 65.9567 80.7625 66.01C80.5025 66.0633 80.2225 66.09 79.9225 66.09C79.5825 66.09 79.2625 66.0433 78.9625 65.95C78.6692 65.8567 78.4092 65.7133 78.1825 65.52C77.9558 65.32 77.7758 65.0667 77.6425 64.76C77.5158 64.4533 77.4525 64.0867 77.4525 63.66C77.4525 63.2933 77.5058 62.96 77.6125 62.66C77.7258 62.36 77.8825 62.1067 78.0825 61.9C78.2825 61.6867 78.5225 61.5233 78.8025 61.41C79.0892 61.29 79.4092 61.23 79.7625 61.23C80.0625 61.23 80.3325 61.28 80.5725 61.38C80.8192 61.48 81.0292 61.62 81.2025 61.8C81.3758 61.98 81.5092 62.1967 81.6025 62.45C81.6958 62.7033 81.7425 62.9833 81.7425 63.29V63.75ZM80.8325 63.12C80.8325 62.9467 80.8092 62.7867 80.7625 62.64C80.7225 62.4867 80.6558 62.3533 80.5625 62.24C80.4758 62.1267 80.3625 62.0367 80.2225 61.97C80.0825 61.9033 79.9125 61.87 79.7125 61.87C79.3458 61.87 79.0458 61.9867 78.8125 62.22C78.5858 62.4533 78.4458 62.76 78.3925 63.14L80.8325 63.12ZM82.8316 61.72C82.9916 61.64 83.1416 61.57 83.2816 61.51C83.4216 61.4433 83.5616 61.39 83.7016 61.35C83.8416 61.31 83.9849 61.28 84.1316 61.26C84.2782 61.24 84.4382 61.23 84.6116 61.23C84.8716 61.23 85.1082 61.26 85.3216 61.32C85.5416 61.3733 85.7282 61.4667 85.8816 61.6C86.0416 61.7333 86.1649 61.91 86.2516 62.13C86.3382 62.3433 86.3816 62.6133 86.3816 62.94V66H85.6516L85.5416 65.48H85.5216C85.3149 65.7 85.0882 65.8567 84.8416 65.95C84.5949 66.0433 84.3216 66.09 84.0216 66.09C83.7949 66.09 83.5849 66.06 83.3916 66C83.2049 65.9333 83.0416 65.8433 82.9016 65.73C82.7616 65.61 82.6516 65.4667 82.5716 65.3C82.4982 65.1333 82.4616 64.9467 82.4616 64.74C82.4616 64.2467 82.6549 63.8733 83.0416 63.62C83.4349 63.36 83.9516 63.23 84.5916 63.23H85.4916V62.83C85.4916 62.49 85.4049 62.26 85.2316 62.14C85.0582 62.0133 84.8249 61.95 84.5316 61.95C84.3582 61.95 84.1582 61.98 83.9316 62.04C83.7116 62.0933 83.4582 62.2 83.1716 62.36L82.8316 61.72ZM85.5016 63.83L84.7616 63.85C84.2616 63.8633 83.9049 63.9533 83.6916 64.12C83.4849 64.28 83.3816 64.4767 83.3816 64.71C83.3816 64.85 83.4049 64.97 83.4516 65.07C83.4982 65.1633 83.5582 65.2367 83.6316 65.29C83.7116 65.3433 83.8016 65.3833 83.9016 65.41C84.0082 65.43 84.1182 65.44 84.2316 65.44C84.4516 65.44 84.6749 65.39 84.9016 65.29C85.1282 65.1833 85.3282 65.0167 85.5016 64.79V63.83ZM90.193 61.96H88.813V64.69C88.813 64.9233 88.8696 65.08 88.983 65.16C89.103 65.24 89.2563 65.28 89.443 65.28C89.5763 65.28 89.723 65.2667 89.883 65.24C90.043 65.2067 90.183 65.17 90.303 65.13L90.443 65.8C90.3096 65.8533 90.1396 65.9 89.933 65.94C89.7263 65.98 89.5096 66 89.283 66C88.8163 66 88.4763 65.9 88.263 65.7C88.0496 65.4933 87.943 65.1967 87.943 64.81V61.96H87.243V61.3H87.943V59.8H88.813V61.3H90.193V61.96ZM95.3655 63.75H91.9955V63.79C91.9955 64.31 92.1355 64.71 92.4155 64.99C92.7022 65.27 93.0889 65.41 93.5755 65.41C93.8289 65.41 94.0522 65.39 94.2455 65.35C94.4455 65.31 94.6622 65.2433 94.8955 65.15L95.0755 65.8C94.8822 65.8867 94.6522 65.9567 94.3855 66.01C94.1255 66.0633 93.8455 66.09 93.5455 66.09C93.2055 66.09 92.8855 66.0433 92.5855 65.95C92.2922 65.8567 92.0322 65.7133 91.8055 65.52C91.5789 65.32 91.3989 65.0667 91.2655 64.76C91.1389 64.4533 91.0755 64.0867 91.0755 63.66C91.0755 63.2933 91.1289 62.96 91.2355 62.66C91.3489 62.36 91.5055 62.1067 91.7055 61.9C91.9055 61.6867 92.1455 61.5233 92.4255 61.41C92.7122 61.29 93.0322 61.23 93.3855 61.23C93.6855 61.23 93.9555 61.28 94.1955 61.38C94.4422 61.48 94.6522 61.62 94.8255 61.8C94.9989 61.98 95.1322 62.1967 95.2255 62.45C95.3189 62.7033 95.3655 62.9833 95.3655 63.29V63.75ZM94.4555 63.12C94.4555 62.9467 94.4322 62.7867 94.3855 62.64C94.3455 62.4867 94.2789 62.3533 94.1855 62.24C94.0989 62.1267 93.9855 62.0367 93.8455 61.97C93.7055 61.9033 93.5355 61.87 93.3355 61.87C92.9689 61.87 92.6689 61.9867 92.4355 62.22C92.2089 62.4533 92.0689 62.76 92.0155 63.14L94.4555 63.12ZM98.0314 61.3H98.9714L99.9714 63.99L100.311 65.11H100.331L100.671 63.99L101.581 61.3H102.481L100.671 66.4C100.471 66.9667 100.218 67.41 99.9114 67.73C99.6114 68.05 99.2514 68.2833 98.8314 68.43L98.4514 67.73C98.7647 67.61 99.0414 67.4367 99.2814 67.21C99.5281 66.9833 99.7181 66.67 99.8514 66.27L99.9414 66L98.0314 61.3ZM107.541 63.6C107.541 63.9933 107.481 64.3467 107.361 64.66C107.241 64.9667 107.074 65.2267 106.861 65.44C106.654 65.6533 106.411 65.8167 106.131 65.93C105.851 66.0367 105.547 66.09 105.221 66.09C104.894 66.09 104.591 66.04 104.311 65.94C104.037 65.8333 103.797 65.68 103.591 65.48C103.391 65.2733 103.231 65.0233 103.111 64.73C102.997 64.43 102.941 64.0867 102.941 63.7C102.941 63.3067 103.001 62.9567 103.121 62.65C103.241 62.3433 103.404 62.0867 103.611 61.88C103.824 61.6667 104.071 61.5067 104.351 61.4C104.631 61.2867 104.934 61.23 105.261 61.23C105.587 61.23 105.887 61.28 106.161 61.38C106.441 61.48 106.681 61.63 106.881 61.83C107.087 62.03 107.247 62.28 107.361 62.58C107.481 62.8733 107.541 63.2133 107.541 63.6ZM106.621 63.65C106.621 63.3367 106.581 63.07 106.501 62.85C106.421 62.63 106.314 62.45 106.181 62.31C106.054 62.17 105.907 62.07 105.741 62.01C105.574 61.9433 105.404 61.91 105.231 61.91C105.057 61.91 104.887 61.9367 104.721 61.99C104.554 62.0433 104.407 62.1367 104.281 62.27C104.154 62.4033 104.051 62.5833 103.971 62.81C103.897 63.03 103.861 63.31 103.861 63.65C103.861 63.9633 103.901 64.2333 103.981 64.46C104.061 64.68 104.164 64.86 104.291 65C104.424 65.14 104.574 65.2433 104.741 65.31C104.907 65.3767 105.077 65.41 105.251 65.41C105.424 65.41 105.594 65.3833 105.761 65.33C105.927 65.27 106.074 65.1733 106.201 65.04C106.327 64.9 106.427 64.72 106.501 64.5C106.581 64.2733 106.621 63.99 106.621 63.65ZM111.762 61.3H112.642V66H111.952L111.832 65.41H111.792C111.618 65.6033 111.402 65.7667 111.142 65.9C110.888 66.0267 110.592 66.09 110.252 66.09C109.765 66.09 109.368 65.9533 109.062 65.68C108.762 65.4 108.612 64.98 108.612 64.42V61.3H109.492V64.31C109.492 64.51 109.515 64.68 109.562 64.82C109.615 64.96 109.682 65.0733 109.762 65.16C109.848 65.24 109.948 65.3 110.062 65.34C110.175 65.3733 110.298 65.39 110.432 65.39C110.698 65.39 110.938 65.3333 111.152 65.22C111.365 65.1067 111.568 64.95 111.762 64.75V61.3ZM113.982 66V61.3H114.642L114.792 62.24C114.906 61.94 115.092 61.6967 115.352 61.51C115.612 61.3233 115.912 61.23 116.252 61.23C116.426 61.23 116.569 61.2433 116.682 61.27C116.796 61.2967 116.899 61.33 116.992 61.37L116.822 62.14C116.742 62.1 116.652 62.0667 116.552 62.04C116.459 62.0133 116.346 62 116.212 62C116.019 62 115.839 62.0333 115.672 62.1C115.512 62.1667 115.369 62.2667 115.242 62.4C115.122 62.5333 115.026 62.7 114.952 62.9C114.886 63.0933 114.852 63.3167 114.852 63.57V66H113.982ZM124.28 63.65C124.28 64.0233 124.223 64.36 124.11 64.66C123.996 64.96 123.843 65.2167 123.65 65.43C123.456 65.6433 123.23 65.8067 122.97 65.92C122.71 66.0333 122.433 66.09 122.14 66.09C121.833 66.09 121.563 66.0467 121.33 65.96C121.103 65.8733 120.89 65.74 120.69 65.56H120.67L120.58 66H119.95V58.9H120.82V61.89C121.033 61.6633 121.266 61.4967 121.52 61.39C121.78 61.2833 122.05 61.23 122.33 61.23C122.93 61.23 123.403 61.4433 123.75 61.87C124.103 62.2967 124.28 62.89 124.28 63.65ZM123.36 63.66C123.36 63.14 123.25 62.7267 123.03 62.42C122.81 62.1067 122.5 61.95 122.1 61.95C121.846 61.95 121.616 62.0067 121.41 62.12C121.203 62.2333 121.006 62.3933 120.82 62.6V64.88C120.96 65.04 121.116 65.17 121.29 65.27C121.47 65.3633 121.676 65.41 121.91 65.41C122.096 65.41 122.276 65.3767 122.45 65.31C122.63 65.2433 122.786 65.14 122.92 65C123.053 64.8533 123.16 64.67 123.24 64.45C123.32 64.23 123.36 63.9667 123.36 63.66ZM125.48 66V61.3H126.36V66H125.48ZM125.92 60.09C125.767 60.09 125.633 60.04 125.52 59.94C125.413 59.8333 125.36 59.7033 125.36 59.55C125.36 59.3967 125.413 59.2667 125.52 59.16C125.633 59.0533 125.767 59 125.92 59C126.067 59 126.197 59.0533 126.31 59.16C126.423 59.2667 126.48 59.3967 126.48 59.55C126.48 59.7033 126.423 59.8333 126.31 59.94C126.197 60.04 126.067 60.09 125.92 60.09ZM127.781 66V61.3H128.441L128.591 62.24C128.704 61.94 128.891 61.6967 129.151 61.51C129.411 61.3233 129.711 61.23 130.051 61.23C130.224 61.23 130.368 61.2433 130.481 61.27C130.594 61.2967 130.698 61.33 130.791 61.37L130.621 62.14C130.541 62.1 130.451 62.0667 130.351 62.04C130.258 62.0133 130.144 62 130.011 62C129.818 62 129.638 62.0333 129.471 62.1C129.311 62.1667 129.168 62.2667 129.041 62.4C128.921 62.5333 128.824 62.7 128.751 62.9C128.684 63.0933 128.651 63.3167 128.651 63.57V66H127.781ZM134.295 61.96H132.915V64.69C132.915 64.9233 132.971 65.08 133.085 65.16C133.205 65.24 133.358 65.28 133.545 65.28C133.678 65.28 133.825 65.2667 133.985 65.24C134.145 65.2067 134.285 65.17 134.405 65.13L134.545 65.8C134.411 65.8533 134.241 65.9 134.035 65.94C133.828 65.98 133.611 66 133.385 66C132.918 66 132.578 65.9 132.365 65.7C132.151 65.4933 132.045 65.1967 132.045 64.81V61.96H131.345V61.3H132.045V59.8H132.915V61.3H134.295V61.96ZM136.357 66H135.477V58.9H136.357V61.9C136.577 61.7067 136.82 61.5467 137.087 61.42C137.354 61.2933 137.647 61.23 137.967 61.23C138.227 61.23 138.454 61.27 138.647 61.35C138.84 61.4233 138.997 61.53 139.117 61.67C139.244 61.8033 139.337 61.9633 139.397 62.15C139.464 62.3367 139.497 62.54 139.497 62.76V66H138.617V62.98C138.617 62.62 138.544 62.36 138.397 62.2C138.25 62.0333 138.027 61.95 137.727 61.95C137.5 61.95 137.27 62.0067 137.037 62.12C136.81 62.2333 136.584 62.3933 136.357 62.6V66ZM143.988 58.9H144.868V66H144.128L144.018 65.48H143.988C143.781 65.6933 143.571 65.85 143.358 65.95C143.151 66.0433 142.888 66.09 142.568 66.09C142.314 66.09 142.068 66.04 141.828 65.94C141.594 65.84 141.384 65.69 141.198 65.49C141.011 65.29 140.861 65.04 140.748 64.74C140.634 64.4333 140.578 64.0733 140.578 63.66C140.578 63.2933 140.624 62.96 140.718 62.66C140.818 62.36 140.958 62.1033 141.138 61.89C141.318 61.6767 141.538 61.5133 141.798 61.4C142.058 61.2867 142.354 61.23 142.688 61.23C142.934 61.23 143.168 61.27 143.388 61.35C143.614 61.4233 143.814 61.5367 143.988 61.69V58.9ZM143.988 62.43C143.674 62.0767 143.304 61.9 142.878 61.9C142.698 61.9 142.521 61.9333 142.348 62C142.181 62.06 142.031 62.16 141.898 62.3C141.771 62.44 141.668 62.62 141.588 62.84C141.508 63.06 141.468 63.3233 141.468 63.63C141.468 63.95 141.504 64.2233 141.578 64.45C141.651 64.67 141.748 64.8533 141.868 65C141.994 65.14 142.134 65.2433 142.288 65.31C142.448 65.3767 142.608 65.41 142.768 65.41C143.268 65.41 143.674 65.1933 143.988 64.76V62.43ZM146.279 61.72C146.439 61.64 146.589 61.57 146.729 61.51C146.869 61.4433 147.009 61.39 147.149 61.35C147.289 61.31 147.432 61.28 147.579 61.26C147.725 61.24 147.885 61.23 148.059 61.23C148.319 61.23 148.555 61.26 148.769 61.32C148.989 61.3733 149.175 61.4667 149.329 61.6C149.489 61.7333 149.612 61.91 149.699 62.13C149.785 62.3433 149.829 62.6133 149.829 62.94V66H149.099L148.989 65.48H148.969C148.762 65.7 148.535 65.8567 148.289 65.95C148.042 66.0433 147.769 66.09 147.469 66.09C147.242 66.09 147.032 66.06 146.839 66C146.652 65.9333 146.489 65.8433 146.349 65.73C146.209 65.61 146.099 65.4667 146.019 65.3C145.945 65.1333 145.909 64.9467 145.909 64.74C145.909 64.2467 146.102 63.8733 146.489 63.62C146.882 63.36 147.399 63.23 148.039 63.23H148.939V62.83C148.939 62.49 148.852 62.26 148.679 62.14C148.505 62.0133 148.272 61.95 147.979 61.95C147.805 61.95 147.605 61.98 147.379 62.04C147.159 62.0933 146.905 62.2 146.619 62.36L146.279 61.72ZM148.949 63.83L148.209 63.85C147.709 63.8633 147.352 63.9533 147.139 64.12C146.932 64.28 146.829 64.4767 146.829 64.71C146.829 64.85 146.852 64.97 146.899 65.07C146.945 65.1633 147.005 65.2367 147.079 65.29C147.159 65.3433 147.249 65.3833 147.349 65.41C147.455 65.43 147.565 65.44 147.679 65.44C147.899 65.44 148.122 65.39 148.349 65.29C148.575 65.1833 148.775 65.0167 148.949 64.79V63.83ZM150.512 61.3H151.452L152.452 63.99L152.792 65.11H152.812L153.152 63.99L154.062 61.3H154.962L153.152 66.4C152.952 66.9667 152.699 67.41 152.392 67.73C152.092 68.05 151.732 68.2833 151.312 68.43L150.932 67.73C151.245 67.61 151.522 67.4367 151.762 67.21C152.009 66.9833 152.199 66.67 152.332 66.27L152.422 66L150.512 61.3ZM157.358 61.3H158.298L159.098 64.26L159.278 65.31H159.318L159.538 64.26L160.348 61.3H161.298L162.128 64.26L162.338 65.31H162.378L162.598 64.26L163.378 61.3H164.278L162.848 66H161.848L161.048 63.12L160.818 61.96L160.578 63.12L159.758 66H158.808L157.358 61.3ZM165.187 66V61.3H166.067V66H165.187ZM165.627 60.09C165.474 60.09 165.341 60.04 165.227 59.94C165.121 59.8333 165.067 59.7033 165.067 59.55C165.067 59.3967 165.121 59.2667 165.227 59.16C165.341 59.0533 165.474 59 165.627 59C165.774 59 165.904 59.0533 166.017 59.16C166.131 59.2667 166.187 59.3967 166.187 59.55C166.187 59.7033 166.131 59.8333 166.017 59.94C165.904 60.04 165.774 60.09 165.627 60.09ZM170.148 62.18C169.928 62.0733 169.728 62 169.548 61.96C169.368 61.92 169.188 61.9 169.008 61.9C168.688 61.9 168.451 61.96 168.298 62.08C168.145 62.1933 168.068 62.3467 168.068 62.54C168.068 62.68 168.121 62.8033 168.228 62.91C168.335 63.01 168.558 63.11 168.898 63.21L169.198 63.3C169.645 63.4333 169.981 63.6067 170.208 63.82C170.441 64.0267 170.558 64.31 170.558 64.67C170.558 65.0967 170.398 65.44 170.078 65.7C169.765 65.96 169.325 66.09 168.758 66.09C168.458 66.09 168.168 66.0633 167.888 66.01C167.615 65.9567 167.378 65.8833 167.178 65.79L167.388 65.1C167.581 65.1933 167.791 65.27 168.018 65.33C168.245 65.3833 168.475 65.41 168.708 65.41C169.008 65.41 169.245 65.3567 169.418 65.25C169.598 65.1433 169.688 64.9667 169.688 64.72C169.688 64.5067 169.611 64.3567 169.458 64.27C169.305 64.1767 169.085 64.0867 168.798 64L168.488 63.9C168.055 63.76 167.731 63.5867 167.518 63.38C167.311 63.1667 167.208 62.8933 167.208 62.56C167.208 62.36 167.251 62.1767 167.338 62.01C167.425 61.8433 167.541 61.7033 167.688 61.59C167.841 61.4767 168.021 61.39 168.228 61.33C168.435 61.2633 168.661 61.23 168.908 61.23C169.141 61.23 169.381 61.2533 169.628 61.3C169.881 61.34 170.121 61.41 170.348 61.51L170.148 62.18ZM172.47 66H171.59V58.9H172.47V61.9C172.69 61.7067 172.934 61.5467 173.2 61.42C173.467 61.2933 173.76 61.23 174.08 61.23C174.34 61.23 174.567 61.27 174.76 61.35C174.954 61.4233 175.11 61.53 175.23 61.67C175.357 61.8033 175.45 61.9633 175.51 62.15C175.577 62.3367 175.61 62.54 175.61 62.76V66H174.73V62.98C174.73 62.62 174.657 62.36 174.51 62.2C174.364 62.0333 174.14 61.95 173.84 61.95C173.614 61.95 173.384 62.0067 173.15 62.12C172.924 62.2333 172.697 62.3933 172.47 62.6V66ZM177.021 66V58.9H177.881V66H177.021ZM179.425 66V61.3H180.305V66H179.425ZM179.865 60.09C179.712 60.09 179.579 60.04 179.465 59.94C179.359 59.8333 179.305 59.7033 179.305 59.55C179.305 59.3967 179.359 59.2667 179.465 59.16C179.579 59.0533 179.712 59 179.865 59C180.012 59 180.142 59.0533 180.255 59.16C180.369 59.2667 180.425 59.3967 180.425 59.55C180.425 59.7033 180.369 59.8333 180.255 59.94C180.142 60.04 180.012 60.09 179.865 60.09ZM184.386 62.18C184.166 62.0733 183.966 62 183.786 61.96C183.606 61.92 183.426 61.9 183.246 61.9C182.926 61.9 182.69 61.96 182.536 62.08C182.383 62.1933 182.306 62.3467 182.306 62.54C182.306 62.68 182.36 62.8033 182.466 62.91C182.573 63.01 182.796 63.11 183.136 63.21L183.436 63.3C183.883 63.4333 184.22 63.6067 184.446 63.82C184.68 64.0267 184.796 64.31 184.796 64.67C184.796 65.0967 184.636 65.44 184.316 65.7C184.003 65.96 183.563 66.09 182.996 66.09C182.696 66.09 182.406 66.0633 182.126 66.01C181.853 65.9567 181.616 65.8833 181.416 65.79L181.626 65.1C181.82 65.1933 182.03 65.27 182.256 65.33C182.483 65.3833 182.713 65.41 182.946 65.41C183.246 65.41 183.483 65.3567 183.656 65.25C183.836 65.1433 183.926 64.9667 183.926 64.72C183.926 64.5067 183.85 64.3567 183.696 64.27C183.543 64.1767 183.323 64.0867 183.036 64L182.726 63.9C182.293 63.76 181.97 63.5867 181.756 63.38C181.55 63.1667 181.446 62.8933 181.446 62.56C181.446 62.36 181.49 62.1767 181.576 62.01C181.663 61.8433 181.78 61.7033 181.926 61.59C182.08 61.4767 182.26 61.39 182.466 61.33C182.673 61.2633 182.9 61.23 183.146 61.23C183.38 61.23 183.62 61.2533 183.866 61.3C184.12 61.34 184.36 61.41 184.586 61.51L184.386 62.18ZM188.289 61.96H186.909V64.69C186.909 64.9233 186.965 65.08 187.079 65.16C187.199 65.24 187.352 65.28 187.539 65.28C187.672 65.28 187.819 65.2667 187.979 65.24C188.139 65.2067 188.279 65.17 188.399 65.13L188.539 65.8C188.405 65.8533 188.235 65.9 188.029 65.94C187.822 65.98 187.605 66 187.379 66C186.912 66 186.572 65.9 186.359 65.7C186.145 65.4933 186.039 65.1967 186.039 64.81V61.96H185.339V61.3H186.039V59.8H186.909V61.3H188.289V61.96ZM190.998 66.7H200.998V56.7H190.998V66.7Z" fill="#4C515B"/>
</g>
<defs>
<filter id="filter0_d_1391_45926" x="0.1" y="0.1" width="253.8" height="99.8" filterUnits="userSpaceOnUse" color-interpolation-filters="sRGB">
<feFlood flood-opacity="0" result="BackgroundImageFix"/>
<feColorMatrix in="SourceAlpha" type="matrix" values="0 0 0 0 0 0 0 0 0 0 0 0 0 0 0 0 0 0 127 0" result="hardAlpha"/>
<feMorphology radius="2" operator="dilate" in="SourceAlpha" result="effect1_dropShadow_1391_45926"/>
<feOffset dx="1" dy="4"/>
<feGaussianBlur stdDeviation="7.45"/>
<feComposite in2="hardAlpha" operator="out"/>
<feColorMatrix type="matrix" values="0 0 0 0 0.150417 0 0 0 0 0.149583 0 0 0 0 0.149583 0 0 0 0.25 0"/>
<feBlend mode="normal" in2="BackgroundImageFix" result="effect1_dropShadow_1391_45926"/>
<feBlend mode="normal" in="SourceGraphic" in2="effect1_dropShadow_1391_45926" result="shape"/>
</filter>
<clipPath id="clip0_1391_45926">
<rect x="24" y="21" width="36" height="36" rx="18" fill="white"/>
</clipPath>
<clipPath id="clip1_1391_45926">
<rect width="21" height="20.8046" fill="white" transform="translate(32 27)"/>
</clipPath>
</defs>
</svg>
