<svg width="167" height="74" viewBox="0 0 167 74" fill="none" xmlns="http://www.w3.org/2000/svg">
<rect x="3.5293" width="163" height="65" rx="32.5" transform="rotate(3.11224 3.5293 0)" fill="#FE2C55"/>
<path d="M49.0207 24.6062L48.8937 26.9427L42.9924 26.6218L42.0933 43.1574L39.3374 43.0076L40.2365 26.472L34.455 26.1576L34.5821 23.8211L49.0207 24.6062ZM55.6403 24.9661L54.6141 43.8382L51.8582 43.6884L52.8843 24.8162L55.6403 24.9661ZM60.5746 44.1623L61.6008 25.2902L64.3567 25.44L63.8925 33.9774L72.295 25.8716L75.7099 26.0573L67.467 33.9915L75.2829 44.962L71.808 44.7731L65.3873 35.7712L63.7068 37.3924L63.3306 44.3121L60.5746 44.1623ZM92.4004 26.9648L92.2734 29.3014L86.3721 28.9805L85.473 45.5161L82.7171 45.3662L83.6162 28.8307L77.8347 28.5163L77.9617 26.1798L92.4004 26.9648ZM103.632 27.3051C104.91 27.3746 106.077 27.6483 107.132 28.1264C108.189 28.5844 109.085 29.244 109.819 30.1051C110.574 30.9474 111.139 31.9896 111.512 33.2317C111.886 34.4538 112.029 35.8736 111.941 37.4912C111.855 39.0689 111.55 40.4544 111.024 41.6476C110.5 42.8208 109.816 43.7952 108.972 44.5705C108.129 45.3459 107.147 45.9134 106.026 46.273C104.924 46.6338 103.735 46.7794 102.457 46.7099C101.178 46.6404 100.011 46.3766 98.9544 45.9186C97.8988 45.4406 96.9933 44.7804 96.2379 43.9382C95.5036 43.0771 94.9493 42.0354 94.5751 40.8133C94.202 39.5712 94.0594 38.1414 94.1474 36.5238C94.2332 34.9461 94.5383 33.5706 95.0628 32.3974C95.5883 31.2041 96.2728 30.2199 97.1161 29.4445C97.9594 28.6691 98.9317 28.1011 100.033 27.7403C101.154 27.3807 102.354 27.2356 103.632 27.3051ZM97.1429 36.6866C97.0735 37.9647 97.163 39.0813 97.4115 40.0362C97.68 40.9921 98.067 41.7943 98.5725 42.4427C99.0781 43.0911 99.6822 43.5847 100.385 43.9233C101.107 44.2631 101.878 44.4552 102.697 44.4997C103.516 44.5442 104.283 44.4357 104.998 44.1741C105.733 43.9137 106.377 43.488 106.93 42.8972C107.503 42.3074 107.965 41.5514 108.315 40.629C108.666 39.7067 108.876 38.6065 108.946 37.3284C109.017 36.0103 108.919 34.8733 108.65 33.9173C108.402 32.9624 108.024 32.1707 107.518 31.5423C107.012 30.8939 106.397 30.4098 105.674 30.0901C104.971 29.7514 104.21 29.5598 103.392 29.5153C102.573 29.4708 101.796 29.5788 101.06 29.8392C100.325 30.0997 99.6812 30.5254 99.1283 31.1162C98.5754 31.7071 98.1237 32.4637 97.7731 33.386C97.4225 34.3083 97.2124 35.4085 97.1429 36.6866ZM116.387 47.1969L117.413 28.3248L120.169 28.4747L119.705 37.0121L128.107 28.9063L131.522 29.092L123.279 37.0261L131.095 47.9967L127.621 47.8077L121.2 38.8059L119.519 40.427L119.143 47.3468L116.387 47.1969Z" fill="white"/>
</svg>
