<svg width="191" height="95" viewBox="0 0 191 95" fill="none" xmlns="http://www.w3.org/2000/svg">
<rect y="30.2668" width="182" height="65" rx="32.5" transform="rotate(-9.57285 0 30.2668)" fill="#121212"/>
<path d="M49.7845 44.2828L50.1736 46.5902L44.3459 47.5731L47.0999 63.9025L44.3783 64.3615L41.6244 48.0321L35.915 48.9949L35.5258 46.6875L49.7845 44.2828ZM54.684 43.4565L59.7003 53.8977C59.8191 54.121 59.9495 54.4134 60.0916 54.7748C60.2501 55.1132 60.4135 55.4811 60.582 55.8786C60.7471 56.2564 60.9041 56.6458 61.0528 57.0466C61.1982 57.4277 61.3206 57.7925 61.4199 58.1408L61.479 58.1308C61.4783 57.7659 61.4842 57.3795 61.4965 56.9718C61.5253 56.541 61.5557 56.1201 61.5878 55.709C61.6166 55.2782 61.6404 54.8787 61.6595 54.5104C61.6982 54.1388 61.7354 53.8181 61.771 53.5484L63.1742 42.0246L65.5999 41.6155L70.8232 52.0218C70.9453 52.2649 71.0758 52.5573 71.2145 52.8989C71.373 53.2373 71.5249 53.597 71.6704 53.9782C71.8355 54.356 71.9924 54.7453 72.1411 55.1461C72.3096 55.5436 72.4533 55.9149 72.5724 56.2599L72.6315 56.2499C72.6275 55.8653 72.63 55.4592 72.6391 55.0317C72.6678 54.601 72.6982 54.18 72.7303 53.769C72.7591 53.3382 72.7846 52.9485 72.807 52.5999C72.8457 52.2283 72.8747 51.9192 72.894 51.6726L74.09 40.1837L76.8411 39.7197L74.5115 59.2795L71.7604 59.7435L67.2492 50.3124C67.028 49.8426 66.8117 49.4024 66.6005 48.9918C66.409 48.5779 66.2208 48.1837 66.036 47.8093C65.8709 47.4315 65.6959 47.0553 65.511 46.6808C65.3426 46.2833 65.1609 45.8677 64.9661 45.4341L64.9069 45.4441C64.8594 46.3648 64.7921 47.2889 64.7051 48.2162C64.6182 49.1436 64.5294 50.0003 64.4388 50.7863L63.359 61.1604L60.6375 61.6193L51.9033 43.9255L54.684 43.4565ZM83.3603 38.6202L86.5034 57.2571L83.7819 57.716L80.6388 39.0792L83.3603 38.6202ZM101.434 35.572L101.824 37.8795L95.9958 38.8623L98.7498 55.1917L96.0282 55.6507L93.2743 39.3213L87.5649 40.2842L87.1758 37.9768L101.434 35.572ZM118.015 32.7756L118.405 35.0831L112.577 36.0659L115.331 52.3953L112.609 52.8543L109.855 36.5249L104.146 37.4878L103.757 35.1804L118.015 32.7756ZM121.831 32.1322L133.072 30.2363L133.451 32.4846L124.932 33.9214L125.875 39.5125L133.625 38.2054L133.999 40.424L126.249 41.7311L127.316 48.0617L135.925 46.6099L136.304 48.8582L124.974 50.769L121.831 32.1322ZM137.834 29.4332L143.899 28.4105C144.865 28.2475 145.736 28.2425 146.512 28.3956C147.308 28.5453 147.995 28.8251 148.571 29.235C149.147 29.6448 149.621 30.1733 149.994 30.8203C150.364 31.4476 150.617 32.1655 150.753 32.9741C150.873 33.6841 150.872 34.3433 150.752 34.9518C150.631 35.5604 150.43 36.1115 150.148 36.6052C149.863 37.0792 149.511 37.5139 149.091 37.9093C148.687 38.2816 148.265 38.6063 147.825 38.8833L154.053 45.8649L151.006 46.3788L145.366 39.8153L142.319 40.3292L143.551 47.636L140.977 48.07L137.834 29.4332ZM141.944 38.1105L144.193 37.7313C144.804 37.6282 145.356 37.4743 145.849 37.2695C146.358 37.0416 146.779 36.7679 147.11 36.4483C147.458 36.1057 147.704 35.6992 147.847 35.2287C148.011 34.7549 148.041 34.2123 147.938 33.601C147.735 32.398 147.25 31.567 146.483 31.1082C145.736 30.646 144.731 30.5214 143.469 30.7343L140.777 31.1883L141.944 38.1105Z" fill="white"/>
</svg>
