<svg width="231" height="101" viewBox="0 0 231 101" fill="none" xmlns="http://www.w3.org/2000/svg">
<rect y="36.8528" width="223" height="65" rx="32.5" transform="rotate(-9.51232 0 36.8528)" fill="#7638FA"/>
<path d="M40.3016 52.5079L43.425 71.148L40.7029 71.6041L37.5795 52.964L40.3016 52.5079ZM46.1888 51.5214L48.5558 51.1248L59.0256 61.5073C59.4139 61.8884 59.794 62.281 60.1659 62.6851C60.5378 63.0892 60.8784 63.4883 61.1878 63.8826L61.247 63.8727C61.0919 63.189 60.9466 62.5035 60.8112 61.8165C60.6758 61.1294 60.5503 60.4407 60.4346 59.7503L58.7043 49.4243L61.3672 48.9781L64.4906 67.6182L62.1236 68.0148L51.7674 57.7653C51.4021 57.4007 51.0187 56.9884 50.6171 56.5284C50.2123 56.0487 49.8288 55.5756 49.4668 55.109L49.4076 55.1189C49.5859 55.9408 49.7543 56.7643 49.9128 57.5894C50.0713 58.4146 50.22 59.2414 50.3588 60.0698L51.9751 69.7153L49.3122 70.1615L46.1888 51.5214ZM72.4438 46.8483C73.3511 46.6962 74.2421 46.628 75.1167 46.6437C75.988 46.6397 76.871 46.7655 77.7655 47.0212L77.4914 49.3789C76.5771 49.1265 75.7616 48.9793 75.0447 48.9371C74.3443 48.872 73.6391 48.8989 72.929 49.0179C71.8047 49.2063 70.9584 49.6016 70.3901 50.2038C69.8218 50.806 69.612 51.5509 69.7607 52.4385C69.8863 53.1881 70.2238 53.75 70.7733 54.1244C71.3424 54.4954 72.2074 54.7561 73.3682 54.9063L75.3313 55.1857C77.1169 55.434 78.4326 55.9639 79.2783 56.7753C80.1404 57.5637 80.6673 58.5299 80.859 59.6739C80.9946 60.4826 80.9508 61.2504 80.7279 61.9773C80.5214 62.6811 80.1619 63.3192 79.6495 63.8918C79.1535 64.4413 78.5324 64.9104 77.7864 65.299C77.0371 65.6679 76.189 65.9317 75.2422 66.0904C74.2954 66.249 73.314 66.3222 72.298 66.3099C71.305 66.3141 70.2873 66.1703 69.2447 65.8786L69.5238 63.5505C70.4414 63.8226 71.3211 63.9895 72.1629 64.0512C73.0046 64.113 73.8693 64.0695 74.757 63.9207C75.8221 63.7422 76.6882 63.3436 77.3551 62.7249C78.022 62.1062 78.2745 61.3136 78.1125 60.3471C78.053 59.992 77.9393 59.6765 77.7714 59.4004C77.6199 59.1013 77.3829 58.8369 77.0605 58.607C76.7578 58.3738 76.3598 58.1769 75.8664 58.0162C75.3731 57.8555 74.7631 57.7245 74.0363 57.6232L72.0732 57.3438C70.6394 57.1379 69.4948 56.7214 68.6394 56.0941C67.784 55.4668 67.2489 54.5121 67.034 53.23C66.7597 51.5928 67.0758 50.2116 67.9823 49.0863C68.9052 47.938 70.3924 47.192 72.4438 46.8483ZM95.1298 43.3207L95.5165 45.6285L89.6877 46.6052L92.4244 62.9375L89.7024 63.3936L86.9657 47.0613L81.2553 48.0182L80.8686 45.7103L95.1298 43.3207ZM102.073 42.1573L104.499 41.7507L115.049 59.1464L112.209 59.6224L109.299 54.7867L101.636 56.0707L100.492 61.5857L97.6811 62.0567L102.073 42.1573ZM102.014 53.7869L108.139 52.7606L106.356 49.7438C105.878 48.9518 105.435 48.1845 105.027 47.4418C104.618 46.699 104.207 45.9366 103.792 45.1544L103.733 45.1643C103.595 46.039 103.443 46.8858 103.276 47.7047C103.109 48.5235 102.932 49.4049 102.746 50.3487L102.014 53.7869ZM123.16 38.3501C124.244 38.1684 125.234 38.0837 126.128 38.096C127.042 38.1051 127.907 38.2441 128.723 38.513L128.429 40.7524C127.643 40.5393 126.882 40.4134 126.145 40.3746C125.428 40.3325 124.666 40.3792 123.857 40.5147C122.989 40.6601 122.182 40.9271 121.436 41.3158C120.69 41.7044 120.061 42.2458 119.548 42.94C119.052 43.6112 118.706 44.4499 118.51 45.4562C118.31 46.4428 118.326 47.6265 118.557 49.0072C118.957 51.3939 119.804 53.1178 121.097 54.1786C122.39 55.2395 124.023 55.6047 125.995 55.2742C126.745 55.1486 127.379 55.0017 127.899 54.8336C128.438 54.6621 128.947 54.4348 129.427 54.1516L128.559 48.9738L125.039 49.5638L124.682 47.4335L130.747 46.4172L132.254 55.4118C131.518 55.8596 130.685 56.2729 129.755 56.6519C128.821 57.0111 127.694 57.3014 126.372 57.5228C125.09 57.7377 123.852 57.7322 122.658 57.5064C121.484 57.2772 120.415 56.8277 119.451 56.1578C118.487 55.4879 117.67 54.6009 116.998 53.4967C116.326 52.3925 115.86 51.0613 115.599 49.503C115.338 47.9447 115.333 46.526 115.585 45.2467C115.857 43.9642 116.329 42.8508 117.003 41.9065C117.676 40.9623 118.54 40.1889 119.595 39.5863C120.65 38.9836 121.838 38.5716 123.16 38.3501ZM134.541 36.7168L140.606 35.7004C141.573 35.5385 142.444 35.5344 143.22 35.6883C144.016 35.8388 144.702 36.1194 145.278 36.5299C145.854 36.9404 146.327 37.4693 146.7 38.1167C147.068 38.7444 147.321 39.4626 147.456 40.2713C147.575 40.9814 147.574 41.6407 147.453 42.2491C147.332 42.8574 147.13 43.4084 146.848 43.9018C146.562 44.3755 146.209 44.8098 145.788 45.2048C145.384 45.5767 144.962 45.9009 144.522 46.1775L150.742 53.1656L147.695 53.6762L142.061 47.1068L139.014 47.6175L140.239 54.9256L137.664 55.3569L134.541 36.7168ZM138.642 45.3984L140.891 45.0216C141.502 44.9192 142.054 44.7658 142.548 44.5615C143.057 44.3342 143.478 44.0609 143.809 43.7417C144.158 43.3994 144.404 42.9932 144.548 42.5229C144.712 42.0492 144.743 41.5067 144.64 40.8952C144.439 39.692 143.955 38.8606 143.188 38.4009C142.441 37.938 141.437 37.8122 140.174 38.0238L137.482 38.4749L138.642 45.3984ZM156.824 32.983L159.25 32.5765L169.8 49.9722L166.959 50.4482L164.05 45.6124L156.387 46.8965L155.243 52.4114L152.432 52.8824L156.824 32.983ZM156.765 44.6127L162.889 43.5864L161.106 40.5696C160.629 39.7776 160.186 39.0103 159.778 38.2675C159.369 37.5248 158.958 36.7623 158.543 35.9802L158.483 35.9901C158.346 36.8648 158.194 37.7116 158.027 38.5304C157.86 39.3493 157.683 40.2306 157.497 41.1744L156.765 44.6127ZM171.346 30.5495L174.897 29.9546L180.796 41.1943C181.089 41.7333 181.37 42.2641 181.64 42.7866C181.907 43.2895 182.166 43.8038 182.416 44.3297L182.475 44.3197C182.54 43.741 182.609 43.182 182.681 42.6427C182.772 42.1001 182.874 41.495 182.985 40.8275L184.809 28.2937L188.359 27.6988L193.11 46.0663L190.388 46.5224L187.963 36.769C187.722 35.8157 187.502 34.869 187.304 33.9288C187.103 32.9689 186.9 31.9991 186.695 31.0195L186.636 31.0294C186.522 32.0422 186.398 33.0566 186.264 34.0727C186.15 35.0855 186.016 36.1016 185.862 37.121L184.234 47.5536L181.748 47.97L176.803 38.6085C176.299 37.6588 175.833 36.7533 175.405 35.8922C174.974 35.0114 174.536 34.0912 174.091 33.1315L174.032 33.1414C174.154 34.1145 174.257 35.091 174.34 36.0707C174.443 37.0472 174.536 38.0253 174.619 39.005L175.565 49.0062L172.902 49.4524L171.346 30.5495Z" fill="white"/>
</svg>
