<svg width="151" height="321" viewBox="0 0 151 321" fill="none" xmlns="http://www.w3.org/2000/svg">
<path d="M-12.2895 1.39532C-10.5335 0.516986 -8.46646 0.516987 -6.71054 1.39533L37.3304 23.4252L86.4978 30.2115C88.5026 30.4883 90.2484 31.7208 91.1803 33.5173L113.103 75.7831L148.496 108.582C150.056 110.028 150.771 112.17 150.393 114.263L142.046 160.5L150.393 206.737C150.771 208.83 150.056 210.972 148.496 212.418L113.103 245.217L91.1803 287.483C90.2484 289.279 88.5026 290.512 86.4978 290.788L37.3304 297.575L-6.71054 319.605C-8.46646 320.483 -10.5335 320.483 -12.2895 319.605L-56.3303 297.575L-105.498 290.788C-107.503 290.512 -109.248 289.279 -110.18 287.483L-132.103 245.217L-167.496 212.418C-169.056 210.972 -169.771 208.83 -169.393 206.737L-161.046 160.5L-169.393 114.263C-169.771 112.17 -169.056 110.028 -167.496 108.582L-132.103 75.7831L-110.18 33.5173C-109.248 31.7208 -107.503 30.4883 -105.498 30.2115L-56.3303 23.4252L-12.2895 1.39532Z" fill="url(#paint0_linear_1391_45059)"/>
<defs>
<linearGradient id="paint0_linear_1391_45059" x1="-9.5" y1="0" x2="-9.5" y2="321" gradientUnits="userSpaceOnUse">
<stop stop-color="#7238B0"/>
<stop offset="1" stop-color="#A367E3"/>
</linearGradient>
</defs>
</svg>
