<svg width="221" height="268" viewBox="0 0 221 268" fill="none" xmlns="http://www.w3.org/2000/svg">
<g style="mix-blend-mode:screen">
<g style="mix-blend-mode:screen">
<path style="mix-blend-mode:screen" d="M214.595 264.945C214.595 263.259 215.877 261.888 217.457 261.888C219.037 261.888 220.319 263.259 220.319 264.945C220.319 266.632 219.037 268 217.457 268C215.877 268 214.595 266.632 214.595 264.945Z" fill="url(#paint0_radial_0_8)"/>
</g>
<g style="mix-blend-mode:screen">
<path style="mix-blend-mode:screen" d="M192.606 201.677C192.606 201.208 192.961 200.829 193.397 200.829C193.836 200.829 194.191 201.208 194.191 201.677C194.191 202.142 193.836 202.521 193.397 202.521C192.961 202.521 192.606 202.142 192.606 201.677Z" fill="url(#paint1_radial_0_8)"/>
</g>
<g style="mix-blend-mode:screen">
<path style="mix-blend-mode:screen" d="M198.427 155.153C198.427 153.087 199.997 151.409 201.935 151.409C203.871 151.409 205.443 153.087 205.443 155.153C205.443 157.222 203.871 158.897 201.935 158.897C199.997 158.897 198.427 157.222 198.427 155.153Z" fill="url(#paint2_radial_0_8)"/>
</g>
<g style="mix-blend-mode:screen">
<path style="mix-blend-mode:screen" d="M203.013 145.188C203.013 144.105 203.837 143.226 204.852 143.226C205.867 143.226 206.69 144.105 206.69 145.188C206.69 146.271 205.867 147.151 204.852 147.151C203.837 147.151 203.013 146.271 203.013 145.188Z" fill="url(#paint3_radial_0_8)"/>
</g>
<g style="mix-blend-mode:screen">
<path style="mix-blend-mode:screen" d="M142.051 101.232C142.051 100.763 142.406 100.381 142.845 100.381C143.287 100.381 143.642 100.763 143.642 101.232C143.642 101.7 143.287 102.082 142.845 102.082C142.406 102.082 142.051 101.7 142.051 101.232Z" fill="url(#paint4_radial_0_8)"/>
</g>
<g style="mix-blend-mode:screen">
<path style="mix-blend-mode:screen" d="M185.408 25.0465C185.408 23.0063 186.959 21.3512 188.87 21.3512C190.785 21.3512 192.333 23.0063 192.333 25.0465C192.333 27.0895 190.785 28.7446 188.87 28.7446C186.959 28.7446 185.408 27.0895 185.408 25.0465Z" fill="url(#paint5_radial_0_8)"/>
</g>
<g style="mix-blend-mode:screen">
<path style="mix-blend-mode:screen" d="M117.545 1.34768C117.545 0.603447 118.111 3.25916e-05 118.808 3.25916e-05C119.508 3.25916e-05 120.073 0.603447 120.073 1.34768C120.073 2.09478 119.508 2.69824 118.808 2.69824C118.111 2.69824 117.545 2.09478 117.545 1.34768Z" fill="url(#paint6_radial_0_8)"/>
</g>
<g style="mix-blend-mode:screen">
<path style="mix-blend-mode:screen" d="M0 41.5909C0 40.5911 0.758777 39.7813 1.6955 39.7813C2.6308 39.7813 3.38958 40.5911 3.38958 41.5909C3.38958 42.5891 2.6308 43.399 1.6955 43.399C0.758777 43.399 0 42.5891 0 41.5909Z" fill="url(#paint7_radial_0_8)"/>
</g>
</g>
<defs>
<radialGradient id="paint0_radial_0_8" cx="0" cy="0" r="1" gradientUnits="userSpaceOnUse" gradientTransform="translate(217.456 264.944) rotate(-90) scale(3.05481 2.86215)">
<stop stop-color="#F3F4F6"/>
<stop offset="1"/>
</radialGradient>
<radialGradient id="paint1_radial_0_8" cx="0" cy="0" r="1" gradientUnits="userSpaceOnUse" gradientTransform="translate(193.398 201.675) rotate(-90) scale(0.846529 0.793143)">
<stop stop-color="#F3F4F6"/>
<stop offset="1"/>
</radialGradient>
<radialGradient id="paint2_radial_0_8" cx="0" cy="0" r="1" gradientUnits="userSpaceOnUse" gradientTransform="translate(201.935 155.154) rotate(-90) scale(3.74416 3.50802)">
<stop stop-color="#F3F4F6"/>
<stop offset="1"/>
</radialGradient>
<radialGradient id="paint3_radial_0_8" cx="0" cy="0" r="1" gradientUnits="userSpaceOnUse" gradientTransform="translate(204.851 145.188) rotate(-90) scale(1.96231 1.83855)">
<stop stop-color="#F3F4F6"/>
<stop offset="1"/>
</radialGradient>
<radialGradient id="paint4_radial_0_8" cx="0" cy="0" r="1" gradientUnits="userSpaceOnUse" gradientTransform="translate(142.846 101.232) rotate(-90) scale(0.849983 0.796369)">
<stop stop-color="#F3F4F6"/>
<stop offset="1"/>
</radialGradient>
<radialGradient id="paint5_radial_0_8" cx="0" cy="0" r="1" gradientUnits="userSpaceOnUse" gradientTransform="translate(188.871 25.0479) rotate(-90) scale(3.69616 3.46306)">
<stop stop-color="#F3F4F6"/>
<stop offset="1"/>
</radialGradient>
<radialGradient id="paint6_radial_0_8" cx="0" cy="0" r="1" gradientUnits="userSpaceOnUse" gradientTransform="translate(118.809 1.34885) rotate(-90) scale(1.34939 1.26429)">
<stop stop-color="#F3F4F6"/>
<stop offset="1"/>
</radialGradient>
<radialGradient id="paint7_radial_0_8" cx="0" cy="0" r="1" gradientUnits="userSpaceOnUse" gradientTransform="translate(1.69508 41.5903) rotate(-90) scale(1.80917 1.69508)">
<stop stop-color="#F3F4F6"/>
<stop offset="1"/>
</radialGradient>
</defs>
</svg>
