<svg width="20" height="18" viewBox="0 0 20 18" fill="none" xmlns="http://www.w3.org/2000/svg">
<path d="M0.399414 10.2001C0.399414 9.88184 0.525842 9.57661 0.750886 9.35157C0.975929 9.12653 1.28115 9.0001 1.59941 9.0001H3.99941C4.31767 9.0001 4.6229 9.12653 4.84794 9.35157C5.07299 9.57661 5.19941 9.88184 5.19941 10.2001V16.2001C5.19941 16.5184 5.07299 16.8236 4.84794 17.0486C4.6229 17.2737 4.31767 17.4001 3.99941 17.4001H1.59941C1.28115 17.4001 0.975929 17.2737 0.750886 17.0486C0.525842 16.8236 0.399414 16.5184 0.399414 16.2001V10.2001ZM7.59941 5.4001C7.59941 5.08184 7.72584 4.77661 7.95089 4.55157C8.17593 4.32653 8.48115 4.2001 8.79941 4.2001H11.1994C11.5177 4.2001 11.8229 4.32653 12.0479 4.55157C12.273 4.77661 12.3994 5.08184 12.3994 5.4001V16.2001C12.3994 16.5184 12.273 16.8236 12.0479 17.0486C11.8229 17.2737 11.5177 17.4001 11.1994 17.4001H8.79941C8.48115 17.4001 8.17593 17.2737 7.95089 17.0486C7.72584 16.8236 7.59941 16.5184 7.59941 16.2001V5.4001ZM14.7994 1.8001C14.7994 1.48184 14.9258 1.17661 15.1509 0.95157C15.3759 0.726526 15.6812 0.600098 15.9994 0.600098H18.3994C18.7177 0.600098 19.0229 0.726526 19.2479 0.95157C19.473 1.17661 19.5994 1.48184 19.5994 1.8001V16.2001C19.5994 16.5184 19.473 16.8236 19.2479 17.0486C19.0229 17.2737 18.7177 17.4001 18.3994 17.4001H15.9994C15.6812 17.4001 15.3759 17.2737 15.1509 17.0486C14.9258 16.8236 14.7994 16.5184 14.7994 16.2001V1.8001Z" fill="#E567F8"/>
</svg>
