<svg width="66" height="67" viewBox="0 0 66 67" fill="none" xmlns="http://www.w3.org/2000/svg">
<path d="M8.30482 31.6397C7.5898 30.9247 7.5898 29.7697 8.30482 29.0546L22.1465 15.213C23.7782 13.5813 26.2898 13.1413 28.3798 14.1313L39.3064 19.2647C39.9848 19.5947 40.8281 19.448 41.3781 18.898L55.0915 5.18471C55.8064 4.46968 56.9798 4.46968 57.6948 5.18471C58.4099 5.89962 58.4099 7.05463 57.6948 7.76966L43.9632 21.5013C42.3315 23.133 39.8198 23.573 37.7298 22.583L26.8214 17.4497C26.1248 17.1196 25.2815 17.2663 24.7315 17.7979L10.9081 31.6397C10.5414 32.0063 10.0831 32.1713 9.60653 32.1713C9.12985 32.1713 8.67151 32.0063 8.30482 31.6397Z" fill="#D1D3D8"/>
<path d="M30.7085 36.8659V59.5993C30.7085 61.6342 29.0586 63.2659 27.0418 63.2659H23.3752C21.3585 63.2659 19.7085 61.6342 19.7085 59.5993V36.8659C19.7085 34.8493 21.3585 33.1992 23.3752 33.1992H27.0418C29.0586 33.1992 30.7085 34.8493 30.7085 36.8659Z" fill="#D1D3D8"/>
<path d="M61.875 23.9967V59.6002C61.875 61.6351 60.2251 63.2668 58.2083 63.2668H54.5417C52.525 63.2668 50.875 61.6351 50.875 59.6002V23.9967C50.875 21.9801 52.525 20.3301 54.5417 20.3301H58.2083C60.2251 20.3301 61.875 21.9801 61.875 23.9967Z" fill="#6B7280"/>
<path d="M15.125 53.2585V59.6018C15.125 61.6368 13.4751 63.2685 11.4583 63.2685H7.79167C5.77504 63.2685 4.125 61.6368 4.125 59.6018V53.2585C4.125 51.2418 5.77504 49.5918 7.79167 49.5918H11.4583C13.4751 49.5918 15.125 51.2418 15.125 53.2585Z" fill="#EAEBED"/>
<path d="M46.2915 43.2467V59.6002C46.2915 61.6351 44.6416 63.2668 42.6248 63.2668H38.9582C36.9415 63.2668 35.2915 61.6351 35.2915 59.6002V43.2467C35.2915 41.2301 36.9415 39.5801 38.9582 39.5801H42.6248C44.6416 39.5801 46.2915 41.2301 46.2915 43.2467Z" fill="#9CA1AA"/>
</svg>
