<svg width="20" height="20" viewBox="0 0 20 20" fill="none" xmlns="http://www.w3.org/2000/svg">
<g clip-path="url(#clip0_584_47200)">
<path fill-rule="evenodd" clip-rule="evenodd" d="M0.406876 2.03827C0 2.83681 0 3.88216 0 5.97285V14.0271C0 16.1178 0 17.1632 0.406876 17.9617C0.764774 18.6641 1.33586 19.2352 2.03827 19.5931C2.83681 20 3.88216 20 5.97285 20H14.0271C16.1178 20 17.1632 20 17.9617 19.5931C18.6641 19.2352 19.2352 18.6641 19.5931 17.9617C20 17.1632 20 16.1178 20 14.0271V5.97285C20 3.88216 20 2.83681 19.5931 2.03827C19.2352 1.33586 18.6641 0.764774 17.9617 0.406876C17.1632 0 16.1178 0 14.0271 0H5.97285C3.88216 0 2.83681 0 2.03827 0.406876C1.33586 0.764774 0.764774 1.33586 0.406876 2.03827ZM15.6606 5.34781C15.1968 4.88406 14.4449 4.88406 13.9812 5.34781L7.69582 11.6332L5.54151 9.47885C5.07776 9.0151 4.32587 9.0151 3.86212 9.47885C3.39837 9.9426 3.39837 10.6945 3.86212 11.1582L6.85612 14.1522C7.31987 14.616 8.07176 14.616 8.53551 14.1522L15.6606 7.0272C16.1243 6.56345 16.1243 5.81156 15.6606 5.34781Z" fill="#E567F8"/>
</g>
<defs>
<clipPath id="clip0_584_47200">
<rect width="20" height="20" fill="white"/>
</clipPath>
</defs>
</svg>
