<svg width="20" height="20" viewBox="0 0 20 20" fill="none" xmlns="http://www.w3.org/2000/svg">
<path d="M10 1.875C5.52 1.875 1.875 5.52 1.875 10C1.875 14.48 5.52 18.125 10 18.125C14.48 18.125 18.125 14.48 18.125 10C18.125 5.52 14.48 1.875 10 1.875ZM14.2283 7.27667L8.97833 13.5267C8.92089 13.5953 8.84932 13.6508 8.76851 13.6894C8.68769 13.7279 8.59952 13.7486 8.51 13.75H8.49917C8.41164 13.75 8.32509 13.7316 8.24513 13.696C8.16517 13.6604 8.09358 13.6084 8.035 13.5433L5.785 11.0433C5.68545 10.9363 5.62652 10.7978 5.61844 10.6518C5.61035 10.5058 5.65361 10.3616 5.74072 10.2442C5.82783 10.1268 5.95328 10.0436 6.09532 10.0091C6.23736 9.97451 6.38702 9.99076 6.51833 10.055C6.59333 10.0925 6.66 10.1442 6.71333 10.2067L8.4825 12.1733L13.2717 6.47333C13.3801 6.35307 13.531 6.27959 13.6926 6.26838C13.8541 6.25718 14.0137 6.30911 14.1377 6.41325C14.2618 6.51739 14.3405 6.66561 14.3574 6.82666C14.3743 6.98772 14.328 7.14905 14.2283 7.27667Z" fill="#188C43"/>
</svg>
