<svg width="36" height="36" viewBox="0 0 36 36" fill="none" xmlns="http://www.w3.org/2000/svg">
<path d="M20.3843 18.003L27.0653 11.3235C27.3707 11.0048 27.5392 10.5793 27.5348 10.1379C27.5304 9.69658 27.3534 9.2745 27.0417 8.96201C26.73 8.64953 26.3084 8.47147 25.867 8.46595C25.4257 8.46043 24.9998 8.62788 24.6803 8.93247L17.9993 15.612L11.3198 8.93247C11.1627 8.77548 10.9763 8.65096 10.771 8.56603C10.5658 8.48111 10.3459 8.43743 10.1238 8.4375C9.9017 8.43757 9.6818 8.48138 9.47664 8.56644C9.27147 8.6515 9.08507 8.77613 8.92808 8.93322C8.61101 9.25049 8.43296 9.68071 8.43311 10.1293C8.43325 10.5778 8.61156 11.0079 8.92883 11.325L15.6083 18.0045L8.92883 24.684C8.77183 24.841 8.6473 25.0273 8.56233 25.2325C8.47737 25.4376 8.43364 25.6574 8.43364 25.8795C8.43364 26.1015 8.47737 26.3213 8.56233 26.5265C8.6473 26.7316 8.77183 26.918 8.92883 27.075C9.08582 27.232 9.2722 27.3565 9.47733 27.4415C9.68245 27.5264 9.9023 27.5702 10.1243 27.5702C10.3464 27.5702 10.5662 27.5264 10.7713 27.4415C10.9765 27.3565 11.1628 27.232 11.3198 27.075L17.9993 20.394L24.6788 27.0735C24.8358 27.2305 25.0222 27.355 25.2273 27.44C25.4325 27.5249 25.6523 27.5687 25.8743 27.5687C26.0964 27.5687 26.3162 27.5249 26.5213 27.44C26.7265 27.355 26.9128 27.2305 27.0698 27.0735C27.2268 26.9165 27.3514 26.7301 27.4363 26.525C27.5213 26.3198 27.565 26.1 27.565 25.878C27.565 25.6559 27.5213 25.4361 27.4363 25.231C27.3514 25.0258 27.2268 24.8395 27.0698 24.6825L20.3843 18.003Z" fill="#3B3F46"/>
</svg>
