<svg width="16" height="16" viewBox="0 0 16 16" fill="none" xmlns="http://www.w3.org/2000/svg">
<path d="M10.3867 7.99995C10.3867 9.31995 9.32 10.3866 8 10.3866C6.68 10.3866 5.61333 9.31995 5.61333 7.99995C5.61333 6.67995 6.68 5.61328 8 5.61328C9.32 5.61328 10.3867 6.67995 10.3867 7.99995Z" stroke="#333333" stroke-linecap="round" stroke-linejoin="round"/>
<path d="M8 13.5138C10.3533 13.5138 12.5467 12.1271 14.0733 9.72714C14.6733 8.78714 14.6733 7.20714 14.0733 6.26714C12.5467 3.86714 10.3533 2.48047 8 2.48047C5.64666 2.48047 3.45333 3.86714 1.92666 6.26714C1.32666 7.20714 1.32666 8.78714 1.92666 9.72714C3.45333 12.1271 5.64666 13.5138 8 13.5138Z" stroke="#333333" stroke-linecap="round" stroke-linejoin="round"/>
</svg>
