<svg width="60" height="60" viewBox="0 0 60 60" fill="none" xmlns="http://www.w3.org/2000/svg">
<rect x="0.3" y="0.3" width="59.4" height="59.4" rx="29.7" stroke="#271E11" stroke-width="0.6"/>
<path d="M29.9938 17.1732C29.6897 17.178 29.3994 17.3014 29.1849 17.5172L23.3539 23.3483C23.2377 23.4545 23.1443 23.5831 23.0792 23.7264C23.014 23.8697 22.9786 24.0247 22.9749 24.1821C22.9713 24.3394 22.9995 24.4958 23.0579 24.642C23.1162 24.7882 23.2036 24.921 23.3146 25.0325C23.4257 25.144 23.5582 25.2319 23.7041 25.2909C23.85 25.3499 24.0064 25.3788 24.1637 25.3758C24.3211 25.3728 24.4762 25.3379 24.6198 25.2734C24.7633 25.2089 24.8923 25.1159 24.999 25.0002L28.8317 21.1675L28.8411 41.6572C28.8478 41.9621 28.9737 42.2522 29.1918 42.4655C29.4098 42.6788 29.7027 42.7983 30.0077 42.7983C30.3128 42.7983 30.6056 42.6788 30.8237 42.4655C31.0418 42.2522 31.1676 41.9621 31.1744 41.6572L31.1651 21.1448L35.0137 25.0002C35.2344 25.2117 35.5291 25.3283 35.8347 25.3252C36.1404 25.322 36.4326 25.1994 36.6489 24.9834C36.8651 24.7674 36.9883 24.4753 36.9918 24.1697C36.9954 23.864 36.8792 23.5693 36.668 23.3483L30.8369 17.5172C30.7266 17.4062 30.5952 17.3187 30.4503 17.2596C30.3055 17.2005 30.1502 17.1711 29.9938 17.1732Z" fill="#271E11"/>
</svg>
