<svg width="16" height="16" viewBox="0 0 16 16" fill="none" xmlns="http://www.w3.org/2000/svg">
<g clip-path="url(#clip0_0_53)">
<path d="M7.40731 8.15399V4.6049H6.40954C5.30463 4.6049 4.72203 3.88839 4.72203 3.19196C4.72203 2.46873 5.25777 2.04016 5.97428 2.04016C6.79794 2.04016 7.4408 2.67633 7.4408 3.74105V4.6049H8.55911V3.74105C8.55911 2.67633 9.20197 2.04016 10.0256 2.04016C10.7421 2.04016 11.2845 2.46873 11.2845 3.19196C11.2845 3.88839 10.6819 4.6049 9.59034 4.6049H8.59257V8.15399H13.3136C14.0435 8.15399 14.4386 7.87276 14.4386 7.15622V5.60267C14.4386 4.89285 14.0435 4.6049 13.3136 4.6049H11.7533C12.1685 4.2299 12.4163 3.72096 12.4163 3.14508C12.4163 1.85268 11.3917 0.921875 10.0926 0.921875C9.12831 0.921875 8.34483 1.45756 8.00328 2.40847C7.66177 1.45756 6.8716 0.921875 5.90731 0.921875C4.61491 0.921875 3.58365 1.85268 3.58365 3.14508C3.58365 3.72096 3.82471 4.2299 4.2466 4.6049H2.68634C1.9966 4.6049 1.56134 4.89285 1.56134 5.60267V7.15622C1.56134 7.87276 1.96311 8.15399 2.68634 8.15399H7.40731ZM7.40731 15.0781V8.8705H2.51891V13.3772C2.51891 14.4955 3.17517 15.0781 4.29345 15.0781H7.40731ZM8.59257 8.8705V15.0781H11.7064C12.8247 15.0781 13.481 14.4955 13.481 13.3772V8.8705H8.59257Z" fill="#E567F8"/>
</g>
<defs>
<clipPath id="clip0_0_53">
<rect width="16" height="16" fill="white"/>
</clipPath>
</defs>
</svg>
