<svg width="20" height="20" viewBox="0 0 20 20" fill="none" xmlns="http://www.w3.org/2000/svg">
<path d="M9.25912 10.1925V5.75613H8.01191C6.63077 5.75613 5.90252 4.86049 5.90252 3.98995C5.90252 3.08592 6.5722 2.5502 7.46784 2.5502C8.49741 2.5502 9.30098 3.34542 9.30098 4.67631V5.75613H10.6989V4.67631C10.6989 3.34542 11.5024 2.5502 12.532 2.5502C13.4277 2.5502 14.1057 3.08592 14.1057 3.98995C14.1057 4.86049 13.3523 5.75613 11.9879 5.75613H10.7407V10.1925H16.6419C17.5544 10.1925 18.0482 9.84095 18.0482 8.94527V7.00334C18.0482 6.11606 17.5544 5.75613 16.6419 5.75613H14.6916C15.2105 5.28738 15.5203 4.6512 15.5203 3.93134C15.5203 2.31584 14.2396 1.15234 12.6157 1.15234C11.4104 1.15234 10.431 1.82195 10.0041 3.01059C9.57719 1.82195 8.58948 1.15234 7.38412 1.15234C5.76862 1.15234 4.47955 2.31584 4.47955 3.93134C4.47955 4.6512 4.78087 5.28738 5.30823 5.75613H3.35791C2.49573 5.75613 1.95166 6.11606 1.95166 7.00334V8.94527C1.95166 9.84095 2.45387 10.1925 3.35791 10.1925H9.25912ZM9.25912 18.8476V11.0881H3.14862V16.7215C3.14862 18.1194 3.96895 18.8476 5.3668 18.8476H9.25912ZM10.7407 11.0881V18.8476H14.633C16.0309 18.8476 16.8512 18.1194 16.8512 16.7215V11.0881H10.7407Z" fill="#3B3F46"/>
</svg>
