<svg width="16" height="16" viewBox="0 0 16 16" fill="none" xmlns="http://www.w3.org/2000/svg">
<path d="M6.00069 4.6665H4.00069C3.64707 4.6665 3.30793 4.80698 3.05788 5.05703C2.80783 5.30708 2.66736 5.64622 2.66736 5.99984V11.9998C2.66736 12.3535 2.80783 12.6926 3.05788 12.9426C3.30793 13.1927 3.64707 13.3332 4.00069 13.3332H10.0007C10.3543 13.3332 10.6935 13.1927 10.9435 12.9426C11.1935 12.6926 11.334 12.3535 11.334 11.9998V9.99984" stroke="#3B3F46" stroke-width="1.33333" stroke-linecap="round" stroke-linejoin="round"/>
<path d="M6 9.99738H8L13.6667 4.33072C13.798 4.1994 13.9022 4.04349 13.9732 3.87191C14.0443 3.70033 14.0809 3.51643 14.0809 3.33072C14.0809 3.145 14.0443 2.9611 13.9732 2.78952C13.9022 2.61794 13.798 2.46204 13.6667 2.33072C13.5353 2.1994 13.3794 2.09523 13.2079 2.02415C13.0363 1.95308 12.8524 1.9165 12.6667 1.9165C12.2916 1.9165 11.9319 2.0655 11.6667 2.33072L6 7.99738V9.99738Z" stroke="#3B3F46" stroke-width="1.33333" stroke-linecap="round" stroke-linejoin="round"/>
<path d="M10.6674 3.3335L12.6674 5.3335" stroke="#3B3F46" stroke-width="1.33333" stroke-linecap="round" stroke-linejoin="round"/>
</svg>
