<svg width="7" height="11" viewBox="0 0 7 11" fill="none" xmlns="http://www.w3.org/2000/svg">
<path d="M7.00019 3.5003C7.00019 6.51301 4.61592 8.79418 3.78309 9.49911C3.61973 9.63737 3.38046 9.63737 3.2171 9.49911C2.38427 8.79418 0 6.51301 0 3.5003C0 1.56726 1.56708 0.00011179 3.5001 0.00011179C5.43311 0.00011179 7.00019 1.56726 7.00019 3.5003Z" fill="#6A90FF"/>
<path d="M5.74353 3.50042C5.74353 4.73935 4.73913 5.74373 3.50015 5.74373C2.26116 5.74373 1.25676 4.73935 1.25676 3.50042C1.25676 2.26139 2.26116 1.25701 3.50015 1.25701C4.73913 1.25701 5.74353 2.26139 5.74353 3.50042Z" fill="white"/>
<path d="M5.76234 9.6894C5.76234 10.1305 4.74927 10.488 3.49953 10.488C2.24977 10.488 1.2367 10.1305 1.2367 9.6894C1.2367 9.39622 1.68427 9.13993 2.3514 9.00102C2.63704 9.29161 2.88978 9.51771 3.07094 9.67112C3.1906 9.77238 3.34277 9.82809 3.49953 9.82809C3.65627 9.82809 3.80845 9.77238 3.9281 9.67112C4.10926 9.51771 4.362 9.29161 4.64764 9.00102C5.31477 9.13993 5.76234 9.39622 5.76234 9.6894Z" fill="#6A90FF"/>
</svg>
