<svg width="18" height="22" viewBox="0 0 18 22" fill="none" xmlns="http://www.w3.org/2000/svg">
<path d="M7.70482 6.2334C7.86786 5.75539 8.5439 5.75539 8.70695 6.2334L9.65458 9.0116C10.0735 10.2397 11.0323 11.2081 12.2562 11.6391L14.9939 12.6033C15.4653 12.7693 15.4653 13.436 14.9939 13.602L12.2562 14.5662C11.0323 14.9972 10.0735 15.9655 9.65458 17.1937L8.70695 19.9719C8.5439 20.4499 7.86786 20.4499 7.70482 19.9719L6.75719 17.1937C6.33828 15.9655 5.37949 14.9972 4.15557 14.5662L1.41785 13.602C0.946454 13.436 0.946455 12.7693 1.41785 12.6033L4.15557 11.6391C5.3795 11.2081 6.33828 10.2397 6.75719 9.0116L7.70482 6.2334Z" fill="#FEFEFE"/>
<path d="M12.9445 0.852963C13.0391 0.575414 13.4317 0.575414 13.5264 0.852963L14.0766 2.46611C14.3198 3.17922 14.8765 3.74147 15.5872 3.99176L17.1768 4.55161C17.4506 4.64801 17.4506 5.0351 17.1768 5.1315L15.5872 5.69135C14.8765 5.94164 14.3198 6.50389 14.0766 7.217L13.5264 8.83015C13.4317 9.1077 13.0391 9.1077 12.9445 8.83015L12.3942 7.217C12.151 6.50389 11.5943 5.94164 10.8836 5.69135L9.29397 5.1315C9.02026 5.0351 9.02026 4.64801 9.29397 4.55161L10.8836 3.99176C11.5943 3.74147 12.151 3.17922 12.3942 2.46611L12.9445 0.852963Z" fill="#FEFEFE"/>
<path d="M2.48542 15.8267C2.53802 15.6725 2.7561 15.6725 2.80869 15.8267L3.11438 16.7228C3.24951 17.119 3.5588 17.4314 3.95361 17.5704L4.83675 17.8815C4.98881 17.935 4.98881 18.1501 4.83675 18.2036L3.95361 18.5146C3.5588 18.6537 3.24951 18.9661 3.11438 19.3622L2.80869 20.2584C2.7561 20.4126 2.53802 20.4126 2.48542 20.2584L2.17974 19.3622C2.04461 18.9661 1.73532 18.6537 1.34051 18.5146L0.457372 18.2036C0.305308 18.1501 0.305308 17.935 0.457372 17.8815L1.34051 17.5704C1.73532 17.4314 2.04461 17.119 2.17974 16.7228L2.48542 15.8267Z" fill="#FEFEFE"/>
</svg>
