<svg width="72" height="94" viewBox="0 0 72 94" fill="none" xmlns="http://www.w3.org/2000/svg">
<path d="M58.6931 0.304985L62.5605 8.48311L71.5338 9.63438C71.9807 9.69192 72.1595 10.2424 71.8319 10.5514L65.2493 16.7571L66.9272 25.647C67.0107 26.0891 66.5421 26.4297 66.1466 26.2135L58.211 21.8707L50.275 26.2135C49.8794 26.4297 49.4109 26.0891 49.4943 25.647L51.1722 16.7571L44.5896 10.5514C44.262 10.2424 44.4414 9.69192 44.8877 9.63438L53.861 8.48311L57.7284 0.304985C57.9212 -0.101925 58.5003 -0.101925 58.6931 0.304985Z" fill="url(#paint0_linear_1379_44568)"/>
<path d="M33.938 13.8008L36.7299 19.7039L43.2068 20.5348C43.5292 20.5762 43.6583 20.9738 43.4219 21.1972L38.6706 25.6764L39.8815 32.0931C39.9417 32.4124 39.6037 32.6581 39.3186 32.5021L33.5902 29.3676L27.8616 32.5021C27.5764 32.6581 27.2381 32.4124 27.2984 32.0931L28.5095 25.6764L23.7581 21.1972C23.5215 20.9738 23.6508 20.5762 23.9732 20.5348L30.4501 19.7039L33.2419 13.8008C33.3808 13.5069 33.7991 13.5069 33.938 13.8008Z" fill="url(#paint1_linear_1379_44568)"/>
<path d="M14.8043 26.1542L17.1308 31.0734L22.5283 31.7659C22.797 31.8006 22.9047 32.1319 22.7076 32.3175L18.7481 36.0507L19.7573 41.398C19.8075 41.664 19.5256 41.8687 19.2879 41.7386L14.5142 39.1266L9.74052 41.7386C9.50285 41.8687 9.22097 41.664 9.2712 41.398L10.2804 36.0507L6.32086 32.3175C6.12373 32.1319 6.23144 31.8006 6.50011 31.7659L11.8976 31.0734L14.2242 26.1542C14.34 25.909 14.6884 25.909 14.8043 26.1542Z" fill="url(#paint2_linear_1379_44568)"/>
<path d="M7.13446 47.4027L9.06799 51.491L13.5537 52.0664C13.7771 52.0949 13.8665 52.3707 13.7027 52.5251L10.412 55.6275L11.2507 60.0714C11.2925 60.2927 11.0582 60.4627 10.8607 60.3549L6.89338 58.1835L2.92602 60.3549C2.72853 60.4627 2.49423 60.2927 2.53601 60.0714L3.37476 55.6275L0.0840752 52.5251C-0.0797776 52.3707 0.00969083 52.0949 0.233051 52.0664L4.71876 51.491L6.65234 47.4027C6.7486 47.199 7.03815 47.199 7.13446 47.4027Z" fill="url(#paint3_linear_1379_44568)"/>
<path d="M21.0614 61.4178L22.428 64.3071L25.5981 64.714C25.756 64.7342 25.8192 64.9291 25.7035 65.038L23.3778 67.2306L23.9706 70.3714C24.0001 70.5279 23.8345 70.6482 23.6949 70.5714L20.8911 69.0371L18.0872 70.5714C17.9476 70.6482 17.782 70.5279 17.8116 70.3714L18.4043 67.2306L16.0787 65.038C15.9629 64.9291 16.0261 64.7342 16.184 64.714L19.3542 64.3071L20.7207 61.4178C20.7888 61.2742 20.9934 61.2742 21.0614 61.4178Z" fill="url(#paint4_linear_1379_44568)"/>
<path d="M34.692 69.3268L35.637 71.3246L37.8286 71.6061C37.938 71.6201 37.9815 71.7543 37.9017 71.83L36.2938 73.3457L36.7033 75.5176C36.724 75.6259 36.6094 75.7089 36.513 75.656L34.5744 74.5949L32.6352 75.656C32.5388 75.7089 32.4242 75.6259 32.445 75.5176L32.8545 73.3457L31.2465 71.83C31.1667 71.7543 31.2102 71.6201 31.3196 71.6061L33.5112 71.3246L34.4562 69.3268C34.5034 69.2273 34.6449 69.2273 34.692 69.3268Z" fill="url(#paint5_linear_1379_44568)"/>
<path d="M45.6682 77.6123L46.5116 79.395L48.4674 79.6464C48.5648 79.6588 48.6037 79.7785 48.5322 79.8459L47.0973 81.1988L47.4633 83.1365C47.4815 83.2329 47.3793 83.307 47.2933 83.2598L45.5635 82.3133L43.8333 83.2598C43.7472 83.307 43.6451 83.2329 43.6632 83.1365L44.0292 81.1988L42.5944 79.8459C42.5228 79.7785 42.5617 79.6588 42.6592 79.6464L44.6149 79.395L45.4583 77.6123C45.5003 77.5237 45.6263 77.5237 45.6682 77.6123Z" fill="url(#paint6_linear_1379_44568)"/>
<path d="M40.3584 86.6456L41.0411 88.0893L42.6252 88.2925C42.704 88.3028 42.7356 88.3998 42.6776 88.4542L41.5159 89.5495L41.8119 91.1185C41.827 91.1968 41.744 91.2569 41.674 91.2186L40.2734 90.4525L38.8728 91.2186C38.8029 91.2569 38.7204 91.1968 38.735 91.1185L39.0315 89.5495L37.8693 88.4542C37.8118 88.3998 37.8434 88.3028 37.9222 88.2925L39.5057 88.0893L40.1884 86.6456C40.2226 86.5741 40.3248 86.5741 40.3584 86.6456Z" fill="url(#paint7_linear_1379_44568)"/>
<path d="M31.7809 90.3344L32.2605 91.3476L33.3722 91.4901C33.4276 91.4974 33.4499 91.5658 33.409 91.6042L32.5934 92.3731L32.8013 93.4744C32.8117 93.5293 32.7536 93.5713 32.7049 93.5444L31.7213 93.0067L30.7381 93.5444C30.6892 93.5713 30.6311 93.5293 30.6415 93.4744L30.8492 92.3731L30.0338 91.6042C29.9932 91.5658 30.0153 91.4974 30.0707 91.4901L31.1826 91.3476L31.6617 90.3344C31.6855 90.2842 31.7571 90.2842 31.7809 90.3344Z" fill="url(#paint8_linear_1379_44568)"/>
<path d="M22.817 91.9793L23.1146 92.6088L23.805 92.6974C23.8394 92.7016 23.8531 92.7441 23.828 92.7679L23.3215 93.2455L23.4506 93.9293C23.457 93.9635 23.4209 93.9895 23.3906 93.9729L22.78 93.639L22.1693 93.9729C22.139 93.9895 22.1029 93.9635 22.1093 93.9293L22.2384 93.2455L21.732 92.7679C21.7067 92.7441 21.7205 92.7016 21.7549 92.6974L22.4452 92.6088L22.7428 91.9793C22.7577 91.9482 22.8022 91.9482 22.817 91.9793Z" fill="url(#paint9_linear_1379_44568)"/>
<defs>
<linearGradient id="paint0_linear_1379_44568" x1="58.2108" y1="-0.000198364" x2="58.2108" y2="26.2803" gradientUnits="userSpaceOnUse">
<stop stop-color="white"/>
<stop offset="1" stop-color="#E5E5E5"/>
</linearGradient>
<linearGradient id="paint1_linear_1379_44568" x1="33.5899" y1="13.5804" x2="33.5899" y2="32.5503" gradientUnits="userSpaceOnUse">
<stop stop-color="white"/>
<stop offset="1" stop-color="#E5E5E5"/>
</linearGradient>
<linearGradient id="paint2_linear_1379_44568" x1="14.5142" y1="25.9703" x2="14.5142" y2="41.7788" gradientUnits="userSpaceOnUse">
<stop stop-color="white"/>
<stop offset="1" stop-color="#E5E5E5"/>
</linearGradient>
<linearGradient id="paint3_linear_1379_44568" x1="6.89338" y1="47.2499" x2="6.89338" y2="60.3882" gradientUnits="userSpaceOnUse">
<stop stop-color="white"/>
<stop offset="1" stop-color="#E5E5E5"/>
</linearGradient>
<linearGradient id="paint4_linear_1379_44568" x1="20.8911" y1="61.3101" x2="20.8911" y2="70.5952" gradientUnits="userSpaceOnUse">
<stop stop-color="white"/>
<stop offset="1" stop-color="#E5E5E5"/>
</linearGradient>
<linearGradient id="paint5_linear_1379_44568" x1="34.5741" y1="69.2522" x2="34.5741" y2="75.6724" gradientUnits="userSpaceOnUse">
<stop stop-color="white"/>
<stop offset="1" stop-color="#E5E5E5"/>
</linearGradient>
<linearGradient id="paint6_linear_1379_44568" x1="45.5633" y1="77.5458" x2="45.5633" y2="83.2744" gradientUnits="userSpaceOnUse">
<stop stop-color="white"/>
<stop offset="1" stop-color="#E5E5E5"/>
</linearGradient>
<linearGradient id="paint7_linear_1379_44568" x1="40.2736" y1="86.592" x2="40.2736" y2="91.2305" gradientUnits="userSpaceOnUse">
<stop stop-color="white"/>
<stop offset="1" stop-color="#E5E5E5"/>
</linearGradient>
<linearGradient id="paint8_linear_1379_44568" x1="31.7215" y1="90.2967" x2="31.7215" y2="93.5527" gradientUnits="userSpaceOnUse">
<stop stop-color="white"/>
<stop offset="1" stop-color="#E5E5E5"/>
</linearGradient>
<linearGradient id="paint9_linear_1379_44568" x1="22.7799" y1="91.956" x2="22.7799" y2="93.978" gradientUnits="userSpaceOnUse">
<stop stop-color="white"/>
<stop offset="1" stop-color="#E5E5E5"/>
</linearGradient>
</defs>
</svg>
