<svg width="16" height="16" viewBox="0 0 16 16" fill="none" xmlns="http://www.w3.org/2000/svg">
<path d="M13.333 8.00016V14.6668H2.66634V8.00016M7.99967 14.6668V4.66683M7.99967 4.66683H4.99967C4.55765 4.66683 4.13372 4.49123 3.82116 4.17867C3.5086 3.86611 3.33301 3.44219 3.33301 3.00016C3.33301 2.55814 3.5086 2.13421 3.82116 1.82165C4.13372 1.50909 4.55765 1.3335 4.99967 1.3335C7.33301 1.3335 7.99967 4.66683 7.99967 4.66683ZM7.99967 4.66683H10.9997C11.4417 4.66683 11.8656 4.49123 12.1782 4.17867C12.4907 3.86611 12.6663 3.44219 12.6663 3.00016C12.6663 2.55814 12.4907 2.13421 12.1782 1.82165C11.8656 1.50909 11.4417 1.3335 10.9997 1.3335C8.66634 1.3335 7.99967 4.66683 7.99967 4.66683ZM1.33301 4.66683H14.6663V8.00016H1.33301V4.66683Z" stroke="#3B3F46" stroke-width="2" stroke-linecap="round" stroke-linejoin="round"/>
</svg>
