<svg width="12" height="12" viewBox="0 0 12 12" fill="none" xmlns="http://www.w3.org/2000/svg">
<path d="M2.1543 9.96659C2.1543 10.3323 2.45092 10.6289 2.81667 10.6289H5.22984C5.23305 10.6207 5.23497 10.6119 5.23497 10.6025V6.50003H2.1543V9.96659Z" fill="#37B1B5"/>
<path d="M10.4259 8.92115C10.1257 9.20982 9.28035 9.97382 8.93082 10.2889L8.87562 10.3387L8.80095 10.2714C8.45583 9.96019 7.62116 9.20558 7.32533 8.92115C7.01995 8.62766 6.86214 8.25942 6.85957 7.84246C6.8589 7.72947 6.86946 7.61307 6.89174 7.49351C6.93398 7.26628 7.05046 7.0728 7.22855 6.93395C7.39675 6.80276 7.60918 6.73042 7.82677 6.73042C8.01184 6.73042 8.18761 6.78147 8.343 6.87875C8.38732 6.90652 8.43014 6.93786 8.47088 6.9732C8.54213 7.03489 8.60765 7.10972 8.6774 7.18937C8.70975 7.22628 8.74649 7.26819 8.78491 7.30959C8.80819 7.33479 8.84128 7.34917 8.87562 7.34917C8.87977 7.34917 8.88435 7.34892 8.88942 7.34834C8.91893 7.34501 8.94629 7.33129 8.96641 7.30959C9.00482 7.26802 9.04306 7.22446 9.07449 7.18846C9.14383 7.10939 9.20927 7.03472 9.28035 6.9732C9.46377 6.81439 9.68651 6.73042 9.92446 6.73042C10.142 6.73042 10.3544 6.80276 10.5227 6.93395C10.7008 7.0728 10.8172 7.26628 10.8594 7.49351C10.9638 8.05455 10.8139 8.54826 10.4259 8.92115ZM11.1028 7.44828C11.0493 7.16077 10.9013 6.9155 10.6749 6.7389C10.4634 6.57386 10.1968 6.48299 9.92446 6.48299C9.62615 6.48299 9.34737 6.58783 9.11839 6.78613C9.05662 6.83959 9.00124 6.89895 8.95992 6.94476C8.95992 6.94476 8.94213 6.96439 8.93731 6.96979L8.93473 6.9727L8.87562 7.03938L8.81392 6.96987C8.76246 6.912 8.70077 6.84491 8.63284 6.78613C8.45707 6.63389 8.25188 6.53695 8.03113 6.50003C7.96429 6.48889 7.89603 6.48299 7.82677 6.48299C7.75809 6.48299 7.68983 6.48872 7.62265 6.50003H5.854V10.6025C5.854 10.6119 5.85593 10.6207 5.85913 10.6289H8.2725C8.42423 10.6289 8.564 10.5776 8.67566 10.4917L8.79247 10.597C8.81534 10.6176 8.84477 10.6289 8.87553 10.6289C8.9063 10.6289 8.93581 10.6176 8.95868 10.597L8.96607 10.5903C9.17726 10.4003 10.2481 9.43539 10.5973 9.09958C11.0483 8.66615 11.2231 8.09513 11.1028 7.44828Z" fill="#37B1B5"/>
<path d="M5.73233 3.65542C5.90719 2.94754 6.21408 1.97086 6.47108 1.73216C6.63927 1.57585 6.85827 1.4898 7.08766 1.4898C7.34258 1.4898 7.57845 1.59256 7.75189 1.77922C7.91668 1.95656 8.00248 2.18753 7.99359 2.42948C7.98469 2.67134 7.88209 2.89533 7.70475 3.06012C7.448 3.29865 6.4512 3.53295 5.73233 3.65542ZM3.785 3.20753C3.65355 3.08539 3.57752 2.91944 3.57093 2.7401C3.56433 2.56076 3.62796 2.38965 3.75008 2.2582C3.87861 2.11985 4.05343 2.04369 4.24239 2.04369C4.41243 2.04369 4.57474 2.10746 4.6994 2.22328C4.88809 2.39855 5.11528 3.11033 5.25297 3.6545C4.70026 3.55723 3.97387 3.38296 3.785 3.20753ZM5.85379 6.32031H9.34058C9.73734 6.32031 10.0589 5.99872 10.0589 5.60204V4.71258C10.0589 4.3159 9.73734 3.99414 9.34058 3.99414H5.99943C5.99943 3.98857 5.9987 3.98325 5.99752 3.9781C6.61142 3.86494 7.6162 3.63929 7.9526 3.32684C8.20119 3.09587 8.34495 2.78192 8.35742 2.44278C8.36989 2.10372 8.24958 1.78005 8.01861 1.53137C7.77908 1.27354 7.43977 1.12571 7.08766 1.12571C6.76598 1.12571 6.45902 1.24635 6.22323 1.46535C5.92562 1.74189 5.65738 2.54521 5.49011 3.145C5.48097 3.11399 5.47159 3.08256 5.46191 3.05089C5.28502 2.47188 5.11667 2.11395 4.94723 1.95656C4.75498 1.77789 4.50466 1.67953 4.24239 1.67953C3.95531 1.67953 3.67862 1.80009 3.48332 2.01035C3.29499 2.21306 3.19689 2.47703 3.20706 2.75348C3.21724 3.03002 3.33448 3.28593 3.53719 3.47425C3.70662 3.63172 4.076 3.77332 4.66644 3.90718C4.81911 3.94176 4.96512 3.97095 5.08978 3.99406C5.08978 3.99414 5.08977 3.99414 5.08977 3.99414H1.74873C1.35199 3.99414 1.03027 4.3159 1.03027 4.71258V5.60204C1.03027 5.99872 1.35199 6.32031 1.74873 6.32031H5.23541V4.02025C5.37123 4.04378 5.45963 4.05667 5.46704 4.05783C5.46871 4.058 5.47037 4.05816 5.47203 4.05833C5.47353 4.05849 5.47502 4.05866 5.47651 4.05883C5.48207 4.05933 5.4876 4.05966 5.49312 4.05966C5.49316 4.05966 5.49317 4.05966 5.49319 4.05966H5.49321H5.49322C5.49322 4.05966 5.49326 4.05966 5.49329 4.05966C5.49881 4.05966 5.50436 4.05933 5.5099 4.05883C5.51139 4.05866 5.51289 4.05849 5.51438 4.05833C5.51605 4.05816 5.51769 4.058 5.51936 4.05783C5.56381 4.05134 5.68587 4.03314 5.85379 4.00387V6.32031Z" fill="#2B898C"/>
</svg>
