<svg width="84" height="94" viewBox="0 0 84 94" fill="none" xmlns="http://www.w3.org/2000/svg">
<path d="M48.2249 93.914L83.6616 80.1862L35.4084 71.127L0.338257 82.5815L48.2249 93.914Z" fill="#F7F7F7"/>
<path d="M11.2798 42.8609L40.521 38.0861L72.481 44.0666L67.7309 81.4914L45.4769 88.9564L14.1008 80.4339L11.2798 42.8609Z" fill="#DFDEDC"/>
<path d="M40.5206 38.0859L39.9549 75.6867L67.7303 81.4918L72.4804 44.067L40.5206 38.0859Z" fill="#E9E9E9"/>
<path d="M33.2294 54.5042L30.6361 60.1994L28.2574 58.9723L29.6075 53.6522L33.2294 54.5042Z" fill="#EAF2F0"/>
<path d="M39.8783 54.5429C39.8783 54.5429 38.4951 59.3703 41.3853 60.2946L42.8686 60.3306C42.8686 60.3306 40.1378 59.1552 41.2395 55.2196L40.4772 54.9866L39.8783 54.5429Z" fill="#E6E1E2"/>
<path d="M33.4304 50.2267C33.4304 50.2267 31.6785 54.3943 32.5131 56.9831C32.5131 56.9831 32.8753 57.6409 34.0868 57.7654C34.0868 57.7654 32.7236 56.452 34.6876 51.7523L33.9424 51.1177L33.4304 50.2267Z" fill="#E6E1E2"/>
<path d="M28.6768 51.9996L29.8067 53.4619C29.8067 53.4619 32.1598 51.7145 34.6877 51.7508L33.4305 50.2251C33.4305 50.2251 31.1575 49.9964 28.6768 51.9996Z" fill="#FBF4F7"/>
<path d="M46.052 56.4969L44.2715 56.0011C44.2715 56.0011 43.4325 58.81 41.3854 60.2938L43.306 60.7638C43.306 60.7638 45.2637 59.586 46.052 56.4969Z" fill="#FBF4F7"/>
<path d="M32.5129 56.9834C32.5129 56.9834 34.9382 58.5072 39.878 54.5435C39.878 54.5435 40.4945 54.6913 41.2393 55.2202C41.2393 55.2202 38.4652 58.6684 34.6197 58.4019C34.6197 58.4019 32.8769 58.1727 32.5129 56.9834Z" fill="#FBF4F7"/>
<path d="M45.7997 53.379L47.3648 55.6053C47.3648 55.6053 44.9357 58.871 42.4569 59.0232L40.2024 57.3082C40.2024 57.3082 45.3807 56.0214 45.7997 53.379Z" fill="#FCFBFA"/>
<path d="M45.1234 49.4647L46.0549 48.2694C51.0118 50.1031 53.7172 48.2527 53.7172 48.2527L52.3686 50.0321C50.5221 51.2308 45.1234 49.4647 45.1234 49.4647Z" fill="#FCFBFA"/>
<path d="M49.6568 55.5347C49.6568 55.5347 47.0138 56.821 41.698 56.5484C41.698 56.5484 41.8677 55.7699 42.6135 54.9872C42.6135 54.9872 49.2592 54.8981 50.3151 53.7792C50.3151 53.7792 50.5172 54.7498 49.6568 55.5347Z" fill="#FCFBFA"/>
<path d="M38.4538 62.0083C38.4538 62.0083 40.4486 60.6955 45.7643 60.9687C45.7643 60.9687 46.4174 61.7159 45.6718 62.4989C45.6718 62.4989 38.8511 62.645 37.795 63.764C37.795 63.764 37.5929 62.7937 38.4538 62.0083Z" fill="#FCFBFA"/>
<path d="M45.1234 49.4647L46.0549 48.2694C51.0118 50.1031 53.7172 48.2527 53.7172 48.2527L52.3686 50.0321C50.5221 51.2308 45.1234 49.4647 45.1234 49.4647Z" fill="#FCFBFA"/>
<path d="M49.656 55.5347C49.656 55.5347 47.0132 56.8209 41.6975 56.5483C41.6975 56.5483 41.8672 55.7698 42.613 54.9871C42.613 54.9871 49.2585 54.8981 50.3143 53.7792C50.3143 53.7792 50.5164 54.7498 49.656 55.5347Z" fill="#FCFBFA"/>
<path d="M38.4538 62.0083C38.4538 62.0083 40.4486 60.6955 45.7643 60.9687C45.7643 60.9687 46.4174 61.7159 45.6718 62.4989C45.6718 62.4989 38.8511 62.645 37.795 63.764C37.795 63.764 37.5929 62.7937 38.4538 62.0083Z" fill="#FCFBFA"/>
<path d="M45.1234 49.4647L46.0549 48.2694C51.0118 50.1031 53.7172 48.2527 53.7172 48.2527L52.3686 50.0321C50.5221 51.2308 45.1234 49.4647 45.1234 49.4647Z" fill="#FCFBFA"/>
<path d="M49.656 55.5347C49.656 55.5347 47.0132 56.8209 41.6975 56.5483C41.6975 56.5483 41.8672 55.7698 42.613 54.9871C42.613 54.9871 49.2585 54.8981 50.3143 53.7792C50.3143 53.7792 50.5164 54.7498 49.656 55.5347Z" fill="#FCFBFA"/>
<path d="M38.4538 62.0083C38.4538 62.0083 40.4486 60.6955 45.7643 60.9687C45.7643 60.9687 46.4174 61.7159 45.6718 62.4989C45.6718 62.4989 38.8511 62.645 37.795 63.764C37.795 63.764 37.5929 62.7937 38.4538 62.0083Z" fill="#FCFBFA"/>
<path d="M45.1234 49.4647L46.0549 48.2694C51.0118 50.1031 53.7172 48.2527 53.7172 48.2527L52.3686 50.0321C50.5221 51.2308 45.1234 49.4647 45.1234 49.4647Z" fill="#FCFBFA"/>
<path d="M49.656 55.5347C49.656 55.5347 47.0132 56.8209 41.6975 56.5483C41.6975 56.5483 41.8672 55.7698 42.613 54.9871C42.613 54.9871 49.2585 54.8981 50.3143 53.7792C50.3143 53.7792 50.5164 54.7498 49.656 55.5347Z" fill="#FCFBFA"/>
<path d="M38.4538 62.0083C38.4538 62.0083 40.4486 60.6955 45.7643 60.9687C45.7643 60.9687 46.4174 61.7159 45.6718 62.4989C45.6718 62.4989 38.8511 62.645 37.795 63.764C37.795 63.764 37.5929 62.7937 38.4538 62.0083Z" fill="#FCFBFA"/>
<path d="M42.2582 69.1182L43.059 68.0268C43.059 68.0268 38.8052 65.1487 38.4467 62.0127C38.4467 62.0127 35.3101 64.0724 42.2582 69.1182Z" fill="#FCFBFA"/>
<path d="M49.6571 55.5351C49.6571 55.5351 51.05 53.3954 45.1239 49.4632C45.1239 49.4632 45.3904 48.5041 46.0553 48.2683C46.0553 48.2683 52.9597 52.6181 49.6571 55.5351Z" fill="#FCFBFA"/>
<path d="M42.6139 54.9881C42.6139 54.9881 41.0666 57.0198 46.6889 61.3769C46.6889 61.3769 46.352 62.313 45.6718 62.5003C45.6718 62.5003 39.1058 57.6545 42.6139 54.9881Z" fill="#FCFBFA"/>
<path d="M52.3687 50.0317C52.3687 50.0317 53.8045 47.3074 53.4932 45.4174L54.8603 45.2479C54.8603 45.2479 55.0926 48.586 52.3687 50.0317Z" fill="#FCFBFA"/>
<path d="M27.6899 45.3411C26.3863 46.2327 26.0519 48.0122 26.9437 49.316C27.8354 50.6198 29.6151 50.9534 30.9186 50.0618C32.2224 49.1701 32.5566 47.3907 31.6649 46.0869C30.7731 44.7831 28.9937 44.4494 27.6899 45.3411Z" fill="#DFDFDF"/>
<path d="M45.5431 49.5685L43.9984 52.3152L45.3846 55.1441L42.295 54.5233L40.0323 56.7159L39.6683 53.5866L36.8839 52.1127L39.7476 50.7988L40.2895 47.6946L42.4236 50.0126L45.5431 49.5685Z" fill="#F2F8F9"/>
<path d="M33.9214 41.5338L35.6673 41.3249C38.206 46.9074 41.9406 47.6247 41.9406 47.6247L39.3729 47.9674C36.8768 47.4253 33.9214 41.5338 33.9214 41.5338Z" fill="#EAF2F0"/>
<path d="M32.6215 50.2309C32.6215 50.2309 29.3061 48.9976 25.1875 44.3948C25.1875 44.3948 26.5732 43.6791 27.3314 44.0966C27.3314 44.0966 32.8209 49.383 34.6055 49.3391C34.6055 49.3391 33.9711 50.2984 32.6215 50.2309Z" fill="#EAF2F0"/>
<path d="M33.9206 41.5338L35.6665 41.3249C38.2052 46.9074 41.9399 47.6247 41.9399 47.6247L39.3722 47.9674C36.8761 47.4253 33.9206 41.5338 33.9206 41.5338Z" fill="#EAF2F0"/>
<path d="M32.6213 50.2311C32.6213 50.2311 29.3059 48.9977 25.1873 44.3949C25.1873 44.3949 26.5731 43.6795 27.3313 44.097C27.3313 44.097 32.8209 49.383 34.6055 49.3391C34.6055 49.3391 33.9709 50.2986 32.6213 50.2311Z" fill="#EAF2F0"/>
<path d="M33.9206 41.5338L35.6665 41.3249C38.2052 46.9074 41.9399 47.6247 41.9399 47.6247L39.3722 47.9674C36.8761 47.4253 33.9206 41.5338 33.9206 41.5338Z" fill="#EAF2F0"/>
<path d="M32.6213 50.2311C32.6213 50.2311 29.3059 48.9977 25.1873 44.3949C25.1873 44.3949 26.5731 43.6795 27.3313 44.097C27.3313 44.097 32.8209 49.383 34.6055 49.3391C34.6055 49.3391 33.9709 50.2986 32.6213 50.2311Z" fill="#EAF2F0"/>
<path d="M33.9206 41.5338L35.6665 41.3249C38.2052 46.9074 41.9399 47.6247 41.9399 47.6247L39.3722 47.9674C36.8761 47.4253 33.9206 41.5338 33.9206 41.5338Z" fill="#EAF2F0"/>
<path d="M32.6213 50.2311C32.6213 50.2311 29.3059 48.9977 25.1873 44.3949C25.1873 44.3949 26.5731 43.6795 27.3313 44.097C27.3313 44.097 32.8209 49.383 34.6055 49.3391C34.6055 49.3391 33.9709 50.2986 32.6213 50.2311Z" fill="#EAF2F0"/>
<path d="M19.6141 49.3834L20.9736 50.1694C20.9736 50.1694 23.7593 44.9017 27.3315 44.0942C27.3315 44.0942 24.984 41.4017 19.6141 49.3834Z" fill="#EAF2F0"/>
<path d="M32.6215 50.2303C32.6215 50.2303 35.5226 49.6303 33.9208 41.5344C33.9208 41.5344 34.9285 40.971 35.6664 41.325C35.6664 41.325 37.7229 50.5679 32.6215 50.2303Z" fill="#EAF2F0"/>
<path d="M39.3723 47.9682C39.3723 47.9682 42.7897 46.9258 44.0928 45.1247L45.3495 46.1131C45.3495 46.1131 42.7887 49.0317 39.3723 47.9682Z" fill="#EAF2F0"/>
<path d="M46.348 56.4829C45.5073 57.0578 45.2914 58.206 45.8665 59.0469C46.4417 59.8877 47.59 60.1028 48.4306 59.5279C49.2717 58.9526 49.4871 57.8048 48.912 56.9639C48.3369 56.123 47.1891 55.9076 46.348 56.4829Z" fill="#FBF4F7"/>
<path d="M38.3124 46.1061L39.5618 44.7124L39.4766 43.6411C39.4766 43.6411 41.391 46.1254 41.6198 48.3351L40.2707 50.7031C40.2707 50.7031 39.3598 47.4836 38.3124 46.1061Z" fill="#F2F8F9"/>
<path d="M38.3124 46.1061L39.5618 44.7124L39.4766 43.6411C39.4766 43.6411 41.391 46.1254 41.6198 48.3351L40.2707 50.7031C40.2707 50.7031 39.3598 47.4836 38.3124 46.1061Z" fill="#F2F8F9"/>
<path d="M42.4707 45.0874C41.6519 41.9492 38.8037 39.6139 38.8037 39.6139L40.3268 37.3533C42.7362 38.9241 43.499 42.5628 43.499 42.5628L42.7969 43.4819L42.4707 45.0874Z" fill="#F2F8F9"/>
<path d="M42.4705 45.0872C41.6517 41.949 38.8035 39.6136 38.8035 39.6136L40.3268 37.3533C42.7362 38.9241 43.499 42.5628 43.499 42.5628L42.7968 43.4816L42.4705 45.0872Z" fill="#F2F8F9"/>
<path d="M47.8345 41.2486L38.8037 39.6165C38.8037 39.6165 39.1884 38.2319 40.3272 37.3559L49.358 38.9881C48.9734 40.3723 47.8345 41.2486 47.8345 41.2486Z" fill="#F2F8F9"/>
<path d="M42.471 45.0889L38.3127 46.1069C38.3127 46.1069 38.4832 44.6801 39.4764 43.6416L43.499 42.5644C43.4064 43.9983 42.471 45.0889 42.471 45.0889Z" fill="#F2F8F9"/>
<path d="M34.8095 57.3325L32.5316 58.0461C32.5316 58.0461 36.9452 55.0697 33.5526 51.0342L36.0688 49.7767C36.0688 49.7767 38.795 54.3013 34.8095 57.3325Z" fill="#F2F8F9"/>
<path d="M34.8095 57.3325L32.5316 58.0461C32.5316 58.0461 36.9452 55.0697 33.5526 51.0342L36.0688 49.7767C36.0688 49.7767 38.795 54.3013 34.8095 57.3325Z" fill="#F2F8F9"/>
<path d="M30.2148 56.2225L31.8888 55.3648C31.8888 55.3648 33.0734 57.875 34.809 57.3326C34.809 57.3326 32.2619 59.5876 30.2148 56.2225Z" fill="#F2F8F9"/>
<path d="M40.2709 50.7037L33.552 51.0354C33.552 51.0354 34.0399 49.6836 35.2412 48.8957L41.6202 48.3356C41.3406 49.7447 40.2709 50.7037 40.2709 50.7037Z" fill="#F2F8F9"/>
<path d="M53.528 39.3429L51.0341 39.6978L49.3279 37.845L48.8954 40.3264L46.6055 41.3763L48.8316 42.555L49.1228 45.0567L50.9316 43.3036L53.4011 43.8003L52.2929 41.5384L53.528 39.3429Z" fill="#EAF2F0"/>
<path d="M38.3929 48.3271C37.0891 49.2189 36.755 50.9982 37.6467 52.302C38.5385 53.6058 40.3179 53.9396 41.6217 53.0478C42.925 52.1564 43.2592 50.377 42.3674 49.0732C41.4757 47.7694 39.6963 47.4357 38.3929 48.3271Z" fill="#F2F8F9"/>
<path d="M51.5582 40.6417L49.0643 40.9967L47.3581 39.1438L46.9255 41.6253L44.6357 42.6752L46.8618 43.8538L47.153 46.3556L48.9618 44.6025L51.4313 45.0991L50.3231 42.8372L51.5582 40.6417Z" fill="#FCFBFA"/>
<path d="M48.1417 38.6437C46.8379 39.5354 46.504 41.3146 47.3957 42.6184C48.2875 43.9222 50.0667 44.2561 51.3705 43.3644C52.6743 42.4726 53.0082 40.6935 52.1164 39.3896C51.2247 38.0858 49.4455 37.7519 48.1417 38.6437Z" fill="#EAF2F0"/>
<path d="M39.7819 47.6747L38.5111 49.9334L39.6514 52.2603L37.1104 51.7502L35.2496 53.5534L34.9502 50.9793L32.66 49.7672L35.0149 48.6864L35.461 46.1336L37.216 48.04L39.7819 47.6747Z" fill="#F2F8F9"/>
<path d="M45.0818 50.1562C45.0818 50.1562 42.7208 52.3377 44.2029 55.6909L42.2046 57.1286C42.2046 57.1286 41.1608 54.4212 42.1218 52.1982L43.322 51.4331L45.0818 50.1562Z" fill="#F2F8F9"/>
<path d="M45.0818 50.1562C45.0818 50.1562 42.7208 52.3377 44.2029 55.6909L42.2047 57.1288C42.2047 57.1288 41.1608 54.4212 42.1218 52.1982L43.3222 51.4333L45.0818 50.1562Z" fill="#F2F8F9"/>
<path d="M45.0818 50.1562C45.0818 50.1562 42.7208 52.3377 44.2029 55.6909L42.2047 57.1288C42.2047 57.1288 41.1608 54.4212 42.1218 52.1982L43.3222 51.4333L45.0818 50.1562Z" fill="#F2F8F9"/>
<path d="M48.4893 52.4212C48.4893 52.4212 47.6583 53.56 46.83 53.7623C46.83 53.7623 44.235 50.8401 42.1222 52.1976C42.1222 52.1976 42.6394 50.6709 45.0824 50.1559C45.0824 50.1559 47.5721 50.4196 48.4893 52.4212Z" fill="#F2F8F9"/>
<path d="M37.8355 55.4665C37.8355 55.4665 38.6663 54.3281 39.4948 54.1254C39.4948 54.1254 42.0897 57.0476 44.2027 55.6904C44.2027 55.6904 43.6855 57.217 41.2423 57.7322C41.2423 57.7322 38.7528 57.4683 37.8355 55.4665Z" fill="#F2F8F9"/>
<path d="M39.646 47.4192C38.3425 48.3108 38.0081 50.0903 38.8998 51.3941C39.7916 52.6979 41.5712 53.0315 42.8748 52.1399C44.1784 51.2483 44.5127 49.4688 43.621 48.165C42.7293 46.8612 40.9496 46.5276 39.646 47.4192Z" fill="#FCFBFA"/>
<path d="M42.6822 49.6583L38.2666 52.6784L36.8572 50.6178L41.6755 48.1864L42.6822 49.6583Z" fill="#F2F8F9"/>
<path d="M41.7066 39.634L39.878 40.5448L38.0918 39.555L38.3929 41.575L36.8993 42.9681L38.9135 43.3061L39.7769 45.1569L40.7207 43.3456L42.7477 43.0965L41.317 41.6393L41.7066 39.634Z" fill="#DFDFDF"/>
<path d="M31.7104 54.5089L29.7356 55.0116C29.7356 55.0116 28.0967 52.4423 28.6503 50.6674L30.4506 49.5465C30.4506 49.5465 29.9728 53.5124 31.7104 54.5089Z" fill="#EAF2F0"/>
<path d="M45.5644 88.9591L14.1883 80.4366L11.3671 42.8633L47.0246 49.4395L45.5644 88.9591Z" fill="#E9E9E9"/>
<path d="M47.0247 49.4398L72.5684 44.0699L67.8183 81.4941L45.5646 88.9594L47.0247 49.4398Z" fill="#CBC9C7"/>
<path d="M54.4983 85.9625L59.9647 84.1287L65.6754 45.4842L60.0648 46.6982L54.4983 85.9625Z" fill="#DAD9D8"/>
<path d="M24.0309 83.1103L21.373 44.7031L28.2137 45.9711L29.6211 84.6287L24.0309 83.1103Z" fill="#DAD9D8"/>
<path d="M76.0835 26.2072L50.9041 36.2013L51.5171 45.3027L75.7932 34.7608L76.0835 26.2072Z" fill="#E8E7E6"/>
<path d="M76.0833 26.2054L49.5429 24.7888L40.663 24.3151L7.26643 35.2898L50.9041 36.1995L76.0833 26.2054Z" fill="#DBDBDB"/>
<path d="M9.32001 43.3468L51.5172 45.3023L50.9042 36.201L7.26645 35.291L9.32001 43.3468Z" fill="#E9E9E9"/>
<path d="M17.7563 35.4941L26.5669 35.7764L28.5615 44.2389L20.7587 43.8774L17.7563 35.4941Z" fill="#DAD9D8"/>
<path d="M17.7567 35.4941L49.543 24.791L56.9416 25.1859L26.5673 35.7764L17.7567 35.4941Z" fill="#E9E9E9"/>
<path d="M63.2799 31.3961L62.8849 40.3661L68.3155 38.008L68.7855 29.1039L63.2799 31.3961Z" fill="#D6D6D6"/>
<path d="M68.7853 29.1013L29.8256 27.8757L23.5585 29.9353L63.2794 31.3938L68.7853 29.1013Z" fill="#E9E9E9"/>
<path d="M16.7296 17.8536C16.7296 17.8536 26.7634 29.1908 38.7114 29.4435C41.4801 29.113 42.7279 28.2809 42.7279 28.2809L25.3507 17.3249C26.1463 13.6046 27.9828 10.187 30.646 7.47034C31.7595 6.33436 30.5159 4.4881 29.0446 5.09326L24.1322 7.11216L19.1308 12.1159L16.7296 17.8536Z" fill="#CAC8C6"/>
<path d="M41.4799 29.1148L31.5513 11.801C31.3468 11.444 30.9882 11.2049 30.5803 11.1505C29.3478 10.9869 26.5288 10.8483 23.1746 12.2308C18.6527 14.0946 16.7296 17.8554 16.7296 17.8554L19.1305 12.1174C19.8125 10.4875 20.8176 9.01268 22.0853 7.78158C24.4376 5.49718 27.4085 3.95248 30.6298 3.33934L33.5284 2.78731C34.7329 2.55804 35.9219 3.25297 36.3134 4.41462L44.0583 27.3956L41.4799 29.1148Z" fill="#DAD9D8"/>
<path d="M65.5143 12.0348C65.5143 12.0348 58.4296 25.4143 46.876 28.4712C44.1079 28.8016 42.6992 28.2864 42.6992 28.2864L57.0108 13.5492C55.3623 10.1207 52.7733 7.23103 49.5459 5.21725C48.1964 4.37504 48.9702 2.28791 50.5424 2.52987L55.7924 3.33681L61.8308 7.0229L65.5143 12.0348Z" fill="#DBDAD9"/>
<path d="M44.1078 28.8012L49.6838 9.63751C49.799 9.24233 50.091 8.92611 50.475 8.77718C51.6338 8.32811 54.3413 7.53024 57.9268 8.0845C62.7601 8.8321 65.5139 12.0344 65.5139 12.0344L61.8308 7.02309C60.7846 5.5992 59.4604 4.40192 57.9389 3.5036C55.1149 1.83668 51.8642 1.03464 48.5889 1.19637L45.642 1.34205C44.4174 1.40246 43.425 2.35753 43.3177 3.57901L41.1974 27.7368L44.1078 28.8012Z" fill="#DAD9D8"/>
</svg>
