<svg width="342" height="294" viewBox="0 0 342 294" fill="none" xmlns="http://www.w3.org/2000/svg">
<g clip-path="url(#clip0_27_210)">
<path d="M88.5576 209.234L260.77 157.865L296.407 277.337C297.173 279.906 296.887 282.675 295.613 285.033C294.338 287.392 292.178 289.147 289.609 289.914L136.771 335.504C134.202 336.27 131.434 335.984 129.075 334.709C126.717 333.435 124.961 331.275 124.195 328.706L88.5576 209.234Z" fill="#C0E2FF"/>
<path d="M261.749 161.148L279.312 220.028L194.145 177.738L257.25 158.915L261.749 161.148Z" fill="#ACD8FF"/>
<path d="M274.896 205.223L279.312 220.028L259.031 209.956L274.896 205.223Z" fill="#ACD8FF"/>
<path d="M183.932 55.6755L181.89 57.2151C178.884 59.4825 176.448 62.4187 174.773 65.7911C173.098 69.1635 172.232 72.8795 172.242 76.6448L172.263 84.6087L169.331 87.5628C164.795 92.1237 162.256 98.2996 162.274 104.732L214.586 130.708L230.57 98.5132L223.233 69.5069C222.349 66.0098 220.718 62.7454 218.453 59.9378C216.188 57.1302 213.343 54.8459 210.112 53.2416C205.952 51.1763 201.3 50.31 196.676 50.7399C192.052 51.1698 187.639 52.8788 183.932 55.6755Z" fill="#ACD8FE"/>
<path d="M325.078 125.764L325.086 128.321C325.096 132.086 324.23 135.802 322.555 139.175C320.88 142.547 318.444 145.483 315.438 147.75L309.079 152.547L308.501 156.668C308.06 159.822 307.001 162.859 305.386 165.604C303.771 168.349 301.63 170.749 299.088 172.667L246.776 146.691L262.761 114.5L290.304 102.813C293.625 101.404 297.211 100.73 300.817 100.837C304.423 100.945 307.963 101.831 311.194 103.435C315.353 105.501 318.855 108.684 321.308 112.628C323.76 116.572 325.066 121.12 325.078 125.764Z" fill="#ACD8FE"/>
<path d="M157.443 188.687L191.885 178.413L230.412 307.572L195.969 317.846L157.443 188.687Z" fill="#9DD2FF"/>
<path d="M102.684 256.591L274.896 205.223L285.17 239.665L112.958 291.034L102.684 256.591Z" fill="#ACD8FE"/>
<path d="M274.896 205.223L279.312 220.028L259.031 209.956L274.896 205.223Z" fill="#9DD2FF"/>
<path d="M147.185 97.2051L314.14 180.099C316.541 181.291 318.37 183.388 319.224 185.928C320.079 188.469 319.89 191.245 318.698 193.645L303.217 224.824L118.159 132.941L133.639 101.763C134.831 99.3619 136.928 97.5331 139.468 96.6784C142.009 95.8237 144.784 96.0131 147.185 97.2051Z" fill="#BADFFF"/>
<path d="M210.548 128.664L250.778 148.639L230.803 188.869L190.573 168.894L210.548 128.664Z" fill="#9DD2FF"/>
<path d="M223.865 118.915C223.204 119.113 222.507 119.156 221.827 119.041C221.147 118.926 220.503 118.655 219.945 118.251L216.003 115.4C203.362 106.294 194.737 92.6486 191.934 77.3235C191.826 76.7427 191.833 76.1462 191.955 75.5682C192.077 74.9902 192.313 74.442 192.647 73.955C192.981 73.4679 193.409 73.0516 193.904 72.7299C194.4 72.4082 194.954 72.1874 195.535 72.0801C196.116 71.9728 196.712 71.9811 197.29 72.1046C197.868 72.2282 198.415 72.4644 198.902 72.7999C199.388 73.1353 199.803 73.5634 200.124 74.0596C200.445 74.5559 200.664 75.1104 200.77 75.6917C203.157 88.743 210.503 100.364 221.268 108.119L225.21 110.97C225.889 111.461 226.418 112.133 226.735 112.909C227.053 113.684 227.147 114.534 227.007 115.361C226.867 116.187 226.499 116.958 225.943 117.586C225.388 118.215 224.668 118.675 223.865 118.915Z" fill="#9DD2FF"/>
<path d="M214.585 130.706L214.427 130.825C198.651 142.725 180.656 151.351 161.498 156.197L150.368 159.012L174.514 171L174.57 191.092L190.121 180.389C205.029 170.128 217.933 157.224 228.194 142.315L230.684 138.698L214.585 130.706Z" fill="#ACD8FE"/>
<path d="M293.001 136.445C281.613 139.84 269.476 139.793 258.115 136.31L253.462 134.892C252.327 134.541 251.378 133.754 250.822 132.704C250.265 131.655 250.148 130.428 250.494 129.291C250.84 128.155 251.622 127.202 252.669 126.641C253.716 126.08 254.942 125.956 256.08 126.297L260.734 127.715C273.419 131.604 287.117 130.432 298.957 124.445C299.484 124.175 300.06 124.013 300.65 123.966C301.241 123.92 301.835 123.991 302.398 124.175C302.961 124.359 303.482 124.652 303.931 125.038C304.38 125.425 304.749 125.896 305.015 126.425C305.281 126.954 305.441 127.53 305.483 128.121C305.526 128.712 305.451 129.306 305.264 129.867C305.076 130.429 304.78 130.949 304.391 131.395C304.002 131.842 303.528 132.208 302.998 132.471C299.789 134.087 296.444 135.417 293.001 136.445Z" fill="#9DD2FF"/>
<path d="M246.776 146.692L246.777 146.89C246.832 166.65 250.836 186.2 258.554 204.391L263.039 214.961L238.892 202.973L222.852 215.072L221.98 196.214C221.144 178.134 223.625 160.054 229.301 142.868L230.678 138.698L246.776 146.692Z" fill="#ACD8FE"/>
<path d="M106.379 96.0852C111.135 94.6667 113.84 89.6616 112.421 84.9061C111.003 80.1506 105.998 77.4455 101.242 78.864C96.4867 80.2825 93.7815 85.2875 95.2 90.043C96.6185 94.7985 101.624 97.5037 106.379 96.0852Z" fill="#B7DDFF"/>
<path d="M88.5575 209.234C93.313 207.815 96.0182 202.81 94.5997 198.055C93.1812 193.299 88.1762 190.594 83.4207 192.013C78.6652 193.431 75.96 198.436 77.3785 203.192C78.797 207.947 83.802 210.652 88.5575 209.234Z" fill="#C0E7FB"/>
<path d="M77.526 109.38C76.6224 109.649 75.657 109.627 74.7665 109.318C73.8759 109.008 73.1055 108.426 72.5642 107.654L72.1451 107.058C70.4348 104.615 67.9981 102.772 65.1809 101.793C62.3638 100.813 59.3096 100.746 56.4521 101.601C55.3103 101.941 54.0799 101.815 53.0317 101.248C51.9834 100.681 51.2032 99.7216 50.8626 98.5798C50.522 97.4379 50.6489 96.2076 51.2155 95.1593C51.7821 94.1111 52.7418 93.3309 53.8837 92.9903C58.5481 91.5942 63.5339 91.7035 68.1327 93.3026C72.7315 94.9017 76.7095 97.9093 79.5015 101.898L79.9196 102.494C80.3277 103.077 80.5916 103.749 80.6896 104.454C80.7876 105.159 80.7168 105.877 80.4831 106.549C80.2494 107.221 79.8595 107.828 79.3454 108.321C78.8313 108.813 78.2078 109.176 77.526 109.38Z" fill="#A6DEFF"/>
<path d="M121.713 178.941C120.884 179.188 120 179.19 119.17 178.946L118.152 178.648C116.363 178.117 114.461 178.098 112.661 178.594C110.862 179.089 109.237 180.079 107.971 181.45C107.569 181.883 107.087 182.232 106.55 182.478C106.014 182.723 105.434 182.861 104.845 182.883C104.255 182.905 103.667 182.81 103.114 182.605C102.561 182.399 102.054 182.087 101.621 181.685C101.189 181.284 100.84 180.801 100.594 180.265C100.348 179.728 100.211 179.149 100.189 178.559C100.167 177.97 100.262 177.382 100.467 176.828C100.673 176.275 100.985 175.768 101.386 175.336C103.784 172.736 106.863 170.86 110.273 169.92C113.683 168.981 117.287 169.016 120.679 170.021L121.696 170.319C122.627 170.591 123.445 171.157 124.028 171.933C124.611 172.708 124.927 173.652 124.929 174.622C124.931 175.592 124.619 176.536 124.04 177.314C123.46 178.093 122.645 178.662 121.715 178.938L121.713 178.941Z" fill="#A6DEFF"/>
<path d="M67.5127 120.068L80.9205 126.591L93.8948 119.244L91.8342 134.011L102.83 144.08L88.1498 146.684L81.9716 160.253L74.9591 147.096L60.1441 145.413L70.4908 134.678L67.5127 120.068Z" fill="#9DD2FF"/>
<path d="M26.2199 106.062L33.2813 109.497L40.1145 105.628L39.0292 113.405L44.8206 118.708L37.0888 120.079L33.8349 127.226L30.1416 120.296L22.339 119.41L27.7883 113.756L26.2199 106.062Z" fill="#9DD2FF"/>
<path d="M149.004 180.866L149.586 195.041L161.593 202.598L148.29 207.532L144.814 221.287L136.011 210.161L121.855 211.104L129.716 199.294L124.445 186.122L138.106 189.95L149.004 180.866Z" fill="#9DD2FF"/>
<path d="M246.776 146.691L214.585 130.706L230.569 98.5114C236.807 98.4943 242.964 99.93 248.551 102.705C254.139 105.479 259.004 109.517 262.76 114.497L246.776 146.691Z" fill="#A3D4FE"/>
</g>
<defs>
<clipPath id="clip0_27_210">
<rect width="314.971" height="287.536" fill="white" transform="translate(0.930664 90.0317) rotate(-16.6092)"/>
</clipPath>
</defs>
</svg>
