<svg width="12" height="12" viewBox="0 0 12 12" fill="none" xmlns="http://www.w3.org/2000/svg">
<path d="M5.99971 10.5C5.84931 10.4997 5.70245 10.4543 5.57822 10.3695C3.73623 9.11949 2.93824 8.2615 2.49825 7.7255C1.56125 6.58301 1.11226 5.41053 1.12526 4.14004C1.13976 2.68405 2.30775 1.50006 3.72823 1.50006C4.76172 1.50006 5.47722 2.08206 5.89371 2.56655C5.9069 2.5818 5.92322 2.59402 5.94155 2.6024C5.95988 2.61078 5.9798 2.61512 5.99996 2.61512C6.02012 2.61512 6.04004 2.61078 6.05837 2.6024C6.07671 2.59402 6.09302 2.5818 6.10621 2.56655C6.52271 2.08156 7.2382 1.50006 8.27119 1.50006C9.69218 1.50006 10.8602 2.68405 10.8747 4.14004C10.8877 5.41053 10.4382 6.58351 9.50118 7.726C9.06118 8.262 8.26369 9.11949 6.42171 10.3695C6.29747 10.4543 6.15062 10.4997 6.00021 10.5H5.99971Z" fill="#F93232"/>
</svg>
