<svg width="362" height="504" viewBox="0 0 362 504" fill="none" xmlns="http://www.w3.org/2000/svg">
<path d="M40.6983 0.651152C41.5177 0.24126 42.4823 0.241261 43.3017 0.651152L45.5013 1.75141L47.9246 2.08589C48.8602 2.21503 49.6749 2.7902 50.1098 3.62857L51.1666 5.66603L52.8313 7.20869C53.5594 7.88348 53.8933 8.88294 53.7169 9.85989L53.3306 12L53.7169 14.1401C53.8933 15.1171 53.5594 16.1165 52.8313 16.7913L51.1666 18.334L50.1098 20.3714C49.6749 21.2098 48.8602 21.785 47.9246 21.9141L45.5013 22.2486L43.3017 23.3488C42.4823 23.7587 41.5177 23.7587 40.6983 23.3488L38.4987 22.2486L36.0754 21.9141C35.1398 21.785 34.3251 21.2098 33.8902 20.3714L32.8334 18.334L31.1687 16.7913C30.4406 16.1165 30.1067 15.1171 30.2831 14.1401L30.6694 12L30.2831 9.85989C30.1067 8.88294 30.4406 7.88348 31.1687 7.20869L32.8334 5.66603L33.8902 3.62857C34.3251 2.7902 35.1398 2.21503 36.0754 2.08589L38.4987 1.75141L40.6983 0.651152Z" fill="#F286AB"/>
<path d="M-20.7895 405.395C-19.0335 404.517 -16.9665 404.517 -15.2105 405.395L-3.41111 411.298L9.70506 413.108C11.7099 413.385 13.4557 414.617 14.3875 416.414L20.1942 427.608L29.4955 436.228C31.0559 437.674 31.7713 439.816 31.3934 441.909L29.2106 454L31.3934 466.091C31.7713 468.184 31.0559 470.326 29.4955 471.772L20.1942 480.392L14.3875 491.586C13.4557 493.383 11.7099 494.615 9.70506 494.892L-3.41111 496.702L-15.2105 502.605C-16.9665 503.483 -19.0335 503.483 -20.7895 502.605L-32.5889 496.702L-45.7051 494.892C-47.7099 494.615 -49.4557 493.383 -50.3875 491.586L-56.1942 480.392L-65.4956 471.772C-67.0559 470.326 -67.7713 468.184 -67.3934 466.091L-65.2107 454L-67.3934 441.909C-67.7713 439.816 -67.0559 437.674 -65.4956 436.228L-56.1942 427.608L-50.3875 416.414C-49.4557 414.617 -47.7099 413.385 -45.7051 413.108L-32.5889 411.298L-20.7895 405.395Z" fill="url(#paint0_linear_56_5158)"/>
<path d="M338.04 345.424C340.153 343.064 343.847 343.064 345.96 345.424V345.424C347.037 346.626 348.602 347.275 350.214 347.186V347.186C353.377 347.011 355.989 349.623 355.814 352.786V352.786C355.725 354.398 356.374 355.963 357.576 357.04V357.04C359.936 359.153 359.936 362.847 357.576 364.96V364.96C356.374 366.037 355.725 367.602 355.814 369.214V369.214C355.989 372.377 353.377 374.989 350.214 374.814V374.814C348.602 374.725 347.037 375.374 345.96 376.576V376.576C343.847 378.936 340.153 378.936 338.04 376.576V376.576C336.963 375.374 335.398 374.725 333.786 374.814V374.814C330.623 374.989 328.011 372.377 328.186 369.214V369.214C328.275 367.602 327.626 366.037 326.424 364.96V364.96C324.064 362.847 324.064 359.153 326.424 357.04V357.04C327.626 355.963 328.275 354.398 328.186 352.786V352.786C328.011 349.623 330.623 347.011 333.786 347.186V347.186C335.398 347.275 336.963 346.626 338.04 345.424V345.424Z" fill="#88D4FF"/>
<path d="M343.99 126.447V126.447C343.88 131.106 346.337 135.45 350.388 137.754L350.477 137.805V137.805C346.013 139.073 342.567 142.741 341.64 147.288V147.288V147.288C338.957 143.415 334.379 141.309 329.692 141.792V141.792V141.792C332.543 138.13 333.087 133.126 331.145 128.911V128.911L331.241 128.946C335.627 130.522 340.524 129.563 343.99 126.447V126.447Z" fill="#48CE62"/>
<circle cx="68" cy="43" r="3" fill="#EA5D40"/>
<circle cx="307" cy="340" r="3" fill="#F3BB00"/>
<defs>
<linearGradient id="paint0_linear_56_5158" x1="-18" y1="404" x2="-18" y2="504" gradientUnits="userSpaceOnUse">
<stop stop-color="#7238B0"/>
<stop offset="1" stop-color="#A367E3"/>
</linearGradient>
</defs>
</svg>
