<svg width="1364" height="808" viewBox="0 0 1364 808" fill="none" xmlns="http://www.w3.org/2000/svg">
<circle cx="265" cy="116" r="8" fill="#EA5D40"/>
<circle cx="1087" cy="328" r="8" fill="#F3BB00"/>
<path d="M1339.07 66.0759L1338.94 71.5218C1338.75 79.772 1343.1 87.463 1350.27 91.544L1355.23 94.3641L1350.1 95.8202C1342.04 98.1091 1335.93 104.703 1334.25 112.915L1333.22 117.983L1329.93 113.239C1325.28 106.519 1317.34 102.865 1309.21 103.702L1303.46 104.293L1306.64 100.211C1311.79 93.5977 1312.82 84.6658 1309.31 77.0542L1307.08 72.2122L1312.45 74.1415C1320.21 76.9334 1328.89 75.234 1335.02 69.7174L1339.07 66.0759Z" fill="#48CE62"/>
<path d="M122.211 1.39533C123.966 0.516989 126.034 0.516988 127.789 1.39533L138.13 6.56781L149.615 8.15302C151.62 8.42973 153.366 9.66224 154.297 11.4588L159.375 21.2476L167.496 28.7733C169.056 30.2193 169.771 32.361 169.393 34.4544L167.49 45L169.393 55.5456C169.771 57.639 169.056 59.7807 167.496 61.2267L159.375 68.7524L154.297 78.5413C153.366 80.3378 151.62 81.5703 149.615 81.847L138.13 83.4322L127.789 88.6047C126.034 89.483 123.966 89.483 122.211 88.6047L111.87 83.4322L100.385 81.847C98.3803 81.5703 96.6345 80.3378 95.7026 78.5412L90.6252 68.7524L82.5044 61.2267C80.9441 59.7807 80.2287 57.639 80.6066 55.5456L82.5104 45L80.6066 34.4544C80.2287 32.361 80.9441 30.2193 82.5044 28.7733L90.6252 21.2476L95.7027 11.4588C96.6345 9.66224 98.3803 8.42973 100.385 8.15302L111.87 6.56781L122.211 1.39533Z" fill="#F286AB"/>
<path d="M-12.2895 488.395C-10.5335 487.517 -8.46646 487.517 -6.71054 488.395L37.3304 510.425L86.4978 517.212C88.5026 517.488 90.2484 518.721 91.1803 520.517L113.103 562.783L148.496 595.582C150.056 597.028 150.771 599.17 150.393 601.263L142.046 647.5L150.393 693.737C150.771 695.83 150.056 697.972 148.496 699.418L113.103 732.217L91.1803 774.483C90.2484 776.279 88.5026 777.512 86.4978 777.788L37.3304 784.575L-6.71054 806.605C-8.46646 807.483 -10.5335 807.483 -12.2895 806.605L-56.3303 784.575L-105.498 777.788C-107.503 777.512 -109.248 776.279 -110.18 774.483L-132.103 732.217L-167.496 699.418C-169.056 697.972 -169.771 695.83 -169.393 693.737L-161.046 647.5L-169.393 601.263C-169.771 599.17 -169.056 597.028 -167.496 595.582L-132.103 562.783L-110.18 520.517C-109.248 518.721 -107.503 517.488 -105.498 517.212L-56.3303 510.425L-12.2895 488.395Z" fill="url(#paint0_linear_42_7178)"/>
<path d="M1284.5 360.617C1289.57 354.953 1298.43 354.953 1303.5 360.617C1306.09 363.504 1309.84 365.059 1313.71 364.845C1321.3 364.426 1327.57 370.696 1327.15 378.287C1326.94 382.155 1328.5 385.911 1331.38 388.496C1337.05 393.566 1337.05 402.434 1331.38 407.504C1328.5 410.089 1326.94 413.845 1327.15 417.713C1327.57 425.304 1321.3 431.574 1313.71 431.155C1309.84 430.941 1306.09 432.496 1303.5 435.383C1298.43 441.047 1289.57 441.047 1284.5 435.383C1281.91 432.496 1278.16 430.941 1274.29 431.155C1266.7 431.574 1260.43 425.304 1260.85 417.713C1261.06 413.845 1259.5 410.089 1256.62 407.504C1250.95 402.434 1250.95 393.566 1256.62 388.496C1259.5 385.911 1261.06 382.155 1260.85 378.287C1260.43 370.696 1266.7 364.426 1274.29 364.845C1278.16 365.059 1281.91 363.504 1284.5 360.617Z" fill="#88D4FF"/>
<defs>
<linearGradient id="paint0_linear_42_7178" x1="-9.5" y1="487" x2="-9.5" y2="808" gradientUnits="userSpaceOnUse">
<stop stop-color="#7238B0"/>
<stop offset="1" stop-color="#A367E3"/>
</linearGradient>
</defs>
</svg>
