<svg width="17" height="17" viewBox="0 0 17 17" fill="none" xmlns="http://www.w3.org/2000/svg">
<path d="M5.04688 8.5C5.68091 8.5 6.28897 8.24813 6.7373 7.7998C7.18563 7.35147 7.4375 6.74341 7.4375 6.10938C7.4375 5.47534 7.18563 4.86728 6.7373 4.41895C6.28897 3.97062 5.68091 3.71875 5.04688 3.71875C4.41284 3.71875 3.80478 3.97062 3.35645 4.41895C2.90812 4.86728 2.65625 5.47534 2.65625 6.10938C2.65625 6.74341 2.90812 7.35147 3.35645 7.7998C3.80478 8.24813 4.41284 8.5 5.04688 8.5Z" fill="#37B1B5"/>
<path d="M7.76971 9.82798C6.83471 9.35339 5.80267 9.16356 5.04688 9.16356C3.56646 9.16356 0.53125 10.0716 0.53125 11.8864V13.2811H5.51154V12.7477C5.51154 12.1173 5.77717 11.4841 6.24254 10.9571C6.613 10.5356 7.13221 10.1453 7.76971 9.82798Z" fill="#37B1B5"/>
<path d="M11.2894 9.5625C9.56038 9.5625 6.10938 10.6307 6.10938 12.75V14.3438H16.4688V12.75C16.4688 10.6307 13.0185 9.5625 11.2894 9.5625Z" fill="#37B1B5"/>
<path d="M11.2893 8.5C12.0642 8.5 12.8074 8.19216 13.3554 7.6442C13.9033 7.09625 14.2112 6.35305 14.2112 5.57813C14.2112 4.8032 13.9033 4.06001 13.3554 3.51205C12.8074 2.96409 12.0642 2.65625 11.2893 2.65625C10.5144 2.65625 9.77119 2.96409 9.22324 3.51205C8.67528 4.06001 8.36744 4.8032 8.36744 5.57813C8.36744 6.35305 8.67528 7.09625 9.22324 7.6442C9.77119 8.19216 10.5144 8.5 11.2893 8.5Z" fill="#37B1B5"/>
</svg>
