<svg width="20" height="20" viewBox="0 0 20 20" fill="none" xmlns="http://www.w3.org/2000/svg">
<path d="M5.9375 10C6.68342 10 7.39879 9.70368 7.92624 9.17624C8.45368 8.64879 8.75 7.93342 8.75 7.1875C8.75 6.44158 8.45368 5.72621 7.92624 5.19876C7.39879 4.67132 6.68342 4.375 5.9375 4.375C5.19158 4.375 4.47621 4.67132 3.94876 5.19876C3.42132 5.72621 3.125 6.44158 3.125 7.1875C3.125 7.93342 3.42132 8.64879 3.94876 9.17624C4.47621 9.70368 5.19158 10 5.9375 10Z" fill="#4C515B"/>
<path d="M9.14083 11.5626C8.04083 11.0042 6.82667 10.7809 5.9375 10.7809C4.19583 10.7809 0.625 11.8492 0.625 13.9842V15.6251H6.48417V14.9976C6.48417 14.2559 6.79667 13.5109 7.34417 12.8909C7.78 12.3951 8.39083 11.9359 9.14083 11.5626Z" fill="#4C515B"/>
<path d="M13.2817 11.25C11.2475 11.25 7.1875 12.5067 7.1875 15V16.875H19.375V15C19.375 12.5067 15.3158 11.25 13.2817 11.25Z" fill="#4C515B"/>
<path d="M13.2817 10C14.1934 10 15.0678 9.63784 15.7124 8.99318C16.3571 8.34852 16.7192 7.47418 16.7192 6.5625C16.7192 5.65082 16.3571 4.77648 15.7124 4.13182C15.0678 3.48716 14.1934 3.125 13.2817 3.125C12.3701 3.125 11.4957 3.48716 10.8511 4.13182C10.2064 4.77648 9.84424 5.65082 9.84424 6.5625C9.84424 7.47418 10.2064 8.34852 10.8511 8.99318C11.4957 9.63784 12.3701 10 13.2817 10Z" fill="#4C515B"/>
</svg>
