<svg width="16" height="16" viewBox="0 0 16 16" fill="none" xmlns="http://www.w3.org/2000/svg">
<g clip-path="url(#clip0_545_26974)">
<path d="M8.00002 10.0003C9.10459 10.0003 10 9.1049 10 8.00033C10 6.89576 9.10459 6.00033 8.00002 6.00033C6.89545 6.00033 6.00002 6.89576 6.00002 8.00033C6.00002 9.1049 6.89545 10.0003 8.00002 10.0003Z" stroke="#101828" stroke-width="1.33333" stroke-linecap="round" stroke-linejoin="round"/>
<path d="M12.9334 10.0003C12.8446 10.2014 12.8181 10.4245 12.8574 10.6407C12.8966 10.857 12.9997 11.0565 13.1534 11.2137L13.1934 11.2537C13.3173 11.3775 13.4157 11.5245 13.4828 11.6864C13.5499 11.8483 13.5844 12.0218 13.5844 12.197C13.5844 12.3722 13.5499 12.5457 13.4828 12.7076C13.4157 12.8694 13.3173 13.0165 13.1934 13.1403C13.0695 13.2643 12.9225 13.3626 12.7606 13.4297C12.5987 13.4968 12.4252 13.5314 12.25 13.5314C12.0748 13.5314 11.9013 13.4968 11.7394 13.4297C11.5776 13.3626 11.4305 13.2643 11.3067 13.1403L11.2667 13.1003C11.1096 12.9466 10.91 12.8435 10.6937 12.8043C10.4775 12.7651 10.2544 12.7916 10.0534 12.8803C9.85617 12.9648 9.68801 13.1052 9.56956 13.284C9.45111 13.4629 9.38754 13.6725 9.38669 13.887V14.0003C9.38669 14.3539 9.24621 14.6931 8.99616 14.9431C8.74611 15.1932 8.40698 15.3337 8.05335 15.3337C7.69973 15.3337 7.36059 15.1932 7.11055 14.9431C6.8605 14.6931 6.72002 14.3539 6.72002 14.0003V13.9403C6.71486 13.7197 6.64343 13.5057 6.51503 13.3261C6.38662 13.1466 6.20718 13.0098 6.00002 12.9337C5.79894 12.8449 5.57589 12.8184 5.35963 12.8577C5.14336 12.8969 4.94381 13 4.78669 13.1537L4.74669 13.1937C4.62286 13.3176 4.4758 13.416 4.31394 13.4831C4.15208 13.5502 3.97857 13.5847 3.80335 13.5847C3.62813 13.5847 3.45463 13.5502 3.29277 13.4831C3.1309 13.416 2.98385 13.3176 2.86002 13.1937C2.73605 13.0698 2.63771 12.9228 2.57061 12.7609C2.50351 12.599 2.46897 12.4255 2.46897 12.2503C2.46897 12.0751 2.50351 11.9016 2.57061 11.7397C2.63771 11.5779 2.73605 11.4308 2.86002 11.307L2.90002 11.267C3.05371 11.1099 3.15681 10.9103 3.19602 10.6941C3.23524 10.4778 3.20876 10.2547 3.12002 10.0537C3.03551 9.85648 2.89519 9.68831 2.71633 9.56986C2.53747 9.45141 2.32788 9.38785 2.11335 9.38699H2.00002C1.6464 9.38699 1.30726 9.24652 1.05721 8.99647C0.807163 8.74642 0.666687 8.40728 0.666687 8.05366C0.666687 7.70004 0.807163 7.3609 1.05721 7.11085C1.30726 6.8608 1.6464 6.72033 2.00002 6.72033H2.06002C2.28068 6.71516 2.49469 6.64374 2.67422 6.51533C2.85375 6.38693 2.9905 6.20748 3.06669 6.00033C3.15543 5.79925 3.1819 5.5762 3.14269 5.35993C3.10348 5.14367 3.00038 4.94411 2.84669 4.78699L2.80669 4.74699C2.68272 4.62316 2.58437 4.47611 2.51727 4.31425C2.45018 4.15238 2.41564 3.97888 2.41564 3.80366C2.41564 3.62844 2.45018 3.45494 2.51727 3.29307C2.58437 3.13121 2.68272 2.98416 2.80669 2.86033C2.93052 2.73636 3.07757 2.63801 3.23943 2.57091C3.4013 2.50381 3.5748 2.46928 3.75002 2.46928C3.92524 2.46928 4.09874 2.50381 4.26061 2.57091C4.42247 2.63801 4.56952 2.73636 4.69335 2.86033L4.73335 2.90033C4.89047 3.05402 5.09003 3.15712 5.30629 3.19633C5.52256 3.23554 5.74561 3.20907 5.94669 3.12033H6.00002C6.1972 3.03582 6.36537 2.8955 6.48382 2.71664C6.60227 2.53778 6.66583 2.32818 6.66669 2.11366V2.00033C6.66669 1.6467 6.80716 1.30757 7.05721 1.05752C7.30726 0.807468 7.6464 0.666992 8.00002 0.666992C8.35364 0.666992 8.69278 0.807468 8.94283 1.05752C9.19288 1.30757 9.33335 1.6467 9.33335 2.00033V2.06033C9.33421 2.27485 9.39778 2.48444 9.51623 2.6633C9.63468 2.84216 9.80284 2.98248 10 3.06699C10.2011 3.15574 10.4241 3.18221 10.6404 3.143C10.8567 3.10378 11.0562 3.00068 11.2134 2.84699L11.2534 2.80699C11.3772 2.68302 11.5242 2.58468 11.6861 2.51758C11.848 2.45048 12.0215 2.41594 12.1967 2.41594C12.3719 2.41594 12.5454 2.45048 12.7073 2.51758C12.8691 2.58468 13.0162 2.68302 13.14 2.80699C13.264 2.93082 13.3623 3.07787 13.4294 3.23974C13.4965 3.4016 13.5311 3.5751 13.5311 3.75033C13.5311 3.92555 13.4965 4.09905 13.4294 4.26091C13.3623 4.42278 13.264 4.56983 13.14 4.69366L13.1 4.73366C12.9463 4.89078 12.8432 5.09034 12.804 5.3066C12.7648 5.52286 12.7913 5.74592 12.88 5.94699V6.00033C12.9645 6.19751 13.1049 6.36567 13.2837 6.48412C13.4626 6.60257 13.6722 6.66614 13.8867 6.66699H14C14.3536 6.66699 14.6928 6.80747 14.9428 7.05752C15.1929 7.30757 15.3334 7.6467 15.3334 8.00033C15.3334 8.35395 15.1929 8.69309 14.9428 8.94313C14.6928 9.19318 14.3536 9.33366 14 9.33366H13.94C13.7255 9.33451 13.5159 9.39808 13.337 9.51653C13.1582 9.63498 13.0179 9.80315 12.9334 10.0003Z" stroke="#101828" stroke-width="1.33333" stroke-linecap="round" stroke-linejoin="round"/>
</g>
<defs>
<clipPath id="clip0_545_26974">
<rect width="16" height="16" fill="white"/>
</clipPath>
</defs>
</svg>
