<svg width="20" height="20" viewBox="0 0 20 20" fill="none" xmlns="http://www.w3.org/2000/svg">
<path d="M12.8585 6.41796C6.29175 6.66508 2.86579 12.6932 1.80822 16.1629C1.73055 16.4177 1.92587 16.6665 2.19227 16.6665C2.3538 16.6665 2.50038 16.5689 2.56916 16.4227C5.03454 11.1841 10.5885 10.2625 12.928 10.4698C13.1316 10.4879 13.2775 10.6629 13.2775 10.8673V12.6038C13.2775 12.9721 13.7204 13.1593 13.9845 12.9026L17.2477 9.73186C17.3933 9.59044 17.4158 9.36469 17.301 9.19736L14.0377 4.44124C13.8061 4.10367 13.2775 4.26758 13.2775 4.67697V5.99345C13.2775 6.22357 13.0885 6.4093 12.8585 6.41796Z" fill="#3B3F46" stroke="#3B3F46" stroke-width="0.833333" stroke-linecap="round" stroke-linejoin="round"/>
</svg>
