<svg width="13" height="16" viewBox="0 0 13 16" fill="none" xmlns="http://www.w3.org/2000/svg">
<g clip-path="url(#clip0_0_14)">
<path d="M12.5928 5.45322C11.5277 6.11137 10.8699 7.23963 10.8699 8.49324C10.8699 9.90356 11.7157 11.1885 13 11.7213C12.7494 12.5361 12.3735 13.2883 11.9036 13.9778C11.2144 14.9494 10.494 15.9523 9.42891 15.9523C8.36385 15.9523 8.05059 15.3254 6.79758 15.3254C5.5759 15.3254 5.13734 15.9836 4.13494 15.9836C3.13253 15.9836 2.44337 15.0747 1.66024 13.9465C0.626505 12.3794 0.0313253 10.5617 0 8.64994C0 5.54725 2.00482 3.88621 4.00963 3.88621C5.07469 3.88621 5.9518 4.57569 6.60963 4.57569C7.23614 4.57569 8.23855 3.85487 9.42891 3.85487C10.6819 3.82353 11.8723 4.41899 12.5928 5.45322ZM8.86505 2.53857C9.39758 1.91176 9.67951 1.12825 9.71083 0.313404C9.71083 0.219383 9.71083 0.0940211 9.67951 0C8.77108 0.0940211 7.92529 0.532786 7.33011 1.22227C6.79758 1.81774 6.48433 2.56991 6.45301 3.38476C6.45301 3.47878 6.45301 3.5728 6.48433 3.66682C6.54698 3.66682 6.64096 3.69816 6.70361 3.69816C7.54939 3.63548 8.33252 3.19672 8.86505 2.53857Z" fill="black"/>
</g>
<defs>
<clipPath id="clip0_0_14">
<rect width="12.6316" height="15.5306" fill="white" transform="scale(1.02917)"/>
</clipPath>
</defs>
</svg>
