<svg width="215" height="87" viewBox="0 0 215 87" fill="none" xmlns="http://www.w3.org/2000/svg">
<rect x="6.79395" width="209" height="65" rx="32.5" transform="rotate(6 6.79395 0)" fill="#5977ED"/>
<path d="M49.7345 26.7349L49.4962 29.0024L41.2019 28.1306L40.5621 34.2171L48.2001 35.0199L47.9649 37.2576L40.327 36.4548L39.4646 44.6596L36.7197 44.3711L38.6953 25.5746L49.7345 26.7349ZM58.426 27.6484L60.8725 27.9055L66.3857 47.4891L63.5215 47.1881L62.0116 41.7505L54.2841 40.9383L51.7065 45.9463L48.8721 45.6484L58.426 27.6484ZM55.2589 38.8387L61.4349 39.4878L60.5236 36.104C60.2754 35.2132 60.0539 34.3553 59.859 33.5304C59.6642 32.7055 59.4714 31.8608 59.2807 30.9961L59.2211 30.9898C58.8548 31.7959 58.4817 32.5712 58.1018 33.3156C57.722 34.0599 57.3159 34.8619 56.8837 35.7214L55.2589 38.8387ZM77.8233 46.6702C78.8178 46.7747 79.6417 46.7809 80.2949 46.6886C80.968 46.5985 81.6385 46.4377 82.3064 46.2062L82.7009 48.4799C81.9692 48.7449 81.1772 48.913 80.3251 48.9844C79.4929 49.0578 78.4801 49.0318 77.2866 48.9063C76.0534 48.7767 74.9118 48.4456 73.8617 47.9129C72.8116 47.3802 71.9217 46.6633 71.1919 45.762C70.482 44.8629 69.9511 43.7915 69.5992 42.5479C69.2692 41.2865 69.1868 39.8702 69.352 38.2988C69.5129 36.7673 69.8849 35.4288 70.4678 34.2835C71.0528 33.1182 71.786 32.1697 72.6673 31.4378C73.5706 30.6881 74.6011 30.1629 75.7589 29.8623C76.9188 29.5418 78.1551 29.4505 79.4678 29.5885C80.7011 29.7181 81.705 29.9242 82.4797 30.2067C83.2544 30.4892 83.9622 30.8351 84.6029 31.2443L83.7207 33.3235C83.3595 33.1247 83.0161 32.9478 82.6905 32.7929C82.3869 32.6202 82.0702 32.4763 81.7405 32.3612C81.4306 32.2482 81.0987 32.153 80.7449 32.0756C80.4109 32.0003 80.0251 31.9396 79.5876 31.8936C78.7124 31.8017 77.8623 31.8531 77.0375 32.0479C76.2345 32.225 75.5034 32.5805 74.844 33.1145C74.2044 33.6506 73.6555 34.3772 73.1971 35.2943C72.7607 36.1936 72.4725 37.3096 72.3324 38.6422C72.1902 39.9948 72.2391 41.1563 72.479 42.1267C72.7188 43.097 73.0869 43.8999 73.5832 44.5353C74.0994 45.1727 74.7208 45.6704 75.4474 46.0283C76.1761 46.3663 76.968 46.5803 77.8233 46.6702ZM88.9521 30.8568L100.29 32.0484L100.051 34.316L91.4586 33.4128L90.8659 39.0518L98.6829 39.8734L98.4477 42.111L90.6308 41.2894L89.9597 47.6743L98.6419 48.5868L98.4035 50.8543L86.9765 49.6533L88.9521 30.8568ZM110.731 33.1459C112.601 33.3424 114.01 33.9028 114.959 34.827C115.929 35.7334 116.333 36.9624 116.17 38.5138C116.049 39.6675 115.626 40.538 114.9 41.1254C114.197 41.695 113.344 42.0579 112.342 42.214C112.889 42.372 113.387 42.6053 113.837 42.9141C114.29 43.203 114.674 43.5651 114.99 44.0005C115.306 44.436 115.535 44.9426 115.675 45.5205C115.837 46.0805 115.883 46.6987 115.812 47.3749C115.73 48.1507 115.486 48.8489 115.079 49.4698C114.674 50.0707 114.149 50.5686 113.504 50.9634C112.859 51.3581 112.116 51.6419 111.273 51.8148C110.43 51.9877 109.522 52.0229 108.547 51.9204L103.117 51.3497L105.092 32.5532L110.731 33.1459ZM107.013 40.6885L109.25 40.9237C109.748 40.976 110.229 40.9864 110.695 40.9549C111.161 40.9234 111.574 40.816 111.935 40.6328C112.316 40.4516 112.625 40.1925 112.862 39.8554C113.12 39.5004 113.281 39.0246 113.344 38.4279C113.444 37.4732 113.189 36.7425 112.579 36.2359C111.988 35.7314 111.156 35.4227 110.082 35.3099L107.605 35.0496L107.013 40.6885ZM106.094 49.4304L108.481 49.6812C109.038 49.7398 109.57 49.7454 110.078 49.6983C110.587 49.6312 111.045 49.4882 111.45 49.2694C111.855 49.0505 112.189 48.7437 112.452 48.349C112.736 47.9365 112.911 47.422 112.976 46.8054C113.041 46.1888 112.955 45.6669 112.718 45.2398C112.503 44.795 112.191 44.4202 111.781 44.1157C111.37 43.8111 110.892 43.5798 110.345 43.4218C109.801 43.244 109.25 43.1258 108.693 43.0672L106.784 42.8665L106.094 49.4304ZM130.246 34.9255C131.519 35.0593 132.67 35.3914 133.7 35.922C134.733 36.4327 135.594 37.1366 136.284 38.0336C136.996 38.9129 137.507 39.9822 137.817 41.2415C138.129 42.4809 138.2 43.9062 138.031 45.5173C137.866 47.0886 137.491 48.4569 136.906 49.6222C136.323 50.7675 135.591 51.7061 134.709 52.438C133.828 53.1699 132.819 53.6872 131.681 53.9899C130.563 54.2947 129.367 54.3802 128.094 54.2464C126.821 54.1126 125.669 53.7904 124.636 53.2797C123.606 52.7491 122.735 52.0442 122.023 51.1649C121.333 50.2679 120.832 49.1997 120.52 47.9602C120.21 46.7009 120.139 45.2657 120.309 43.6546C120.474 42.0832 120.848 40.7249 121.431 39.5796C122.016 38.4143 122.749 37.4658 123.63 36.7339C124.512 36.002 125.511 35.4836 126.629 35.1788C127.767 34.8761 128.973 34.7917 130.246 34.9255ZM123.292 43.9682C123.158 45.2412 123.192 46.3608 123.392 47.327C123.612 48.2953 123.958 49.1159 124.43 49.789C124.902 50.462 125.481 50.9854 126.165 51.359C126.87 51.7347 127.63 51.9654 128.446 52.0511C129.261 52.1368 130.033 52.0671 130.76 51.8419C131.508 51.6188 132.172 51.2261 132.754 50.6639C133.356 50.1037 133.855 49.3719 134.252 48.4684C134.649 47.5649 134.914 46.4767 135.048 45.2037C135.185 43.8909 135.144 42.7504 134.924 41.7821C134.724 40.8159 134.387 40.0062 133.913 39.353C133.441 38.68 132.851 38.1656 132.144 37.8097C131.46 37.4361 130.71 37.2065 129.894 37.1208C129.079 37.035 128.297 37.1037 127.55 37.3268C126.802 37.5499 126.138 37.9426 125.556 38.5048C124.974 39.0671 124.484 39.8 124.088 40.7035C123.691 41.6069 123.426 42.6952 123.292 43.9682ZM151.893 37.2007C153.166 37.3345 154.317 37.6667 155.347 38.1972C156.38 38.7079 157.241 39.4118 157.931 40.3089C158.643 41.1881 159.154 42.2574 159.464 43.5167C159.776 44.7561 159.848 46.1814 159.678 47.7925C159.513 49.3638 159.138 50.7321 158.553 51.8974C157.97 53.0427 157.238 53.9813 156.357 54.7132C155.475 55.4451 154.466 55.9624 153.328 56.2651C152.21 56.5699 151.014 56.6554 149.741 56.5216C148.468 56.3878 147.316 56.0656 146.283 55.5549C145.253 55.0243 144.382 54.3194 143.67 53.4401C142.98 52.5431 142.479 51.4749 142.167 50.2355C141.857 48.9761 141.787 47.5409 141.956 45.9298C142.121 44.3585 142.495 43.0001 143.078 41.8548C143.663 40.6895 144.396 39.741 145.277 39.0091C146.159 38.2772 147.158 37.7589 148.276 37.454C149.414 37.1513 150.62 37.0669 151.893 37.2007ZM144.939 46.2434C144.806 47.5164 144.839 48.636 145.039 49.6022C145.259 50.5705 145.605 51.3912 146.077 52.0642C146.549 52.7373 147.128 53.2606 147.813 53.6342C148.517 54.0099 149.277 54.2406 150.093 54.3263C150.908 54.412 151.68 54.3423 152.407 54.1171C153.155 53.894 153.819 53.5014 154.401 52.9391C155.003 52.3789 155.502 51.6471 155.899 50.7436C156.296 49.8401 156.561 48.7519 156.695 47.4789C156.833 46.1661 156.792 45.0256 156.572 44.0573C156.372 43.0911 156.034 42.2814 155.56 41.6283C155.088 40.9552 154.498 40.4408 153.792 40.085C153.107 39.7113 152.357 39.4817 151.541 39.396C150.726 39.3102 149.944 39.3789 149.197 39.602C148.45 39.8251 147.785 40.2178 147.203 40.7801C146.621 41.3423 146.132 42.0752 145.735 42.9787C145.338 43.8822 145.073 44.9704 144.939 46.2434ZM163.63 57.7099L165.605 38.9134L168.35 39.2019L167.456 47.7051L176.257 40.0329L179.658 40.3904L171.026 47.8992L178.279 59.2496L174.818 58.8858L168.859 49.5719L167.099 51.1063L166.375 57.9984L163.63 57.7099Z" fill="white"/>
</svg>
