<svg width="43" height="42" viewBox="0 0 43 42" fill="none" xmlns="http://www.w3.org/2000/svg">
<path d="M16.4873 3.34319C18.2471 -1.11436 24.5558 -1.11436 26.3156 3.34319C27.3278 5.90713 30.1411 7.26196 32.7768 6.45475C37.359 5.05137 41.2924 9.98365 38.9046 14.1387C37.5311 16.5287 38.2259 19.573 40.5003 21.1304C44.4546 23.8379 43.0508 29.9884 38.3134 30.7122C35.5885 31.1285 33.6416 33.5698 33.8421 36.319C34.1906 41.0986 28.5067 43.8359 24.9872 40.5833C22.9627 38.7124 19.8402 38.7124 17.8157 40.5833C14.2962 43.8359 8.61229 41.0986 8.96084 36.319C9.16132 33.5698 7.21443 31.1285 4.48953 30.7122C-0.247848 29.9884 -1.65165 23.8379 2.30255 21.1304C4.57698 19.573 5.27181 16.5287 3.89834 14.1387C1.5105 9.98365 5.44387 5.05137 10.0261 6.45475C12.6618 7.26196 15.4751 5.90713 16.4873 3.34319Z" fill="#FEFEFE"/>
</svg>
