<svg width="84" height="84" viewBox="0 0 84 84" fill="none" xmlns="http://www.w3.org/2000/svg">
<path d="M32.4955 4.61688C37.5661 -1.04714 46.4339 -1.04714 51.5045 4.61688C54.0887 7.50352 57.8447 9.05931 61.7132 8.84545C69.3037 8.42582 75.5742 14.6963 75.1545 22.2868C74.9407 26.1553 76.4965 29.9113 79.3831 32.4955C85.0471 37.5661 85.0471 46.4339 79.3831 51.5045C76.4965 54.0887 74.9407 57.8447 75.1545 61.7132C75.5742 69.3037 69.3037 75.5742 61.7132 75.1545C57.8447 74.9407 54.0887 76.4965 51.5045 79.3831C46.4339 85.0471 37.5661 85.0471 32.4955 79.3831C29.9113 76.4965 26.1553 74.9407 22.2868 75.1545C14.6963 75.5742 8.42582 69.3037 8.84545 61.7132C9.05931 57.8447 7.50352 54.0887 4.61688 51.5045C-1.04714 46.4339 -1.04714 37.5661 4.61688 32.4955C7.50352 29.9113 9.05931 26.1553 8.84545 22.2868C8.42582 14.6963 14.6963 8.42582 22.2868 8.84545C26.1553 9.05931 29.9113 7.50352 32.4955 4.61688Z" fill="#88D4FF"/>
</svg>
