<svg width="36" height="36" viewBox="0 0 36 36" fill="none" xmlns="http://www.w3.org/2000/svg">
<path d="M0.477805 12.1813C-1.89196 4.95784 4.95804 -1.89216 12.1815 0.47761L17.8063 2.3229C17.87 2.34381 17.9387 2.34415 18.0027 2.32388L23.9026 0.453013C31.0689 -1.81939 37.8194 4.93109 35.547 12.0973L33.6761 17.9973C33.6558 18.0612 33.6562 18.1299 33.6771 18.1937L35.5224 23.8185C37.8921 31.0419 31.0421 37.8919 23.8187 35.5222L18.1939 33.6769C18.1301 33.656 18.0614 33.6556 17.9975 33.6759L12.0975 35.5468C4.93129 37.8192 -1.81919 31.0687 0.453206 23.9024L2.32407 18.0025C2.34435 17.9385 2.344 17.8699 2.3231 17.8061L0.477805 12.1813Z" fill="#FEFEFE"/>
</svg>
