<svg width="87" height="87" viewBox="0 0 87 87" fill="none" xmlns="http://www.w3.org/2000/svg">
<path d="M33.5689 4.43863C38.8671 -1.47959 48.1329 -1.47959 53.4311 4.43863C56.1312 7.45482 60.0558 9.08043 64.0979 8.85697C72.0291 8.41851 78.581 14.9705 78.1425 22.9016C77.9191 26.9437 79.5447 30.8683 82.5609 33.5684C88.4791 38.8666 88.4791 48.1324 82.5609 53.4306C79.5447 56.1307 77.9191 60.0553 78.1425 64.0974C78.581 72.0286 72.0291 78.5805 64.0979 78.1421C60.0558 77.9186 56.1312 79.5442 53.4311 82.5604C48.1329 88.4786 38.8671 88.4786 33.5689 82.5604C30.8688 79.5442 26.9442 77.9186 22.9021 78.1421C14.9709 78.5805 8.419 72.0286 8.85746 64.0974C9.08092 60.0553 7.45531 56.1307 4.43912 53.4306C-1.4791 48.1324 -1.4791 38.8666 4.43912 33.5684C7.45531 30.8683 9.08092 26.9437 8.85746 22.9016C8.419 14.9705 14.9709 8.41851 22.9021 8.85697C26.9442 9.08043 30.8688 7.45482 33.5689 4.43863Z" fill="#F9C1AD"/>
</svg>
