<svg width="88" height="88" viewBox="0 0 88 88" fill="none" xmlns="http://www.w3.org/2000/svg">
<path d="M34.0995 5.05925C39.3813 -0.840766 48.6187 -0.840766 53.9005 5.05925C56.5924 8.06617 60.5049 9.68678 64.5345 9.46401C72.4413 9.02689 78.9731 15.5587 78.536 23.4655C78.3132 27.4951 79.9338 31.4076 82.9408 34.0995C88.8408 39.3813 88.8408 48.6187 82.9408 53.9005C79.9338 56.5924 78.3132 60.5049 78.536 64.5345C78.9731 72.4413 72.4413 78.9731 64.5345 78.536C60.5049 78.3132 56.5924 79.9338 53.9005 82.9408C48.6187 88.8408 39.3813 88.8408 34.0995 82.9408C31.4076 79.9338 27.4951 78.3132 23.4655 78.536C15.5587 78.9731 9.02689 72.4413 9.46401 64.5345C9.68678 60.5049 8.06617 56.5924 5.05925 53.9005C-0.840766 48.6187 -0.840766 39.3813 5.05925 34.0995C8.06617 31.4076 9.68678 27.4951 9.46401 23.4655C9.02689 15.5587 15.5587 9.02689 23.4655 9.46401C27.4951 9.68678 31.4076 8.06617 34.0995 5.05925Z" fill="#F9C1AD"/>
</svg>
