<svg width="90" height="90" viewBox="0 0 90 90" fill="none" xmlns="http://www.w3.org/2000/svg">
<path d="M42.2105 1.39533C43.9665 0.516989 46.0335 0.516988 47.7895 1.39533L58.13 6.56781L69.6149 8.15302C71.6197 8.42973 73.3655 9.66224 74.2973 11.4588L79.3748 21.2476L87.4955 28.7733C89.0559 30.2193 89.7713 32.361 89.3934 34.4544L87.4896 45L89.3934 55.5456C89.7713 57.639 89.0559 59.7807 87.4956 61.2267L79.3748 68.7524L74.2973 78.5413C73.3655 80.3378 71.6197 81.5703 69.6149 81.847L58.13 83.4322L47.7895 88.6047C46.0335 89.483 43.9665 89.483 42.2105 88.6047L31.87 83.4322L20.3851 81.847C18.3803 81.5703 16.6345 80.3378 15.7026 78.5412L10.6252 68.7524L2.50445 61.2267C0.944135 59.7807 0.228685 57.639 0.60662 55.5456L2.51041 45L0.60662 34.4544C0.228685 32.361 0.944134 30.2193 2.50445 28.7733L10.6252 21.2476L15.7027 11.4588C16.6345 9.66224 18.3803 8.42973 20.3851 8.15302L31.87 6.56781L42.2105 1.39533Z" fill="#F286AB"/>
</svg>
