<svg width="889" height="868" viewBox="0 0 889 868" fill="none" xmlns="http://www.w3.org/2000/svg">
<g style="mix-blend-mode:screen">
<g style="mix-blend-mode:screen">
<path style="mix-blend-mode:screen" d="M10.1323 845.316C15.7275 845.316 20.2742 850.364 20.2742 856.589C20.2742 862.815 15.7275 867.863 10.1323 867.863C4.53716 867.863 0 862.815 0 856.589C0 850.364 4.53716 845.316 10.1323 845.316Z" fill="url(#paint0_radial_0_57)"/>
</g>
<g style="mix-blend-mode:screen">
<path style="mix-blend-mode:screen" d="M220.004 758.703C221.558 758.703 222.816 760.103 222.816 761.821C222.816 763.55 221.558 764.95 220.004 764.95C218.46 764.95 217.202 763.55 217.202 761.821C217.202 760.103 218.46 758.703 220.004 758.703Z" fill="url(#paint1_radial_0_57)"/>
</g>
<g style="mix-blend-mode:screen">
<path style="mix-blend-mode:screen" d="M374.334 781.632C381.187 781.632 386.754 787.815 386.754 795.45C386.754 803.075 381.187 809.269 374.334 809.269C367.471 809.269 361.914 803.075 361.914 795.45C361.914 787.815 367.471 781.632 374.334 781.632Z" fill="url(#paint2_radial_0_57)"/>
</g>
<g style="mix-blend-mode:screen">
<path style="mix-blend-mode:screen" d="M407.391 799.692C410.984 799.692 413.901 802.937 413.901 806.936C413.901 810.934 410.984 814.179 407.391 814.179C403.797 814.179 400.88 810.934 400.88 806.936C400.88 802.937 403.797 799.692 407.391 799.692Z" fill="url(#paint3_radial_0_57)"/>
</g>
<g style="mix-blend-mode:screen">
<path style="mix-blend-mode:screen" d="M553.199 559.558C554.753 559.558 556.02 560.958 556.02 562.687C556.02 564.426 554.753 565.826 553.199 565.826C551.645 565.826 550.378 564.426 550.378 562.687C550.378 560.958 551.645 559.558 553.199 559.558Z" fill="url(#paint4_radial_0_57)"/>
</g>
<g style="mix-blend-mode:screen">
<path style="mix-blend-mode:screen" d="M805.917 730.355C812.684 730.355 818.175 736.464 818.175 743.994C818.175 751.534 812.684 757.632 805.917 757.632C799.14 757.632 793.649 751.534 793.649 743.994C793.649 736.464 799.14 730.355 805.917 730.355Z" fill="url(#paint5_radial_0_57)"/>
</g>
<g style="mix-blend-mode:screen">
<path style="mix-blend-mode:screen" d="M884.53 463.026C886.998 463.026 889 465.253 889 468C889 470.757 886.998 472.984 884.53 472.984C882.051 472.984 880.05 470.757 880.05 468C880.05 465.253 882.051 463.026 884.53 463.026Z" fill="url(#paint6_radial_0_57)"/>
</g>
<g style="mix-blend-mode:screen">
<path style="mix-blend-mode:screen" d="M733.384 169.01C739.656 169.01 744.736 174.662 744.736 181.64C744.736 188.608 739.656 194.261 733.384 194.261C727.122 194.261 722.041 188.608 722.041 181.64C722.041 174.662 727.122 169.01 733.384 169.01Z" fill="url(#paint7_radial_0_57)"/>
<path style="mix-blend-mode:screen" d="M751.04 0C754.357 0 757.043 2.98893 757.043 6.67883C757.043 10.3631 754.357 13.3521 751.04 13.3521C747.729 13.3521 745.042 10.3631 745.042 6.67883C745.042 2.98893 747.729 0 751.04 0Z" fill="url(#paint8_radial_0_57)"/>
</g>
</g>
<defs>
<radialGradient id="paint0_radial_0_57" cx="0" cy="0" r="1" gradientUnits="userSpaceOnUse" gradientTransform="translate(10.1362 856.587) scale(10.1333 11.2744)">
<stop stop-color="#F3F4F6"/>
<stop offset="1"/>
</radialGradient>
<radialGradient id="paint1_radial_0_57" cx="0" cy="0" r="1" gradientUnits="userSpaceOnUse" gradientTransform="translate(220.008 761.824) scale(2.80809 3.12431)">
<stop stop-color="#F3F4F6"/>
<stop offset="1"/>
</radialGradient>
<radialGradient id="paint2_radial_0_57" cx="0" cy="0" r="1" gradientUnits="userSpaceOnUse" gradientTransform="translate(374.331 795.448) scale(12.42 13.8186)">
<stop stop-color="#F3F4F6"/>
<stop offset="1"/>
</radialGradient>
<radialGradient id="paint3_radial_0_57" cx="0" cy="0" r="1" gradientUnits="userSpaceOnUse" gradientTransform="translate(407.393 806.932) scale(6.50931 7.24229)">
<stop stop-color="#F3F4F6"/>
<stop offset="1"/>
</radialGradient>
<radialGradient id="paint4_radial_0_57" cx="0" cy="0" r="1" gradientUnits="userSpaceOnUse" gradientTransform="translate(553.198 562.69) scale(2.81954 3.13701)">
<stop stop-color="#F3F4F6"/>
<stop offset="1"/>
</radialGradient>
<radialGradient id="paint5_radial_0_57" cx="0" cy="0" r="1" gradientUnits="userSpaceOnUse" gradientTransform="translate(805.912 743.995) scale(12.2608 13.6415)">
<stop stop-color="#F3F4F6"/>
<stop offset="1"/>
</radialGradient>
<radialGradient id="paint6_radial_0_57" cx="0" cy="0" r="1" gradientUnits="userSpaceOnUse" gradientTransform="translate(884.526 468.004) scale(4.47616 4.98022)">
<stop stop-color="#F3F4F6"/>
<stop offset="1"/>
</radialGradient>
<radialGradient id="paint7_radial_0_57" cx="0" cy="0" r="1" gradientUnits="userSpaceOnUse" gradientTransform="translate(733.388 181.637) scale(11.3496 12.6277)">
<stop stop-color="#F3F4F6"/>
<stop offset="1"/>
</radialGradient>
<radialGradient id="paint8_radial_0_57" cx="0" cy="0" r="1" gradientUnits="userSpaceOnUse" gradientTransform="translate(751.042 6.67715) scale(6.00135 6.67715)">
<stop stop-color="#F3F4F6"/>
<stop offset="1"/>
</radialGradient>
</defs>
</svg>
