<svg width="20" height="20" viewBox="0 0 20 20" fill="none" xmlns="http://www.w3.org/2000/svg">
<path fill-rule="evenodd" clip-rule="evenodd" d="M3.84628 1.9997C2.92898 1.9997 2.70463 2.04302 2.47838 2.16402C2.33803 2.23909 2.23984 2.33728 2.16478 2.47763C2.04377 2.70388 2.00045 2.92823 2.00045 3.84553V16.1539C2.00045 17.0712 2.04377 17.2955 2.16478 17.5218C2.23984 17.6621 2.33803 17.7603 2.47838 17.8354C2.70463 17.9564 2.92898 17.9997 3.84628 17.9997H16.1546C17.0719 17.9997 17.2963 17.9564 17.5225 17.8354C17.6629 17.7603 17.7611 17.6621 17.8361 17.5218C17.9571 17.2955 18.0004 17.0712 18.0004 16.1539V3.84553C18.0004 2.92823 17.9571 2.70388 17.8361 2.47763C17.7611 2.33728 17.6629 2.23909 17.5225 2.16402C17.2963 2.04302 17.0719 1.9997 16.1546 1.9997H3.84628ZM3.84583 0H16.1542C17.4914 0 17.9764 0.139238 18.4653 0.400699C18.9542 0.66216 19.3378 1.04584 19.5993 1.53473C19.8608 2.02362 20 2.50855 20 3.84583V16.1542C20 17.4914 19.8608 17.9764 19.5993 18.4653C19.3378 18.9542 18.9542 19.3378 18.4653 19.5993C17.9764 19.8608 17.4914 20 16.1542 20H3.84583C2.50855 20 2.02362 19.8608 1.53473 19.5993C1.04584 19.3378 0.66216 18.9542 0.400699 18.4653C0.139238 17.9764 0 17.4914 0 16.1542V3.84583C0 2.50855 0.139238 2.02362 0.400699 1.53473C0.66216 1.04584 1.04584 0.66216 1.53473 0.400699C2.02362 0.139238 2.50855 0 3.84583 0Z" fill="#D1D3D8"/>
</svg>
